<svg width="48" height="64" viewBox="0 0 48 64" fill="none" xmlns="http://www.w3.org/2000/svg">
<path d="M12.2209 13.4515C12.3482 13.9797 12.433 14.1163 12.7297 14.2708C13.0689 14.4473 13.6182 14.3676 13.816 14.0393C14.0138 13.7111 14.1841 13.1973 14.0357 12.7966C13.935 12.5247 13.6117 12.1139 13.1595 12.0325C12.8114 11.9698 12.6332 12.0742 12.3991 12.3239C12.1866 12.5506 12.1599 12.7672 12.1387 12.8947C12.1185 13.0161 12.2129 13.4185 12.2209 13.4515Z" fill="#DF6347"/>
<path d="M15.3682 11.6481C15.4337 12.2789 15.6351 12.6841 16.0581 12.8601C16.5869 13.08 16.8013 12.9707 17.0746 12.6982C17.3537 12.42 17.5832 11.577 17.5399 11.3253C17.5071 11.1345 17.3702 10.4054 16.7634 10.257C16.3931 10.1664 15.9274 10.1426 15.7063 10.3939C15.5297 10.5945 15.369 10.8612 15.3434 11.0423C15.324 11.1795 15.367 11.6193 15.3682 11.6481Z" fill="#DF6347"/>
<path d="M19.4861 9.20466C19.9974 8.95688 20.2703 9.01233 20.7543 9.2258C21.2037 9.424 21.2896 9.7239 21.3779 9.94699C21.4663 10.1701 21.5847 10.8054 21.1238 11.4779C20.6629 12.1503 20.08 12.101 19.8565 11.9635C19.6331 11.826 19.1499 11.4724 19.0589 11.0227C18.9678 10.573 18.9298 10.1278 19.0004 9.91817C19.0498 9.77152 19.3287 9.2809 19.4861 9.20466Z" fill="#DF6347"/>
<path d="M24.3134 8.77253C24.1926 8.78817 24.0069 8.86516 23.6714 9.05236C23.3358 9.23955 22.8268 10.2402 22.8467 10.5134C22.8618 10.7195 22.86 10.9996 23.0217 11.2397C23.1775 11.4711 23.3255 11.5673 23.5693 11.7173C23.793 11.8549 24.1413 11.9511 24.1999 11.9647C24.371 12.0044 24.7149 12.0482 24.9012 12.0025C25.0972 11.9545 25.2571 11.8278 25.4337 11.6272L25.9281 10.8066C26.0023 10.6835 26.06 10.3722 26.0499 10.2348C26.0449 10.1661 26.0379 9.96948 26.0154 9.8761C25.9916 9.77706 25.9156 9.53345 25.8794 9.45492C25.8311 9.35022 25.6568 9.17734 25.5349 9.10234C25.413 9.02734 25.3114 8.96483 24.9696 8.83887C24.7188 8.77451 24.4342 8.75688 24.3134 8.77253Z" fill="#DF6347"/>
<path d="M33.4282 12.1316C33.6695 11.7927 34.1298 10.9211 34.0399 10.1459C33.9276 9.17693 33.5645 8.5317 33.0205 8.14065C32.4764 7.74961 31.2099 7.44833 30.4786 7.64514C29.7474 7.84196 28.9818 8.32693 28.5527 9.13147C28.1236 9.93602 27.8401 10.8438 27.8412 11.4214C27.8421 11.9281 28.1535 12.7515 28.6018 13.0705C28.8942 13.2785 29.7713 13.9026 30.6853 13.8183C31.5994 13.734 32.2371 13.4299 32.471 13.258C32.7209 13.0743 33.1686 12.5624 33.4282 12.1316Z" fill="#DF6347"/>
<path d="M20.0415 14.3832C18.8563 14.5631 16.9699 15.1365 16.0294 15.542C15.0889 15.9474 13.1946 16.919 12.686 17.3934C12.1774 17.8678 11.0781 19.5535 10.9194 21.4805C10.7924 23.0222 10.8704 24.5812 10.9252 25.1679C10.9327 25.7256 10.9345 26.9734 10.8823 27.5037C10.8171 28.1665 10.1878 31.6919 10.074 32.2649C9.96461 32.8162 9.32825 35.4898 9.30094 35.951C9.27582 36.3753 9.28187 38.3858 10.8735 39.5339C12.4652 40.6821 14.3268 40.3654 14.9521 40.1596C15.5773 39.9538 18.2815 39.2556 19.2852 36.5269C19.6901 35.4263 20.0551 34.6947 20.2915 32.7311C20.5279 30.7676 22.3891 27.2167 22.8297 26.5317C23.2703 25.8467 23.8477 24.796 25.069 23.8321C26.2903 22.8683 27.4532 21.4467 27.7243 21.1355C27.9912 20.8289 29.1812 18.9949 29.2977 18.6167C29.4251 18.2032 30.5638 16.3306 27.1016 14.9594C24.3318 13.8625 21.3161 14.024 20.0415 14.3832Z" fill="#DF6347"/>
<path d="M39.6701 44.1654C39.1477 44.2929 38.9888 44.2793 38.7167 44.0838C38.4058 43.8604 38.2234 43.3313 38.4207 43.0038C38.618 42.6763 38.991 42.2885 39.411 42.2384C39.6961 42.2044 40.2055 42.3064 40.4848 42.6747C40.6998 42.9582 40.6901 43.1658 40.5784 43.4898C40.477 43.7841 40.2991 43.9072 40.1968 43.9845C40.0995 44.0581 39.7027 44.1575 39.6701 44.1654Z" fill="#DF6347"/>
<path d="M39.8072 40.5182C39.2231 40.748 38.7748 40.7526 38.4258 40.4537C37.9896 40.0801 37.9871 39.8379 38.1007 39.4681C38.2168 39.0906 38.8516 38.4992 39.0925 38.423C39.2752 38.3652 39.9783 38.1544 40.3875 38.6307C40.6373 38.9213 40.8722 39.3281 40.7532 39.6413C40.6582 39.8915 40.4978 40.1575 40.3506 40.2633C40.239 40.3435 39.8331 40.506 39.8072 40.5182Z" fill="#DF6347"/>
<path d="M40.0603 35.7078C40.0429 35.1359 39.8687 34.9165 39.4588 34.5801C39.0782 34.2677 38.7754 34.3279 38.5389 34.3507C38.3023 34.3735 37.69 34.5578 37.3113 35.2788C36.9326 35.9997 37.2438 36.4998 37.4673 36.6373C37.6908 36.7748 38.2233 37.0464 38.6601 36.9224C39.0968 36.7983 39.5053 36.6288 39.6569 36.4696C39.763 36.3582 40.0657 35.8837 40.0603 35.7078Z" fill="#DF6347"/>
<path d="M38.221 31.181C38.2628 31.2965 38.2805 31.4982 38.2704 31.8848C38.2602 32.2713 37.6155 33.1855 37.3664 33.2925C37.1785 33.3733 36.9333 33.503 36.6481 33.4678C36.3733 33.4339 36.2208 33.3451 35.977 33.1951C35.7533 33.0575 35.5088 32.7892 35.4699 32.7428C35.3565 32.6075 35.1599 32.3192 35.1144 32.1312C35.0665 31.9334 35.1042 31.7322 35.1992 31.482L35.6926 30.6633C35.7666 30.5405 36.0135 30.3464 36.1388 30.2925C36.2014 30.2656 36.3773 30.182 36.4696 30.1594C36.5675 30.1355 36.8164 30.0922 36.902 30.0888C37.0162 30.0842 37.2481 30.1615 37.37 30.2365C37.4919 30.3115 37.5934 30.374 37.8612 30.6229C38.033 30.8184 38.1792 31.0655 38.221 31.181Z" fill="#DF6347"/>
<path d="M31.0818 24.5434C31.2685 24.1719 31.8224 23.3605 32.5444 23.0866C33.447 22.7441 34.1805 22.7746 34.7739 23.0837C35.3674 23.3927 36.2141 24.3907 36.3774 25.1365C36.5406 25.8823 36.4666 26.7907 35.9573 27.5435C35.448 28.2963 34.7811 28.9657 34.2734 29.2289C33.828 29.4598 32.9618 29.5571 32.4756 29.301C32.1586 29.134 31.2074 28.6328 30.8613 27.7746C30.5152 26.9163 30.4892 26.2053 30.5326 25.9169C30.579 25.6088 30.8228 24.9732 31.0818 24.5434Z" fill="#DF6347"/>
<path d="M35.2574 37.5782C35.6441 38.7233 36.0076 40.6772 36.0838 41.7061C36.16 42.735 36.1775 44.8781 35.9947 45.5512C35.8118 46.2243 34.8368 47.9811 33.2174 49.0048C31.922 49.8238 30.5171 50.4669 29.9766 50.6861C29.4835 50.9345 28.3868 51.5035 27.9452 51.7929C27.393 52.1546 24.5864 54.3313 24.1355 54.6954C23.7017 55.0456 21.6463 56.8391 21.2538 57.0746C20.8928 57.2912 19.1244 58.2053 17.3846 57.303C15.6448 56.4008 15.0673 54.5864 14.9606 53.9316C14.8539 53.2768 14.2241 50.5324 16.159 48.3842C16.9395 47.5177 17.4142 46.8558 19.0299 45.7458C20.6456 44.6357 22.9084 41.3425 23.3074 40.6341C23.7065 39.9257 24.3638 38.9273 24.6489 37.3912C24.934 35.8552 25.6478 34.1621 25.7966 33.7766C25.943 33.397 27.0067 31.4911 27.2853 31.2136C27.5898 30.9103 28.7109 29.0326 31.5064 31.5103C33.7427 33.4925 34.987 36.2708 35.2574 37.5782Z" fill="#DF6347"/>
</svg>
