<svg width="340" height="120" viewBox="0 0 340 120" fill="none" xmlns="http://www.w3.org/2000/svg">
<path d="M24.3551 52.8665C24.3551 52.936 24.2508 52.9881 24.0421 53.0228C23.8681 53.0575 23.7638 53.0228 23.729 52.9186C22.8942 48.9597 20.4766 46.9802 16.4762 46.9802H14.3891C13.1368 46.9802 12.2498 47.2059 11.728 47.6574C11.2063 48.1089 10.9454 48.8555 10.9454 49.8973V61.2011H15.224C19.1199 61.2011 21.0679 59.8988 21.0679 57.2943C21.0679 57.2248 21.1723 57.1901 21.381 57.1901C21.5897 57.1901 21.6941 57.2248 21.6941 57.2943L21.6419 61.8783C21.6419 62.9548 21.6593 63.7536 21.6941 64.2745L21.7462 66.9832C21.7462 67.0874 21.6419 67.1395 21.4332 67.1395C21.2245 67.1395 21.1201 67.0874 21.1201 66.9832C21.1201 64.0314 19.1199 62.5555 15.1196 62.5555H10.9454V73.7551C10.9454 74.8664 11.0845 75.6824 11.3628 76.2034C11.6411 76.6895 12.1802 77.0368 12.9803 77.2452C13.8152 77.4535 15.0848 77.5577 16.7893 77.5577C16.8589 77.5577 16.8937 77.6619 16.8937 77.8703C16.8937 78.0786 16.8589 78.1828 16.7893 78.1828C15.3631 78.1828 14.25 78.1655 13.4499 78.1307L8.33646 78.0786L4.52746 78.1307C3.86653 78.1655 2.94472 78.1828 1.76202 78.1828C1.65766 78.1828 1.60548 78.0786 1.60548 77.8703C1.60548 77.6619 1.65766 77.5577 1.76202 77.5577C3.01429 77.5577 3.91871 77.4709 4.47528 77.2973C5.06663 77.1236 5.46666 76.7937 5.67537 76.3075C5.88409 75.7866 5.98844 75.0053 5.98844 73.9634V49.8452C5.98844 48.8034 5.88409 48.0394 5.67537 47.5532C5.50145 47.067 5.1362 46.7371 4.57963 46.5635C4.02307 46.3551 3.17082 46.2509 2.02291 46.2509C1.91855 46.2509 1.86637 46.1468 1.86637 45.9384C1.86637 45.73 1.91855 45.6258 2.02291 45.6258H23.729C24.0769 45.6258 24.2508 45.7821 24.2508 46.0947L24.3551 52.8665Z" fill="#16304D"/>
<path d="M52.3528 74.9011C52.4571 74.9011 52.5441 74.9879 52.6137 75.1615C52.6832 75.3352 52.6658 75.4567 52.5615 75.5262L45.7262 78.8079L45.5175 78.86C45.1696 78.86 44.8565 78.478 44.5782 77.714C44.3 76.9153 44.1434 75.8561 44.1086 74.5364C41.6737 77.3494 39.0995 78.7558 36.3863 78.7558C34.5079 78.7558 33.0469 78.1828 32.0033 77.0368C30.9598 75.8561 30.438 74.2586 30.438 72.2444V64.4828C30.438 62.1214 29.8988 60.9406 28.8204 60.9406C28.4726 60.9406 27.9856 61.0796 27.3595 61.3574H27.3073C27.1681 61.3574 27.0638 61.2706 26.9942 61.0969C26.9246 60.9233 26.942 60.8017 27.0464 60.7323L33.673 57.6589L33.8817 57.6068C34.0209 57.6068 34.1774 57.6763 34.3513 57.8152C34.5253 57.9541 34.6122 58.0756 34.6122 58.1798V70.0045C34.6122 73.8593 36.0732 75.7866 38.9952 75.7866C39.8648 75.7866 40.7518 75.5783 41.6563 75.1615C42.5607 74.7448 43.3781 74.1718 44.1086 73.4425V64.4828C44.1086 63.2674 43.9695 62.3818 43.6912 61.8262C43.4477 61.2358 43.0477 60.9406 42.4911 60.9406C42.178 60.9406 41.6911 61.0796 41.0301 61.3574H40.978C40.8388 61.3574 40.7345 61.2706 40.6649 61.0969C40.5953 60.8886 40.6301 60.767 40.7692 60.7323L47.3437 57.6589C47.4133 57.6242 47.5002 57.6068 47.6046 57.6068C47.7437 57.6068 47.9003 57.6763 48.0742 57.8152C48.2481 57.9541 48.3351 58.0756 48.3351 58.1798V72.2965C48.3351 73.512 48.4568 74.3628 48.7003 74.849C48.9438 75.3352 49.3438 75.5783 49.9004 75.5783C50.3178 75.5783 51.1005 75.3699 52.2484 74.9532L52.3528 74.9011Z" fill="#16304D"/>
<path d="M71.6053 78.7558C69.7617 78.7558 68.092 78.2696 66.5962 77.2973C66.3875 77.0889 66.2831 76.8805 66.2831 76.6722L66.1788 71.2547C66.1788 71.1505 66.2657 71.0984 66.4397 71.0984C66.6484 71.0637 66.7701 71.0984 66.8049 71.2026C67.5354 73.0432 68.492 74.5885 69.6747 75.8387C70.8922 77.0542 72.0053 77.6619 73.0141 77.6619C73.7794 77.6619 74.3881 77.3494 74.8403 76.7243C75.2925 76.0645 75.5186 75.2657 75.5186 74.3281C75.5186 73.3904 75.3099 72.5222 74.8925 71.7235C74.4751 70.8901 73.9881 70.1608 73.4315 69.5357C72.875 68.9106 72.0401 68.0598 70.927 66.9832C69.3964 65.5247 68.2311 64.2571 67.431 63.1806C66.6658 62.0693 66.2831 60.8365 66.2831 59.4821C66.2831 58.5792 66.457 57.7457 66.8049 56.9817C67.1528 56.2177 67.6919 55.3148 68.4224 54.273C69.2573 53.0228 69.8834 51.9115 70.3008 50.9391C70.753 49.932 70.9792 48.786 70.9792 47.5011C70.9792 45.8342 70.5965 44.3757 69.8312 43.1255C69.1007 41.8753 67.9876 41.2502 66.4918 41.2502C64.5786 41.2502 63.1524 42.4483 62.2132 44.8445C61.3088 47.2059 60.8566 50.5745 60.8566 54.9502V73.9634C60.8566 75.0053 60.9262 75.7866 61.0653 76.3075C61.2044 76.7937 61.4827 77.1236 61.9002 77.2973C62.3176 77.4709 62.9785 77.5577 63.8829 77.5577C63.9525 77.5577 63.9873 77.6619 63.9873 77.8703C63.9873 78.0786 63.9525 78.1828 63.8829 78.1828L58.7695 78.1307L53.3429 78.1828C53.2386 78.1828 53.1864 78.0786 53.1864 77.8703C53.1864 77.6619 53.2386 77.5577 53.3429 77.5577C54.2822 77.5577 54.9605 77.4709 55.3779 77.2973C55.8301 77.0889 56.1432 76.7416 56.3171 76.2554C56.491 75.7693 56.578 75.0053 56.578 73.9634L56.5258 54.846C56.5258 50.1925 57.5346 46.6156 59.5521 44.1152C61.6045 41.6148 64.5786 40.3646 68.4746 40.3646C70.7704 40.3646 72.5445 40.8335 73.7968 41.7711C75.0838 42.674 75.7274 43.8895 75.7274 45.4175C75.7274 46.6329 75.4143 47.6748 74.7882 48.543C74.162 49.3764 73.2402 50.314 72.0227 51.3559C70.9792 52.2935 70.1965 53.0922 69.6747 53.7521C69.1877 54.3772 68.9442 55.1238 68.9442 55.992C68.9442 57.0685 69.3442 58.1277 70.1443 59.1695C70.9444 60.1766 72.1619 61.4616 73.7968 63.0243C75.6752 64.8301 77.084 66.3581 78.0232 67.6083C78.9624 68.8238 79.432 70.1434 79.432 71.5672C79.432 72.748 79.0842 73.894 78.3884 75.0053C77.7275 76.1165 76.7883 77.0195 75.5708 77.714C74.3881 78.4086 73.0663 78.7558 71.6053 78.7558Z" fill="#16304D"/>
<path d="M94.2416 78.86C92.5719 78.86 90.9544 78.5996 89.3891 78.0786V88.2885C89.3891 89.3303 89.5108 90.0943 89.7543 90.5805C89.9978 91.0667 90.45 91.3966 91.1109 91.5703C91.7719 91.7786 92.8154 91.8828 94.2416 91.8828C94.3112 91.8828 94.346 91.987 94.346 92.1953C94.346 92.4037 94.3112 92.5079 94.2416 92.5079C92.9894 92.5079 92.0154 92.4905 91.3197 92.4558L87.2498 92.4037L84.2756 92.4558C83.7538 92.4905 83.0407 92.5079 82.1363 92.5079C82.032 92.5079 81.9798 92.4037 81.9798 92.1953C81.9798 91.987 82.032 91.8828 82.1363 91.8828C83.0059 91.8828 83.6495 91.7786 84.0669 91.5703C84.4843 91.3966 84.7626 91.0667 84.9017 90.5805C85.0757 90.0943 85.1626 89.3303 85.1626 88.2885V64.0661C85.1626 62.9201 85.0235 62.0867 84.7452 61.5657C84.5017 61.0448 84.0669 60.7844 83.4408 60.7844C82.8494 60.7844 82.0146 61.0275 80.9362 61.5137H80.8318C80.6927 61.5137 80.5884 61.4442 80.5188 61.3053C80.4492 61.1316 80.4492 61.0101 80.5188 60.9406L87.4063 57.6589C87.4759 57.6242 87.5802 57.6068 87.7194 57.6068C88.102 57.6068 88.4499 57.9367 88.7629 58.5965C89.076 59.2216 89.2673 60.0898 89.3369 61.2011C92.0154 58.666 94.7286 57.3984 97.4767 57.3984C98.9377 57.3984 100.294 57.7805 101.547 58.5445C102.799 59.3085 103.79 60.4197 104.521 61.8783C105.286 63.3368 105.669 65.0385 105.669 66.9832C105.669 69.7267 105.077 71.984 103.895 73.7551C102.747 75.5262 101.303 76.8285 99.5638 77.6619C97.8245 78.4606 96.0505 78.86 94.2416 78.86ZM94.4503 60.003C92.6763 60.003 90.9892 60.7496 89.3891 62.2429V74.7969C90.2239 75.6998 91.0935 76.3944 91.998 76.8805C92.9372 77.3667 94.0677 77.6098 95.3895 77.6098C97.1288 77.6098 98.5028 76.8632 99.5116 75.3699C100.52 73.8419 101.025 71.5846 101.025 68.598C101.025 65.8546 100.399 63.7362 99.1464 62.2429C97.8941 60.7496 96.3288 60.003 94.4503 60.003Z" fill="#16304D"/>
<path d="M135.343 77.5577C135.448 77.5577 135.5 77.6619 135.5 77.8703C135.5 78.0786 135.448 78.1828 135.343 78.1828C134.474 78.1828 133.778 78.1655 133.256 78.1307L130.178 78.0786L127.204 78.1307C126.682 78.1655 125.986 78.1828 125.116 78.1828C125.012 78.1828 124.96 78.0786 124.96 77.8703C124.96 77.6619 125.012 77.5577 125.116 77.5577C126.264 77.5577 127.03 77.3146 127.412 76.8285C127.83 76.3423 128.038 75.3873 128.038 73.9634V45.4175C127.238 44.0631 126.334 43.0387 125.325 42.3441C124.351 41.6148 123.308 41.2502 122.194 41.2502C120.281 41.2502 118.785 42.3788 117.707 44.6361C116.629 46.8934 116.09 50.453 116.09 55.3148V58.5445C117.898 58.5097 119.916 58.3535 122.142 58.0756C122.247 58.0756 122.334 58.2145 122.403 58.4924C122.473 58.7355 122.507 59.0133 122.507 59.3258C122.507 59.6731 122.438 60.0204 122.299 60.3676C122.194 60.6802 122.09 60.8017 121.986 60.7323C120.038 60.2461 118.072 59.9509 116.09 59.8467V73.9634C116.09 75.04 116.194 75.8214 116.403 76.3075C116.646 76.7937 117.098 77.1236 117.759 77.2973C118.42 77.4709 119.464 77.5577 120.89 77.5577C121.029 77.5577 121.099 77.6619 121.099 77.8703C121.099 78.0786 121.029 78.1828 120.89 78.1828L117.394 78.1307C116.629 78.096 115.463 78.0786 113.898 78.0786L110.82 78.1307C110.298 78.1655 109.55 78.1828 108.576 78.1828C108.437 78.1828 108.367 78.0786 108.367 77.8703C108.367 77.6619 108.437 77.5577 108.576 77.5577C109.515 77.5577 110.211 77.4709 110.663 77.2973C111.115 77.0889 111.428 76.7416 111.602 76.2554C111.776 75.7693 111.863 75.0053 111.863 73.9634V62.2429C111.863 61.0969 111.637 60.3676 111.185 60.0551C110.733 59.7426 109.793 59.5863 108.367 59.5863C108.263 59.5863 108.211 59.43 108.211 59.1175C108.211 58.8396 108.263 58.7007 108.367 58.7007C109.654 58.7007 110.524 58.5445 110.976 58.2319C111.463 57.8846 111.724 57.2769 111.759 56.4087C111.933 50.7481 112.976 46.6677 114.889 44.1673C116.837 41.6322 119.742 40.3646 123.603 40.3646C126.595 40.3646 129.03 41.0592 130.908 42.4483C131.465 41.719 131.743 40.955 131.743 40.1563C131.743 40.0521 131.847 40 132.056 40C132.265 40 132.369 40.0521 132.369 40.1563V73.9634C132.369 75.3873 132.56 76.3423 132.943 76.8285C133.361 77.3146 134.161 77.5577 135.343 77.5577Z" fill="#16304D"/>
<path d="M156.182 74.9011C156.252 74.9011 156.322 74.9705 156.391 75.1094C156.495 75.2484 156.513 75.3525 156.443 75.422C155.191 76.6027 153.921 77.4709 152.634 78.0266C151.347 78.5475 149.938 78.8079 148.408 78.8079C146.251 78.8079 144.39 78.3565 142.825 77.4535C141.294 76.5159 140.112 75.2831 139.277 73.7551C138.477 72.1923 138.077 70.5254 138.077 68.7543C138.077 66.7054 138.581 64.8301 139.59 63.1285C140.633 61.4268 142.042 60.0898 143.816 59.1175C145.625 58.1104 147.608 57.6068 149.764 57.6068C151.817 57.6068 153.4 58.0756 154.513 59.0133C155.626 59.9162 156.182 61.1664 156.182 62.7638C156.182 63.7015 155.991 64.1703 155.608 64.1703H152.739L142.929 64.2745C142.825 65.0038 142.773 65.7851 142.773 66.6186C142.773 69.6399 143.468 72.0534 144.86 73.8593C146.286 75.6304 148.251 76.5159 150.756 76.5159C151.66 76.5159 152.582 76.3944 153.521 76.1513C154.46 75.8734 155.313 75.4741 156.078 74.9532L156.182 74.9011ZM147.886 58.6486C146.738 58.6486 145.747 59.0654 144.912 59.8988C144.077 60.7323 143.486 61.8783 143.138 63.3368L151.278 63.1806C151.208 61.7567 150.895 60.6455 150.338 59.8467C149.782 59.048 148.964 58.6486 147.886 58.6486Z" fill="#16304D"/>
<path d="M178.107 57.5026C178.141 57.4679 178.194 57.4505 178.263 57.4505C178.333 57.4505 178.402 57.4853 178.472 57.5547C178.576 57.5894 178.628 57.6415 178.628 57.711V81.8292C178.628 85.1283 177.672 87.785 175.759 89.7992C173.88 91.8133 171.219 92.8204 167.775 92.8204C165.549 92.8204 163.723 92.4558 162.297 91.7265C160.87 91.032 160.157 90.077 160.157 88.8615C160.157 88.0628 160.383 87.4724 160.836 87.0904C161.288 86.7084 161.827 86.5174 162.453 86.5174C163.288 86.5174 163.914 86.7084 164.332 87.0904C164.784 87.5071 165.219 88.1149 165.636 88.9136C166.158 89.8512 166.697 90.5458 167.254 90.9972C167.845 91.4834 168.714 91.7265 169.862 91.7265C171.254 91.7265 172.35 91.1014 173.15 89.8512C173.984 88.6011 174.402 86.3438 174.402 83.0794V75.1094C173.219 76.2554 172.019 77.1584 170.802 77.8182C169.619 78.478 168.297 78.8079 166.836 78.8079C165.445 78.8079 164.158 78.4606 162.975 77.7661C161.792 77.0368 160.853 75.995 160.157 74.6406C159.462 73.2515 159.114 71.602 159.114 69.692C159.114 67.2263 159.688 65.0732 160.836 63.2327C162.018 61.3574 163.531 59.9336 165.375 58.9612C167.254 57.9541 169.201 57.4505 171.219 57.4505C173.167 57.4505 174.854 57.9194 176.28 58.857C177.011 58.5097 177.62 58.0583 178.107 57.5026ZM169.236 76.4117C170.767 76.4117 172.489 75.6651 174.402 74.1718V63.0764C174.402 61.7567 173.967 60.6628 173.097 59.7946C172.228 58.9265 171.149 58.4924 169.862 58.4924C168.054 58.4924 166.593 59.3779 165.479 61.149C164.401 62.9201 163.862 65.2121 163.862 68.025C163.862 70.6296 164.332 72.6785 165.271 74.1718C166.245 75.6651 167.567 76.4117 169.236 76.4117Z" fill="#16304D"/>
<path d="M201.314 74.9011C201.384 74.9011 201.453 74.9705 201.523 75.1094C201.627 75.2484 201.644 75.3525 201.575 75.422C200.323 76.6027 199.053 77.4709 197.766 78.0266C196.479 78.5475 195.07 78.8079 193.539 78.8079C191.383 78.8079 189.522 78.3565 187.956 77.4535C186.426 76.5159 185.243 75.2831 184.408 73.7551C183.608 72.1923 183.208 70.5254 183.208 68.7543C183.208 66.7054 183.713 64.8301 184.721 63.1285C185.765 61.4268 187.174 60.0898 188.948 59.1175C190.757 58.1104 192.739 57.6068 194.896 57.6068C196.948 57.6068 198.531 58.0756 199.644 59.0133C200.757 59.9162 201.314 61.1664 201.314 62.7638C201.314 63.7015 201.123 64.1703 200.74 64.1703H197.87L188.061 64.2745C187.956 65.0038 187.904 65.7851 187.904 66.6186C187.904 69.6399 188.6 72.0534 189.991 73.8593C191.418 75.6304 193.383 76.5159 195.887 76.5159C196.792 76.5159 197.714 76.3944 198.653 76.1513C199.592 75.8734 200.444 75.4741 201.21 74.9532L201.314 74.9011ZM193.018 58.6486C191.87 58.6486 190.878 59.0654 190.044 59.8988C189.209 60.7323 188.617 61.8783 188.269 63.3368L196.409 63.1806C196.34 61.7567 196.027 60.6455 195.47 59.8467C194.913 59.048 194.096 58.6486 193.018 58.6486Z" fill="#16304D"/>
<path d="M236.869 46.9281C236.973 46.7545 237.008 46.6503 236.973 46.6156C236.973 46.5461 236.851 46.5114 236.608 46.5114C231.947 46.5114 228.538 46.6503 226.381 46.9281C224.224 47.1712 222.555 47.7442 221.372 48.6471C220.189 49.5153 219.146 50.9565 218.241 52.9707C218.241 53.0054 218.172 53.0228 218.033 53.0228C217.72 53.0228 217.58 52.9533 217.615 52.8144L219.702 44.0631C219.702 44.0284 219.772 44.011 219.911 44.011C220.259 44.011 220.398 44.0631 220.328 44.1673C220.294 44.2715 220.276 44.4104 220.276 44.584C220.276 45.0008 220.468 45.2786 220.85 45.4175C221.268 45.5564 222.085 45.6258 223.303 45.6258H242.348C242.522 45.6258 242.643 45.7127 242.713 45.8863C242.817 46.0599 242.817 46.1988 242.713 46.303L223.929 76.7764C223.79 76.95 223.737 77.0715 223.772 77.141C223.807 77.1757 223.929 77.1931 224.137 77.1931H235.617C237.634 77.1931 239.391 76.568 240.887 75.3178C242.382 74.0676 243.304 72.4702 243.652 70.5254C243.687 70.4212 243.791 70.3691 243.965 70.3691C244.139 70.3691 244.226 70.4212 244.226 70.5254L243.496 77.7661C243.496 77.8703 243.443 77.9918 243.339 78.1307C243.269 78.2349 243.165 78.287 243.026 78.287C237.843 78.2175 229.529 78.1828 218.085 78.1828C217.911 78.1828 217.789 78.1134 217.72 77.9745C217.65 77.8008 217.667 77.6445 217.772 77.5056L236.869 46.9281Z" fill="#16304D"/>
<path d="M251.665 60.7844C251.665 61.8609 252.03 62.7638 252.76 63.4931C253.526 64.2224 254.621 64.9864 256.048 65.7851C257.3 66.4797 258.256 67.0527 258.917 67.5041C259.613 67.9556 260.205 68.5633 260.691 69.3273C261.213 70.0913 261.474 71.0116 261.474 72.0882C261.474 73.2689 261.178 74.3628 260.587 75.3699C259.996 76.377 259.109 77.1931 257.926 77.8182C256.778 78.4433 255.404 78.7558 253.804 78.7558C251.891 78.7558 250.134 78.2696 248.534 77.2973C248.325 77.0889 248.221 76.8805 248.221 76.6722L248.117 71.8798C248.117 71.7756 248.204 71.7235 248.377 71.7235C248.586 71.6888 248.708 71.7062 248.743 71.7756C249.334 73.512 250.221 74.9358 251.404 76.0471C252.621 77.1584 253.908 77.714 255.265 77.714C256.135 77.714 256.813 77.4883 257.3 77.0368C257.787 76.5854 258.03 75.9082 258.03 75.0053C258.03 73.6856 257.648 72.6438 256.882 71.8798C256.117 71.0811 255.004 70.2997 253.543 69.5357C252.36 68.9106 251.439 68.3897 250.778 67.973C250.117 67.5215 249.543 66.9311 249.056 66.2019C248.604 65.4379 248.377 64.5002 248.377 63.3889C248.377 61.4095 249.091 59.9336 250.517 58.9612C251.978 57.9888 253.734 57.5026 255.787 57.5026C257.143 57.5026 258.535 57.7631 259.961 58.284C260.274 58.4229 260.431 58.6139 260.431 58.857C260.431 59.6557 260.413 60.2808 260.378 60.7323L260.326 63.2327C260.326 63.3368 260.222 63.3889 260.013 63.3889C259.804 63.3889 259.7 63.3368 259.7 63.2327C259.7 62.5381 259.422 61.8262 258.865 61.0969C258.309 60.3329 257.596 59.7078 256.726 59.2216C255.856 58.7355 254.969 58.4924 254.065 58.4924C252.465 58.4924 251.665 59.2564 251.665 60.7844Z" fill="#DB7A64"/>
<path d="M288.915 74.9011C289.02 74.9011 289.107 74.9879 289.176 75.1615C289.246 75.3352 289.228 75.4567 289.124 75.5262L282.289 78.8079L282.08 78.86C281.732 78.86 281.419 78.478 281.141 77.714C280.863 76.9153 280.706 75.8561 280.671 74.5364C278.236 77.3494 275.662 78.7558 272.949 78.7558C271.07 78.7558 269.609 78.1828 268.566 77.0368C267.522 75.8561 267.001 74.2586 267.001 72.2444V64.4828C267.001 62.1214 266.461 60.9406 265.383 60.9406C265.035 60.9406 264.548 61.0796 263.922 61.3574H263.87C263.731 61.3574 263.626 61.2706 263.557 61.0969C263.487 60.9233 263.505 60.8017 263.609 60.7323L270.236 57.6589L270.444 57.6068C270.583 57.6068 270.74 57.6763 270.914 57.8152C271.088 57.9541 271.175 58.0756 271.175 58.1798V70.0045C271.175 73.8593 272.636 75.7866 275.558 75.7866C276.427 75.7866 277.314 75.5783 278.219 75.1615C279.123 74.7448 279.941 74.1718 280.671 73.4425V64.4828C280.671 63.2674 280.532 62.3818 280.254 61.8262C280.01 61.2358 279.61 60.9406 279.054 60.9406C278.741 60.9406 278.254 61.0796 277.593 61.3574H277.54C277.401 61.3574 277.297 61.2706 277.227 61.0969C277.158 60.8886 277.193 60.767 277.332 60.7323L283.906 57.6589C283.976 57.6242 284.063 57.6068 284.167 57.6068C284.306 57.6068 284.463 57.6763 284.637 57.8152C284.811 57.9541 284.898 58.0756 284.898 58.1798V72.2965C284.898 73.512 285.019 74.3628 285.263 74.849C285.506 75.3352 285.906 75.5783 286.463 75.5783C286.88 75.5783 287.663 75.3699 288.811 74.9532L288.915 74.9011Z" fill="#DB7A64"/>
<path d="M302.741 59.1695C302.881 58.9265 302.794 58.8049 302.48 58.8049C299.245 58.8049 296.723 59.2216 294.915 60.0551C293.141 60.8538 291.94 62.1908 291.314 64.0661C291.314 64.1008 291.245 64.1182 291.106 64.1182C290.827 64.1182 290.706 64.0488 290.74 63.9098L292.828 56.2004C292.828 56.1656 292.897 56.1483 293.036 56.1483C293.315 56.1483 293.436 56.2177 293.401 56.3566C293.332 56.6344 293.297 56.8254 293.297 56.9296C293.297 57.3811 293.506 57.6936 293.923 57.8673C294.341 58.0062 295.019 58.0756 295.958 58.0756H307.646C307.785 58.0756 307.907 58.1451 308.011 58.284C308.116 58.4229 308.133 58.5618 308.064 58.7007L296.01 76.9326C295.906 77.1757 295.993 77.2973 296.271 77.2973C298.88 77.2973 300.95 77.1236 302.48 76.7764C304.046 76.4291 305.246 75.8561 306.081 75.0574C306.916 74.2239 307.524 73.0779 307.907 71.6193C307.942 71.5152 308.046 71.4631 308.22 71.4631C308.429 71.4631 308.533 71.5152 308.533 71.6193L308.429 77.6098C308.429 77.7487 308.377 77.8876 308.272 78.0266C308.168 78.1307 308.046 78.1828 307.907 78.1828H291.158C291.019 78.1828 290.897 78.1134 290.793 77.9745C290.723 77.8355 290.723 77.6966 290.793 77.5577L302.741 59.1695Z" fill="#DB7A64"/>
<path d="M315.591 60.7844C315.591 61.8609 315.957 62.7638 316.687 63.4931C317.452 64.2224 318.548 64.9864 319.974 65.7851C321.227 66.4797 322.183 67.0527 322.844 67.5041C323.54 67.9556 324.131 68.5633 324.618 69.3273C325.14 70.0913 325.401 71.0116 325.401 72.0882C325.401 73.2689 325.105 74.3628 324.514 75.3699C323.923 76.377 323.035 77.1931 321.853 77.8182C320.705 78.4433 319.331 78.7558 317.731 78.7558C315.818 78.7558 314.061 78.2696 312.461 77.2973C312.252 77.0889 312.148 76.8805 312.148 76.6722L312.043 71.8798C312.043 71.7756 312.13 71.7235 312.304 71.7235C312.513 71.6888 312.635 71.7062 312.669 71.7756C313.261 73.512 314.148 74.9358 315.331 76.0471C316.548 77.1584 317.835 77.714 319.192 77.714C320.061 77.714 320.74 77.4883 321.227 77.0368C321.714 76.5854 321.957 75.9082 321.957 75.0053C321.957 73.6856 321.575 72.6438 320.809 71.8798C320.044 71.0811 318.931 70.2997 317.47 69.5357C316.287 68.9106 315.365 68.3897 314.704 67.973C314.043 67.5215 313.47 66.9311 312.983 66.2019C312.53 65.4379 312.304 64.5002 312.304 63.3889C312.304 61.4095 313.017 59.9336 314.444 58.9612C315.904 57.9888 317.661 57.5026 319.714 57.5026C321.07 57.5026 322.462 57.7631 323.888 58.284C324.201 58.4229 324.357 58.6139 324.357 58.857C324.357 59.6557 324.34 60.2808 324.305 60.7323L324.253 63.2327C324.253 63.3368 324.149 63.3889 323.94 63.3889C323.731 63.3889 323.627 63.3368 323.627 63.2327C323.627 62.5381 323.349 61.8262 322.792 61.0969C322.235 60.3329 321.522 59.7078 320.653 59.2216C319.783 58.7355 318.896 58.4924 317.992 58.4924C316.391 58.4924 315.591 59.2564 315.591 60.7844Z" fill="#DB7A64"/>
<path d="M334.11 52.0851C333.206 52.0851 332.493 51.8421 331.971 51.3559C331.484 50.8697 331.24 50.1751 331.24 49.2722C331.24 48.404 331.484 47.7442 331.971 47.2928C332.493 46.8066 333.206 46.5635 334.11 46.5635C334.98 46.5635 335.658 46.8066 336.145 47.2928C336.632 47.7442 336.876 48.404 336.876 49.2722C336.876 50.1751 336.632 50.8697 336.145 51.3559C335.693 51.8421 335.015 52.0851 334.11 52.0851ZM329.31 78.1828C329.205 78.1828 329.153 78.0786 329.153 77.8703C329.153 77.6619 329.205 77.5577 329.31 77.5577C330.492 77.5577 331.275 77.3146 331.658 76.8285C332.04 76.3423 332.232 75.3873 332.232 73.9634V64.4828C332.232 63.3021 332.11 62.4513 331.867 61.9304C331.623 61.3747 331.206 61.0969 330.614 61.0969C330.092 61.0969 329.414 61.3053 328.579 61.722H328.527C328.388 61.722 328.284 61.6352 328.214 61.4616C328.144 61.2879 328.162 61.1664 328.266 61.0969L335.78 57.6068L335.936 57.5547C336.076 57.5547 336.215 57.6415 336.354 57.8152C336.528 57.9541 336.615 58.0756 336.615 58.1798V59.2737C336.545 60.7323 336.51 62.4513 336.51 64.4308V73.9634C336.51 75.3873 336.702 76.3423 337.084 76.8285C337.502 77.3146 338.302 77.5577 339.485 77.5577C339.589 77.5577 339.641 77.6619 339.641 77.8703C339.641 78.0786 339.589 78.1828 339.485 78.1828C338.615 78.1828 337.919 78.1655 337.397 78.1307L334.371 78.0786L331.345 78.1307C330.858 78.1655 330.179 78.1828 329.31 78.1828Z" fill="#DB7A64"/>
<path d="M7.87488 104.781C8.95056 104.878 9.79343 105.23 10.4035 105.839C11.0136 106.432 11.3186 107.194 11.3186 108.123C11.3186 108.38 11.2946 108.644 11.2464 108.917C11.1019 109.718 10.7647 110.455 10.2349 111.128C9.70513 111.802 9.05491 112.339 8.28428 112.739C7.51365 113.14 6.69485 113.34 5.8279 113.34C5.34625 113.34 4.82447 113.316 4.26255 113.268C4.06989 113.252 3.8371 113.236 3.56417 113.22C3.29124 113.204 2.98619 113.196 2.64904 113.196L1.13186 113.22C0.874987 113.236 0.521781 113.244 0.0722466 113.244C0.0240822 113.244 0 113.196 0 113.1C0.0160548 113.004 0.040137 112.956 0.0722466 112.956C0.61811 112.956 1.02751 112.916 1.30044 112.835C1.58943 112.739 1.80617 112.579 1.95066 112.355C2.09515 112.114 2.20754 111.754 2.28781 111.273L4.26255 100.141C4.31072 99.8527 4.3348 99.6123 4.3348 99.42C4.3348 99.0513 4.22241 98.8109 3.99765 98.6987C3.77288 98.5705 3.3394 98.5064 2.69721 98.5064C2.63299 98.5064 2.60088 98.4583 2.60088 98.3621C2.61693 98.266 2.64904 98.2179 2.69721 98.2179L3.80499 98.2419C4.41507 98.274 4.88869 98.29 5.22584 98.29C5.51483 98.29 5.7717 98.282 5.99647 98.266C6.23729 98.2499 6.44601 98.2339 6.62261 98.2179C7.0882 98.1698 7.48957 98.1458 7.82672 98.1458C8.99872 98.1458 9.87371 98.3782 10.4517 98.843C11.0297 99.2918 11.3186 99.9008 11.3186 100.67C11.3186 100.895 11.2946 101.143 11.2464 101.415C11.0698 102.201 10.6925 102.882 10.1145 103.459C9.53656 104.02 8.79001 104.461 7.87488 104.781ZM4.84052 104.781L5.80381 104.805C6.9437 104.805 7.8508 104.493 8.5251 103.868C9.21546 103.243 9.64894 102.425 9.82554 101.415C9.87371 101.143 9.89779 100.879 9.89779 100.622C9.89779 99.9649 9.68908 99.444 9.27165 99.0594C8.87028 98.6747 8.22809 98.4823 7.34507 98.4823C6.95976 98.4823 6.66275 98.5224 6.45403 98.6026C6.26138 98.6827 6.0928 98.851 5.94831 99.1074C5.81987 99.3479 5.71551 99.7325 5.63524 100.261L4.84052 104.781ZM9.63288 109.301C9.68105 108.965 9.70513 108.652 9.70513 108.364C9.70513 107.402 9.42417 106.657 8.86225 106.128C8.30034 105.599 7.48154 105.326 6.40587 105.31C5.92422 105.294 5.36231 105.31 4.72011 105.358L3.68458 111.345C3.63641 111.553 3.61233 111.754 3.61233 111.946C3.61233 112.315 3.7488 112.571 4.02173 112.715C4.29466 112.86 4.79236 112.932 5.51483 112.932C6.68683 112.932 7.61801 112.603 8.30836 111.946C8.99872 111.289 9.44023 110.407 9.63288 109.301Z" fill="#16304D"/>
<path d="M20.313 104.733C20.313 105.23 20.0481 105.711 19.5183 106.176C19.0045 106.625 18.3061 107.017 17.4231 107.354C16.5561 107.69 15.6169 107.939 14.6055 108.099C14.5252 108.612 14.4851 109.053 14.4851 109.421C14.4851 110.415 14.7098 111.217 15.1594 111.826C15.6089 112.419 16.2431 112.715 17.0619 112.715C17.9609 112.715 18.7637 112.451 19.4701 111.922H19.5183C19.5664 111.922 19.6066 111.946 19.6387 111.994C19.6868 112.042 19.6868 112.09 19.6387 112.138C18.5148 113.068 17.3428 113.533 16.1227 113.533C15.1112 113.533 14.3406 113.212 13.8108 112.571C13.297 111.914 13.0401 111.072 13.0401 110.047C13.0401 109.694 13.0803 109.277 13.1606 108.796C13.305 107.979 13.6422 107.178 14.172 106.392C14.7018 105.591 15.3601 104.934 16.1467 104.421C16.9495 103.908 17.7843 103.651 18.6513 103.651C19.1811 103.651 19.5905 103.748 19.8795 103.94C20.1685 104.132 20.313 104.397 20.313 104.733ZM17.5917 104.301C16.8532 104.301 16.227 104.629 15.7133 105.286C15.2156 105.927 14.8704 106.753 14.6777 107.763C15.8016 107.57 16.7087 107.282 17.399 106.897C18.1054 106.512 18.5309 106.032 18.6754 105.455C18.7075 105.294 18.7235 105.182 18.7235 105.118C18.7235 104.845 18.6112 104.645 18.3864 104.517C18.1616 104.373 17.8967 104.301 17.5917 104.301Z" fill="#16304D"/>
<path d="M24.7868 100.911C24.4657 100.911 24.2088 100.822 24.0162 100.646C23.8396 100.454 23.7513 100.197 23.7513 99.8768C23.7513 99.5723 23.8396 99.3318 24.0162 99.1555C24.2088 98.9792 24.4657 98.8911 24.7868 98.8911C25.1079 98.8911 25.3568 98.9792 25.5334 99.1555C25.71 99.3318 25.7983 99.5723 25.7983 99.8768C25.7983 100.197 25.71 100.454 25.5334 100.646C25.3568 100.822 25.1079 100.911 24.7868 100.911ZM23.2696 113.461C22.9806 113.461 22.7639 113.38 22.6194 113.22C22.4749 113.044 22.4027 112.763 22.4027 112.379C22.4027 112.138 22.4589 111.714 22.5712 111.104L23.5586 106.104C23.6068 105.863 23.6309 105.647 23.6309 105.455C23.6309 104.942 23.4703 104.685 23.1492 104.685C22.9566 104.685 22.7077 104.781 22.4027 104.974C22.1137 105.166 21.8086 105.439 21.4875 105.791C21.4715 105.807 21.4474 105.815 21.4153 105.815C21.3671 105.815 21.319 105.791 21.2708 105.743C21.2387 105.679 21.2467 105.631 21.2949 105.599C21.8568 104.958 22.3625 104.493 22.8121 104.204C23.2616 103.9 23.6871 103.748 24.0884 103.748C24.3774 103.748 24.5861 103.836 24.7146 104.012C24.8591 104.172 24.9313 104.445 24.9313 104.829C24.9313 105.134 24.8831 105.543 24.7868 106.056L23.7994 111.104C23.7513 111.361 23.7272 111.577 23.7272 111.754C23.7272 112.25 23.8797 112.499 24.1847 112.499C24.5701 112.499 25.1159 112.146 25.8223 111.441C25.8544 111.409 25.8866 111.393 25.9187 111.393C25.9668 111.393 26.007 111.425 26.0391 111.489C26.0712 111.537 26.0632 111.585 26.015 111.633C25.4691 112.258 24.9795 112.723 24.546 113.028C24.1125 113.316 23.687 113.461 23.2696 113.461Z" fill="#16304D"/>
<path d="M47.9165 111.393C47.9486 111.361 47.9807 111.345 48.0128 111.345C48.0609 111.345 48.1011 111.377 48.1332 111.441C48.1653 111.489 48.1573 111.537 48.1091 111.585C47.5632 112.226 47.0736 112.699 46.6401 113.004C46.2227 113.308 45.8133 113.461 45.4119 113.461C45.1229 113.461 44.9142 113.38 44.7858 113.22C44.6573 113.044 44.5931 112.771 44.5931 112.403C44.5931 112.066 44.6413 111.633 44.7376 111.104L45.436 107.282C45.5163 106.865 45.5564 106.432 45.5564 105.983C45.5564 105.519 45.4761 105.174 45.3156 104.95C45.1711 104.709 44.9383 104.589 44.6172 104.589C44.1195 104.589 43.5977 104.918 43.0518 105.575C42.522 106.216 42.0083 107.162 41.5106 108.412C41.0289 109.646 40.6276 111.104 40.3065 112.787L40.2583 113.076C40.2423 113.188 40.17 113.276 40.0416 113.34C39.9131 113.404 39.7365 113.437 39.5118 113.437C39.287 113.437 39.1345 113.42 39.0542 113.388C38.99 113.372 38.9579 113.34 38.9579 113.292L39.0783 112.739L40.1138 107.282C40.178 106.849 40.2101 106.44 40.2101 106.056C40.2101 105.078 39.9131 104.589 39.3191 104.589C38.8214 104.589 38.2996 104.918 37.7538 105.575C37.2079 106.232 36.6941 107.186 36.2125 108.436C35.7309 109.686 35.3375 111.153 35.0325 112.835L34.9843 113.076C34.9361 113.316 34.6793 113.437 34.2137 113.437C33.9889 113.437 33.8364 113.42 33.7561 113.388C33.6919 113.372 33.6598 113.34 33.6598 113.292C33.6598 113.276 33.724 112.948 33.8524 112.307L33.9969 111.585L35.0084 106.104C35.0565 105.863 35.0806 105.647 35.0806 105.455C35.0806 104.942 34.9201 104.685 34.599 104.685C34.4063 104.685 34.1575 104.781 33.8524 104.974C33.5635 105.166 33.2584 105.439 32.9373 105.791C32.9213 105.807 32.8972 105.815 32.8651 105.815C32.8169 105.815 32.7687 105.791 32.7206 105.743C32.6885 105.679 32.6965 105.631 32.7447 105.599C33.2905 104.974 33.7882 104.509 34.2378 104.204C34.7033 103.9 35.1449 103.748 35.5623 103.748C35.8352 103.748 36.0359 103.836 36.1643 104.012C36.2928 104.172 36.357 104.437 36.357 104.805C36.357 105.222 36.3169 105.639 36.2366 106.056L35.7549 108.772C36.3169 107.17 36.9751 105.919 37.7297 105.022C38.5003 104.108 39.295 103.651 40.1138 103.651C40.5955 103.651 40.9487 103.796 41.1734 104.084C41.4143 104.357 41.5347 104.797 41.5347 105.406C41.5347 105.791 41.4865 106.264 41.3902 106.825L41.0049 108.941C41.5668 107.274 42.2331 105.975 43.0037 105.046C43.7743 104.116 44.5771 103.651 45.4119 103.651C45.9096 103.651 46.2789 103.796 46.5197 104.084C46.7605 104.373 46.8809 104.829 46.8809 105.455C46.8809 105.839 46.8328 106.296 46.7364 106.825L45.9658 111.104C45.9176 111.361 45.8935 111.577 45.8935 111.754C45.8935 112.25 46.038 112.499 46.327 112.499C46.6802 112.499 47.21 112.13 47.9165 111.393Z" fill="#16304D"/>
<path d="M52.6554 100.911C52.3343 100.911 52.0774 100.822 51.8848 100.646C51.7081 100.454 51.6198 100.197 51.6198 99.8768C51.6198 99.5723 51.7081 99.3318 51.8848 99.1555C52.0774 98.9792 52.3343 98.8911 52.6554 98.8911C52.9765 98.8911 53.2253 98.9792 53.4019 99.1555C53.5785 99.3318 53.6668 99.5723 53.6668 99.8768C53.6668 100.197 53.5785 100.454 53.4019 100.646C53.2253 100.822 52.9765 100.911 52.6554 100.911ZM51.1382 113.461C50.8492 113.461 50.6325 113.38 50.488 113.22C50.3435 113.044 50.2712 112.763 50.2712 112.379C50.2712 112.138 50.3274 111.714 50.4398 111.104L51.4272 106.104C51.4753 105.863 51.4994 105.647 51.4994 105.455C51.4994 104.942 51.3389 104.685 51.0178 104.685C50.8251 104.685 50.5763 104.781 50.2712 104.974C49.9823 105.166 49.6772 105.439 49.3561 105.791C49.3401 105.807 49.316 105.815 49.2839 105.815C49.2357 105.815 49.1875 105.791 49.1394 105.743C49.1073 105.679 49.1153 105.631 49.1635 105.599C49.7254 104.958 50.2311 104.493 50.6806 104.204C51.1302 103.9 51.5556 103.748 51.957 103.748C52.246 103.748 52.4547 103.836 52.5831 104.012C52.7276 104.172 52.7999 104.445 52.7999 104.829C52.7999 105.134 52.7517 105.543 52.6554 106.056L51.668 111.104C51.6198 111.361 51.5958 111.577 51.5958 111.754C51.5958 112.25 51.7483 112.499 52.0533 112.499C52.4386 112.499 52.9845 112.146 53.6909 111.441C53.723 111.409 53.7551 111.393 53.7872 111.393C53.8354 111.393 53.8755 111.425 53.9077 111.489C53.9398 111.537 53.9317 111.585 53.8836 111.633C53.3377 112.258 52.848 112.723 52.4146 113.028C51.9811 113.316 51.5556 113.461 51.1382 113.461Z" fill="#16304D"/>
<path d="M61.423 103.748C61.728 103.748 62.0251 103.86 62.314 104.084C62.603 104.309 62.7475 104.573 62.7475 104.878C62.7475 105.118 62.6672 105.318 62.5067 105.479C62.3622 105.639 62.1776 105.719 61.9528 105.719C61.7762 105.719 61.6317 105.679 61.5193 105.599C61.423 105.519 61.3186 105.398 61.2063 105.238C61.142 105.158 61.0698 105.086 60.9895 105.022C60.9092 104.942 60.8209 104.902 60.7246 104.902C60.3714 104.902 59.946 105.366 59.4483 106.296C58.9666 107.226 58.509 108.34 58.0756 109.638C57.6421 110.936 57.329 112.082 57.1364 113.076C57.1203 113.188 57.04 113.276 56.8955 113.34C56.7671 113.404 56.5905 113.437 56.3657 113.437C56.157 113.437 56.0125 113.42 55.9323 113.388C55.868 113.372 55.8359 113.34 55.8359 113.292L55.9563 112.739L56.1972 111.465L56.9919 107.017C57.0882 106.488 57.1364 106.072 57.1364 105.767C57.1364 105.046 56.9437 104.685 56.5584 104.685C56.2052 104.685 55.7155 104.982 55.0894 105.575L55.0412 105.599C54.993 105.599 54.9529 105.575 54.9208 105.527C54.8887 105.463 54.8807 105.414 54.8967 105.382C55.3944 104.837 55.852 104.429 56.2694 104.156C56.6868 103.884 57.0962 103.748 57.4976 103.748C57.8187 103.748 58.0515 103.852 58.196 104.06C58.3565 104.268 58.4368 104.629 58.4368 105.142C58.4368 105.543 58.3726 106.152 58.2441 106.969L57.7384 109.71C58.2843 108.027 58.8783 106.617 59.5205 105.479C60.1788 104.325 60.8129 103.748 61.423 103.748Z" fill="#16304D"/>
<path d="M70.724 113.509C70.0979 113.509 69.56 113.364 69.1105 113.076C68.677 112.787 68.4924 112.435 68.5566 112.018C68.5727 111.81 68.6529 111.649 68.7974 111.537C68.9419 111.409 69.1025 111.345 69.2791 111.345C69.4236 111.345 69.5359 111.393 69.6162 111.489C69.7125 111.585 69.8249 111.746 69.9534 111.97C70.146 112.291 70.3387 112.539 70.5313 112.715C70.7401 112.892 71.0451 112.98 71.4465 112.98C72.3295 112.98 72.8432 112.491 72.9877 111.513C73.0038 111.433 73.0118 111.329 73.0118 111.201C73.0118 110.736 72.8834 110.335 72.6265 109.998C72.3696 109.662 71.9682 109.269 71.4224 108.82C70.8926 108.388 70.4912 108.011 70.2183 107.69C69.9614 107.354 69.833 106.953 69.833 106.488C69.833 106.408 69.849 106.272 69.8811 106.08C70.0256 105.358 70.4029 104.789 71.013 104.373C71.6391 103.94 72.3295 103.724 73.0841 103.724C73.6299 103.724 74.0875 103.828 74.4567 104.036C74.8421 104.244 75.0347 104.509 75.0347 104.829C75.0347 105.07 74.9544 105.254 74.7939 105.382C74.6494 105.511 74.4808 105.575 74.2882 105.575C74.1116 105.575 73.959 105.527 73.8306 105.431C73.7182 105.334 73.5898 105.19 73.4453 104.998C73.2687 104.741 73.0921 104.557 72.9155 104.445C72.7549 104.317 72.5221 104.252 72.2171 104.252C71.8318 104.252 71.5187 104.365 71.2779 104.589C71.0531 104.797 70.9407 105.11 70.9407 105.527C70.9407 105.959 71.0692 106.352 71.3261 106.705C71.599 107.041 71.9923 107.426 72.5061 107.859C73.068 108.356 73.4774 108.78 73.7343 109.133C74.0072 109.47 74.1437 109.878 74.1437 110.359C74.1437 110.872 73.9912 111.377 73.6861 111.874C73.3811 112.355 72.9636 112.747 72.4338 113.052C71.904 113.356 71.3341 113.509 70.724 113.509Z" fill="#16304D"/>
<path d="M79.7008 100.911C79.3797 100.911 79.1229 100.822 78.9302 100.646C78.7536 100.454 78.6653 100.197 78.6653 99.8768C78.6653 99.5723 78.7536 99.3318 78.9302 99.1555C79.1229 98.9792 79.3797 98.8911 79.7008 98.8911C80.0219 98.8911 80.2708 98.9792 80.4474 99.1555C80.624 99.3318 80.7123 99.5723 80.7123 99.8768C80.7123 100.197 80.624 100.454 80.4474 100.646C80.2708 100.822 80.0219 100.911 79.7008 100.911ZM78.1836 113.461C77.8947 113.461 77.6779 113.38 77.5334 113.22C77.3889 113.044 77.3167 112.763 77.3167 112.379C77.3167 112.138 77.3729 111.714 77.4853 111.104L78.4726 106.104C78.5208 105.863 78.5449 105.647 78.5449 105.455C78.5449 104.942 78.3843 104.685 78.0632 104.685C77.8706 104.685 77.6217 104.781 77.3167 104.974C77.0277 105.166 76.7227 105.439 76.4016 105.791C76.3855 105.807 76.3614 105.815 76.3293 105.815C76.2812 105.815 76.233 105.791 76.1848 105.743C76.1527 105.679 76.1608 105.631 76.2089 105.599C76.7708 104.958 77.2766 104.493 77.7261 104.204C78.1756 103.9 78.6011 103.748 79.0024 103.748C79.2914 103.748 79.5001 103.836 79.6286 104.012C79.7731 104.172 79.8453 104.445 79.8453 104.829C79.8453 105.134 79.7972 105.543 79.7008 106.056L78.7135 111.104C78.6653 111.361 78.6412 111.577 78.6412 111.754C78.6412 112.25 78.7937 112.499 79.0988 112.499C79.4841 112.499 80.03 112.146 80.7364 111.441C80.7685 111.409 80.8006 111.393 80.8327 111.393C80.8809 111.393 80.921 111.425 80.9531 111.489C80.9852 111.537 80.9772 111.585 80.929 111.633C80.3832 112.258 79.8935 112.723 79.46 113.028C79.0265 113.316 78.6011 113.461 78.1836 113.461Z" fill="#16304D"/>
<path d="M92.1289 111.393C92.1611 111.361 92.1851 111.345 92.2012 111.345C92.2494 111.345 92.2895 111.377 92.3216 111.441C92.3698 111.489 92.3698 111.537 92.3216 111.585C91.7757 112.226 91.2861 112.699 90.8526 113.004C90.4352 113.308 90.0258 113.461 89.6244 113.461C89.3354 113.461 89.1187 113.38 88.9742 113.22C88.8457 113.044 88.7815 112.763 88.7815 112.379C88.7815 112.058 88.8297 111.633 88.926 111.104L89.6244 107.282C89.7207 106.769 89.7689 106.336 89.7689 105.983C89.7689 105.054 89.4237 104.589 88.7334 104.589C88.2035 104.589 87.6497 104.926 87.0717 105.599C86.5098 106.272 85.98 107.258 85.4823 108.556C84.9846 109.838 84.5832 111.345 84.2781 113.076C84.246 113.188 84.1577 113.276 84.0132 113.34C83.8848 113.404 83.7082 113.437 83.4834 113.437C83.2587 113.437 83.1061 113.42 83.0259 113.388C82.9617 113.372 82.9295 113.34 82.9295 113.292L83.0259 112.739C83.1222 112.355 83.2105 111.93 83.2908 111.465L84.2781 106.104C84.3263 105.863 84.3504 105.647 84.3504 105.455C84.3504 104.942 84.1898 104.685 83.8687 104.685C83.6761 104.685 83.4272 104.781 83.1222 104.974C82.8332 105.166 82.5282 105.439 82.2071 105.791C82.191 105.807 82.1669 105.815 82.1348 105.815C82.0867 105.815 82.0385 105.791 81.9903 105.743C81.9582 105.679 81.9662 105.631 82.0144 105.599C82.5603 104.974 83.058 104.509 83.5075 104.204C83.9731 103.9 84.4146 103.748 84.832 103.748C85.105 103.748 85.3057 103.836 85.4341 104.012C85.5625 104.172 85.6267 104.437 85.6267 104.805C85.6267 105.222 85.5866 105.639 85.5063 106.056L85.0006 108.965C85.5786 107.298 86.2609 106 87.0476 105.07C87.8343 104.124 88.6611 103.651 89.5281 103.651C90.0579 103.651 90.4512 103.796 90.7081 104.084C90.965 104.373 91.0934 104.829 91.0934 105.455C91.0934 105.839 91.0452 106.296 90.9489 106.825L90.1542 111.104C90.106 111.345 90.082 111.561 90.082 111.754C90.082 112.25 90.2425 112.499 90.5636 112.499C90.9008 112.499 91.4225 112.13 92.1289 111.393Z" fill="#16304D"/>
<path d="M100.843 111.104C100.795 111.345 100.771 111.553 100.771 111.73C100.771 112.242 100.931 112.499 101.252 112.499C101.573 112.499 102.103 112.13 102.842 111.393C102.874 111.361 102.898 111.345 102.914 111.345C102.962 111.345 103.002 111.377 103.034 111.441C103.083 111.489 103.083 111.537 103.034 111.585C102.456 112.226 101.959 112.699 101.541 113.004C101.124 113.308 100.715 113.461 100.313 113.461C99.7512 113.461 99.4703 113.108 99.4703 112.403C99.4703 112.146 99.5265 111.714 99.6388 111.104L100.096 108.724C99.3579 110.231 98.5712 111.417 97.7363 112.282C96.9175 113.132 96.0827 113.557 95.2318 113.557C94.6538 113.557 94.1802 113.372 93.8109 113.004C93.4417 112.619 93.257 112.018 93.257 111.201C93.257 111.024 93.2892 110.696 93.3534 110.215C93.5621 109.061 93.9956 107.979 94.6538 106.969C95.3281 105.959 96.1228 105.158 97.038 104.565C97.9691 103.956 98.8923 103.651 99.8074 103.651C100.257 103.651 100.642 103.756 100.963 103.964L102.023 98.3621C102.055 98.1057 102.071 97.9374 102.071 97.8573C102.071 97.4405 101.895 97.2322 101.541 97.2322C101.284 97.2322 100.891 97.3524 100.361 97.5928H100.313C100.265 97.5928 100.225 97.5527 100.193 97.4726C100.177 97.3924 100.201 97.3444 100.265 97.3283L103.396 95.8137H103.444C103.492 95.8137 103.54 95.8377 103.588 95.8858C103.636 95.9339 103.653 95.974 103.636 96.006L100.843 111.104ZM96.0024 112.379C96.7249 112.379 97.4313 111.986 98.1217 111.201C98.8281 110.415 99.406 109.502 99.8556 108.46C100.305 107.418 100.53 106.609 100.53 106.032C100.53 105.535 100.385 105.158 100.096 104.902C99.8074 104.629 99.4141 104.493 98.9164 104.493C97.8728 104.525 96.9657 104.95 96.1951 105.767C95.4405 106.585 94.9348 107.747 94.6779 109.253C94.6137 109.622 94.5816 109.982 94.5816 110.335C94.5816 111.008 94.702 111.521 94.9428 111.874C95.1997 112.21 95.5529 112.379 96.0024 112.379Z" fill="#16304D"/>
<path d="M109.53 113.244C109.481 113.244 109.457 113.196 109.457 113.1C109.457 113.004 109.481 112.956 109.53 112.956C110.043 112.956 110.421 112.916 110.662 112.835C110.918 112.755 111.111 112.603 111.239 112.379C111.368 112.138 111.472 111.778 111.553 111.297L113.527 100.165C113.592 99.7486 113.624 99.5001 113.624 99.42C113.624 99.0513 113.511 98.8109 113.286 98.6987C113.062 98.5705 112.652 98.5064 112.058 98.5064C112.01 98.5064 111.986 98.4583 111.986 98.3621C111.986 98.266 112.01 98.2179 112.058 98.2179L113.094 98.2419C113.672 98.274 114.137 98.29 114.491 98.29C114.908 98.29 115.422 98.274 116.032 98.2419L116.995 98.2179C117.027 98.2179 117.043 98.266 117.043 98.3621C117.043 98.4583 117.027 98.5064 116.995 98.5064C116.481 98.5064 116.096 98.5545 115.839 98.6506C115.598 98.7468 115.414 98.9151 115.285 99.1555C115.157 99.3799 115.044 99.7325 114.948 100.213L112.973 111.297C112.925 111.601 112.901 111.858 112.901 112.066C112.901 112.419 113.006 112.659 113.214 112.787C113.439 112.9 113.856 112.956 114.467 112.956C114.499 112.956 114.515 113.004 114.515 113.1C114.515 113.196 114.499 113.244 114.467 113.244C114.049 113.244 113.72 113.236 113.479 113.22L111.986 113.196L110.565 113.22C110.324 113.236 109.979 113.244 109.53 113.244Z" fill="#16304D"/>
<path d="M126.595 111.393C126.627 111.361 126.659 111.345 126.691 111.345C126.739 111.345 126.779 111.377 126.811 111.441C126.844 111.489 126.836 111.537 126.787 111.585C126.242 112.226 125.752 112.699 125.318 113.004C124.901 113.308 124.492 113.461 124.09 113.461C123.801 113.461 123.584 113.38 123.44 113.22C123.312 113.044 123.247 112.763 123.247 112.379C123.247 112.058 123.295 111.633 123.392 111.104L124.09 107.282C124.187 106.769 124.235 106.336 124.235 105.983C124.235 105.054 123.889 104.589 123.199 104.589C122.685 104.589 122.148 104.918 121.586 105.575C121.024 106.232 120.494 107.186 119.996 108.436C119.499 109.67 119.097 111.136 118.792 112.835L118.744 113.076C118.712 113.188 118.624 113.276 118.479 113.34C118.351 113.404 118.174 113.437 117.949 113.437C117.58 113.437 117.395 113.388 117.395 113.292L117.492 112.739C117.588 112.355 117.676 111.93 117.757 111.465L120.213 98.3621C120.245 98.1057 120.261 97.9374 120.261 97.8573C120.261 97.4405 120.085 97.2322 119.731 97.2322C119.474 97.2322 119.089 97.3524 118.575 97.5928H118.527C118.463 97.5928 118.423 97.5607 118.407 97.4966C118.391 97.4165 118.407 97.3604 118.455 97.3283L121.562 95.8137H121.61C121.674 95.8137 121.73 95.8377 121.778 95.8858C121.843 95.9339 121.867 95.974 121.851 96.006L119.515 108.82C120.093 107.202 120.767 105.935 121.537 105.022C122.324 104.108 123.143 103.651 123.994 103.651C124.524 103.651 124.917 103.804 125.174 104.108C125.431 104.397 125.559 104.853 125.559 105.479C125.559 105.847 125.511 106.296 125.415 106.825L124.62 111.104C124.572 111.345 124.548 111.561 124.548 111.754C124.548 112.25 124.7 112.499 125.005 112.499C125.359 112.499 125.888 112.13 126.595 111.393Z" fill="#16304D"/>
<path d="M134.14 103.748C134.445 103.748 134.742 103.86 135.031 104.084C135.32 104.309 135.465 104.573 135.465 104.878C135.465 105.118 135.384 105.318 135.224 105.479C135.079 105.639 134.895 105.719 134.67 105.719C134.493 105.719 134.349 105.679 134.236 105.599C134.14 105.519 134.036 105.398 133.923 105.238C133.859 105.158 133.787 105.086 133.707 105.022C133.626 104.942 133.538 104.902 133.442 104.902C133.088 104.902 132.663 105.366 132.165 106.296C131.684 107.226 131.226 108.34 130.793 109.638C130.359 110.936 130.046 112.082 129.853 113.076C129.837 113.188 129.757 113.276 129.613 113.34C129.484 113.404 129.307 113.437 129.083 113.437C128.874 113.437 128.73 113.42 128.649 113.388C128.585 113.372 128.553 113.34 128.553 113.292L128.673 112.739L128.914 111.465L129.709 107.017C129.805 106.488 129.853 106.072 129.853 105.767C129.853 105.046 129.661 104.685 129.275 104.685C128.922 104.685 128.433 104.982 127.806 105.575L127.758 105.599C127.71 105.599 127.67 105.575 127.638 105.527C127.606 105.463 127.598 105.414 127.614 105.382C128.111 104.837 128.569 104.429 128.986 104.156C129.404 103.884 129.813 103.748 130.215 103.748C130.536 103.748 130.768 103.852 130.913 104.06C131.074 104.268 131.154 104.629 131.154 105.142C131.154 105.543 131.09 106.152 130.961 106.969L130.455 109.71C131.001 108.027 131.595 106.617 132.237 105.479C132.896 104.325 133.53 103.748 134.14 103.748Z" fill="#16304D"/>
<path d="M142.864 104.733C142.864 105.23 142.599 105.711 142.069 106.176C141.556 106.625 140.857 107.017 139.974 107.354C139.107 107.69 138.168 107.939 137.157 108.099C137.076 108.612 137.036 109.053 137.036 109.421C137.036 110.415 137.261 111.217 137.711 111.826C138.16 112.419 138.794 112.715 139.613 112.715C140.512 112.715 141.315 112.451 142.021 111.922H142.069C142.118 111.922 142.158 111.946 142.19 111.994C142.238 112.042 142.238 112.09 142.19 112.138C141.066 113.068 139.894 113.533 138.674 113.533C137.662 113.533 136.892 113.212 136.362 112.571C135.848 111.914 135.591 111.072 135.591 110.047C135.591 109.694 135.631 109.277 135.712 108.796C135.856 107.979 136.193 107.178 136.723 106.392C137.253 105.591 137.911 104.934 138.698 104.421C139.501 103.908 140.336 103.651 141.202 103.651C141.732 103.651 142.142 103.748 142.431 103.94C142.72 104.132 142.864 104.397 142.864 104.733ZM140.143 104.301C139.404 104.301 138.778 104.629 138.264 105.286C137.767 105.927 137.422 106.753 137.229 107.763C138.353 107.57 139.26 107.282 139.95 106.897C140.657 106.512 141.082 106.032 141.227 105.455C141.259 105.294 141.275 105.182 141.275 105.118C141.275 104.845 141.162 104.645 140.938 104.517C140.713 104.373 140.448 104.301 140.143 104.301Z" fill="#16304D"/>
<path d="M160.978 98.2179C161.106 98.2179 161.146 98.29 161.098 98.4343L160.664 101.415C160.648 101.48 160.592 101.504 160.496 101.488C160.4 101.472 160.359 101.44 160.375 101.391C160.392 101.263 160.4 101.087 160.4 100.863C160.4 100.157 160.231 99.6043 159.894 99.2036C159.573 98.7869 159.123 98.5785 158.545 98.5785H156.57C156.057 98.5785 155.671 98.6186 155.415 98.6987C155.174 98.7789 154.989 98.9311 154.861 99.1555C154.748 99.3639 154.644 99.7085 154.548 100.189L153.632 105.455H156.739C157.365 105.455 157.823 105.334 158.112 105.094C158.417 104.837 158.626 104.397 158.738 103.772C158.754 103.707 158.81 103.683 158.906 103.699C159.003 103.699 159.043 103.732 159.027 103.796C158.979 104.164 158.906 104.573 158.81 105.022L158.69 105.719C158.577 106.376 158.513 106.785 158.497 106.945L158.328 107.955C158.312 108.019 158.256 108.051 158.16 108.051C158.064 108.035 158.023 107.995 158.04 107.931C158.088 107.658 158.112 107.426 158.112 107.234C158.112 106.785 157.991 106.464 157.751 106.272C157.51 106.064 157.116 105.959 156.57 105.959H153.536L152.621 111.201C152.557 111.585 152.525 111.834 152.525 111.946C152.525 112.347 152.685 112.619 153.006 112.763C153.343 112.892 153.978 112.956 154.909 112.956C154.941 112.956 154.957 113.004 154.957 113.1C154.957 113.196 154.941 113.244 154.909 113.244C154.411 113.244 154.01 113.236 153.705 113.22L151.561 113.196L150.165 113.22C149.924 113.236 149.587 113.244 149.153 113.244C149.121 113.244 149.105 113.196 149.105 113.1C149.105 113.004 149.121 112.956 149.153 112.956C149.667 112.956 150.052 112.916 150.309 112.835C150.566 112.755 150.759 112.603 150.887 112.379C151.016 112.138 151.128 111.778 151.224 111.297L153.175 100.165C153.239 99.8928 153.271 99.6364 153.271 99.3959C153.271 99.0433 153.159 98.8109 152.934 98.6987C152.709 98.5705 152.308 98.5064 151.73 98.5064C151.698 98.5064 151.682 98.4583 151.682 98.3621C151.682 98.266 151.698 98.2179 151.73 98.2179H160.978Z" fill="#16304D"/>
<path d="M165.25 101.752C164.929 101.752 164.68 101.664 164.503 101.488C164.327 101.311 164.238 101.071 164.238 100.766C164.238 100.462 164.327 100.221 164.503 100.045C164.68 99.8688 164.929 99.7806 165.25 99.7806C165.571 99.7806 165.812 99.8688 165.972 100.045C166.149 100.205 166.237 100.446 166.237 100.766C166.237 101.071 166.149 101.311 165.972 101.488C165.812 101.664 165.571 101.752 165.25 101.752ZM168.886 101.752C168.565 101.752 168.308 101.664 168.115 101.488C167.939 101.311 167.851 101.071 167.851 100.766C167.851 100.462 167.939 100.221 168.115 100.045C168.308 99.8688 168.565 99.7806 168.886 99.7806C169.207 99.7806 169.448 99.8688 169.609 100.045C169.785 100.205 169.873 100.446 169.873 100.766C169.873 101.071 169.785 101.311 169.609 101.488C169.448 101.664 169.207 101.752 168.886 101.752ZM170.981 111.417C170.997 111.401 171.021 111.393 171.053 111.393C171.102 111.393 171.142 111.425 171.174 111.489C171.206 111.537 171.206 111.577 171.174 111.609C170.612 112.25 170.106 112.723 169.657 113.028C169.207 113.316 168.774 113.461 168.356 113.461C168.083 113.461 167.883 113.38 167.754 113.22C167.626 113.044 167.562 112.771 167.562 112.403C167.562 111.986 167.602 111.569 167.682 111.153L168.188 108.243C167.61 109.91 166.927 111.217 166.141 112.162C165.354 113.092 164.527 113.557 163.66 113.557C162.601 113.557 162.071 112.964 162.071 111.778C162.071 111.345 162.127 110.88 162.239 110.383L163.106 106.104C163.155 105.831 163.179 105.615 163.179 105.455C163.179 104.958 163.026 104.709 162.721 104.709C162.4 104.709 161.87 105.078 161.132 105.815C161.1 105.847 161.067 105.863 161.035 105.863C160.987 105.863 160.947 105.839 160.915 105.791C160.883 105.727 160.891 105.671 160.939 105.623C161.501 104.982 161.991 104.509 162.408 104.204C162.841 103.9 163.259 103.748 163.66 103.748C164.222 103.748 164.503 104.116 164.503 104.854C164.503 105.094 164.447 105.511 164.335 106.104L163.564 109.926C163.452 110.535 163.395 110.976 163.395 111.249C163.395 112.162 163.741 112.619 164.431 112.619C164.961 112.619 165.507 112.282 166.068 111.609C166.646 110.936 167.184 109.958 167.682 108.676C168.196 107.394 168.605 105.879 168.91 104.132C168.958 103.892 169.215 103.772 169.681 103.772C170.066 103.772 170.259 103.82 170.259 103.916L170.162 104.469C170.066 104.853 169.978 105.278 169.898 105.743L168.91 111.104C168.862 111.345 168.838 111.561 168.838 111.754C168.838 112.266 168.998 112.523 169.32 112.523C169.496 112.523 169.729 112.427 170.018 112.234C170.323 112.042 170.644 111.77 170.981 111.417Z" fill="#16304D"/>
<path d="M170.472 119.856C169.958 119.856 169.573 119.76 169.316 119.567C169.059 119.391 168.93 119.167 168.93 118.894C168.93 118.67 169.019 118.477 169.195 118.317C169.356 118.157 169.565 118.077 169.822 118.077C170.062 118.077 170.239 118.141 170.351 118.269C170.448 118.397 170.536 118.582 170.616 118.822C170.68 119.03 170.753 119.183 170.833 119.279C170.897 119.375 171.018 119.423 171.194 119.423C171.371 119.423 171.531 119.287 171.676 119.014C171.804 118.758 171.933 118.285 172.061 117.596C172.206 116.907 172.398 115.833 172.639 114.374L174.518 102.618C174.871 100.486 175.521 98.8189 176.468 97.6168C177.432 96.3987 178.596 95.7896 179.96 95.7896C180.699 95.7896 181.237 95.982 181.574 96.3666C181.927 96.7353 182.103 97.1921 182.103 97.737C182.103 97.9134 182.095 98.0496 182.079 98.1458C181.999 98.6747 181.814 99.1555 181.525 99.5883C181.237 100.021 180.835 100.526 180.321 101.103C179.888 101.584 179.551 101.992 179.31 102.329C179.085 102.65 178.941 102.994 178.876 103.363C178.86 103.459 178.852 103.595 178.852 103.772C178.852 104.22 178.949 104.645 179.141 105.046C179.334 105.447 179.623 105.959 180.008 106.585C180.426 107.258 180.739 107.827 180.948 108.292C181.156 108.74 181.261 109.229 181.261 109.758C181.261 109.87 181.245 110.055 181.212 110.311C181.148 110.808 180.972 111.305 180.683 111.802C180.394 112.299 180.016 112.707 179.551 113.028C179.085 113.348 178.563 113.509 177.985 113.509C177.423 113.509 176.99 113.38 176.685 113.124C176.396 112.868 176.251 112.571 176.251 112.234C176.251 112.01 176.316 111.826 176.444 111.681C176.589 111.537 176.781 111.465 177.022 111.465C177.231 111.465 177.383 111.521 177.48 111.633C177.592 111.746 177.704 111.922 177.817 112.162C177.929 112.419 178.042 112.611 178.154 112.739C178.282 112.868 178.475 112.932 178.732 112.932C179.117 112.932 179.422 112.787 179.647 112.499C179.888 112.21 180.048 111.802 180.129 111.273C180.145 111.177 180.153 111.04 180.153 110.864C180.153 110.383 180.056 109.934 179.864 109.518C179.671 109.085 179.374 108.556 178.973 107.931C178.571 107.322 178.266 106.809 178.058 106.392C177.865 105.959 177.769 105.495 177.769 104.998C177.769 104.886 177.785 104.701 177.817 104.445C177.897 103.964 178.042 103.547 178.25 103.195C178.459 102.826 178.764 102.377 179.165 101.848C179.599 101.303 179.936 100.814 180.177 100.382C180.418 99.9329 180.578 99.412 180.659 98.8189C180.707 98.5465 180.731 98.274 180.731 98.0015C180.731 96.7834 180.273 96.1743 179.358 96.1743C178.555 96.1743 177.833 96.7353 177.191 97.8573C176.549 98.9632 176.067 100.526 175.746 102.545L173.988 113.749C173.731 115.32 173.458 116.538 173.169 117.403C172.88 118.285 172.519 118.91 172.085 119.279C171.668 119.663 171.13 119.856 170.472 119.856Z" fill="#16304D"/>
<path d="M190.394 104.733C190.394 105.23 190.129 105.711 189.599 106.176C189.085 106.625 188.387 107.017 187.504 107.354C186.637 107.69 185.698 107.939 184.686 108.099C184.606 108.612 184.566 109.053 184.566 109.421C184.566 110.415 184.79 111.217 185.24 111.826C185.69 112.419 186.324 112.715 187.143 112.715C188.042 112.715 188.844 112.451 189.551 111.922H189.599C189.647 111.922 189.687 111.946 189.719 111.994C189.767 112.042 189.767 112.09 189.719 112.138C188.595 113.068 187.423 113.533 186.203 113.533C185.192 113.533 184.421 113.212 183.891 112.571C183.378 111.914 183.121 111.072 183.121 110.047C183.121 109.694 183.161 109.277 183.241 108.796C183.386 107.979 183.723 107.178 184.253 106.392C184.782 105.591 185.441 104.934 186.227 104.421C187.03 103.908 187.865 103.651 188.732 103.651C189.262 103.651 189.671 103.748 189.96 103.94C190.249 104.132 190.394 104.397 190.394 104.733ZM187.672 104.301C186.934 104.301 186.308 104.629 185.794 105.286C185.296 105.927 184.951 106.753 184.758 107.763C185.882 107.57 186.789 107.282 187.48 106.897C188.186 106.512 188.612 106.032 188.756 105.455C188.788 105.294 188.804 105.182 188.804 105.118C188.804 104.845 188.692 104.645 188.467 104.517C188.242 104.373 187.977 104.301 187.672 104.301Z" fill="#16304D"/>
<path d="M200.512 100.911C200.191 100.911 199.934 100.822 199.741 100.646C199.564 100.454 199.476 100.197 199.476 99.8768C199.476 99.5723 199.564 99.3318 199.741 99.1555C199.934 98.9792 200.191 98.8911 200.512 98.8911C200.833 98.8911 201.082 98.9792 201.258 99.1555C201.435 99.3318 201.523 99.5723 201.523 99.8768C201.523 100.197 201.435 100.454 201.258 100.646C201.082 100.822 200.833 100.911 200.512 100.911ZM198.995 113.461C198.706 113.461 198.489 113.38 198.344 113.22C198.2 113.044 198.128 112.763 198.128 112.379C198.128 112.138 198.184 111.714 198.296 111.104L199.284 106.104C199.332 105.863 199.356 105.647 199.356 105.455C199.356 104.942 199.195 104.685 198.874 104.685C198.681 104.685 198.433 104.781 198.128 104.974C197.839 105.166 197.534 105.439 197.212 105.791C197.196 105.807 197.172 105.815 197.14 105.815C197.092 105.815 197.044 105.791 196.996 105.743C196.964 105.679 196.972 105.631 197.02 105.599C197.582 104.958 198.087 104.493 198.537 104.204C198.986 103.9 199.412 103.748 199.813 103.748C200.102 103.748 200.311 103.836 200.439 104.012C200.584 104.172 200.656 104.445 200.656 104.829C200.656 105.134 200.608 105.543 200.512 106.056L199.524 111.104C199.476 111.361 199.452 111.577 199.452 111.754C199.452 112.25 199.605 112.499 199.91 112.499C200.295 112.499 200.841 112.146 201.547 111.441C201.579 111.409 201.611 111.393 201.644 111.393C201.692 111.393 201.732 111.425 201.764 111.489C201.796 111.537 201.788 111.585 201.74 111.633C201.194 112.258 200.704 112.723 200.271 113.028C199.837 113.316 199.412 113.461 198.995 113.461Z" fill="#16304D"/>
<path d="M212.94 111.393C212.972 111.361 212.996 111.345 213.012 111.345C213.06 111.345 213.1 111.377 213.132 111.441C213.181 111.489 213.181 111.537 213.132 111.585C212.587 112.226 212.097 112.699 211.663 113.004C211.246 113.308 210.837 113.461 210.435 113.461C210.146 113.461 209.93 113.38 209.785 113.22C209.657 113.044 209.592 112.763 209.592 112.379C209.592 112.058 209.641 111.633 209.737 111.104L210.435 107.282C210.532 106.769 210.58 106.336 210.58 105.983C210.58 105.054 210.235 104.589 209.544 104.589C209.014 104.589 208.461 104.926 207.883 105.599C207.321 106.272 206.791 107.258 206.293 108.556C205.795 109.838 205.394 111.345 205.089 113.076C205.057 113.188 204.969 113.276 204.824 113.34C204.696 113.404 204.519 113.437 204.294 113.437C204.07 113.437 203.917 113.42 203.837 113.388C203.773 113.372 203.74 113.34 203.74 113.292L203.837 112.739C203.933 112.355 204.021 111.93 204.102 111.465L205.089 106.104C205.137 105.863 205.161 105.647 205.161 105.455C205.161 104.942 205.001 104.685 204.68 104.685C204.487 104.685 204.238 104.781 203.933 104.974C203.644 105.166 203.339 105.439 203.018 105.791C203.002 105.807 202.978 105.815 202.946 105.815C202.898 105.815 202.849 105.791 202.801 105.743C202.769 105.679 202.777 105.631 202.825 105.599C203.371 104.974 203.869 104.509 204.318 104.204C204.784 103.9 205.225 103.748 205.643 103.748C205.916 103.748 206.117 103.836 206.245 104.012C206.373 104.172 206.438 104.437 206.438 104.805C206.438 105.222 206.397 105.639 206.317 106.056L205.811 108.965C206.389 107.298 207.072 106 207.858 105.07C208.645 104.124 209.472 103.651 210.339 103.651C210.869 103.651 211.262 103.796 211.519 104.084C211.776 104.373 211.904 104.829 211.904 105.455C211.904 105.839 211.856 106.296 211.76 106.825L210.965 111.104C210.917 111.345 210.893 111.561 210.893 111.754C210.893 112.25 211.053 112.499 211.374 112.499C211.712 112.499 212.233 112.13 212.94 111.393Z" fill="#16304D"/>
<path d="M228.165 103.459C228.181 103.411 228.237 103.395 228.334 103.411C228.43 103.427 228.47 103.451 228.454 103.483L226.407 114.735C226.102 116.45 225.508 117.756 224.625 118.654C223.758 119.551 222.626 120 221.229 120C220.491 120 219.889 119.84 219.423 119.519C218.958 119.215 218.725 118.83 218.725 118.365C218.725 118.253 218.733 118.173 218.749 118.125C218.813 117.676 219.078 117.452 219.544 117.452C219.752 117.452 219.905 117.508 220.001 117.62C220.097 117.732 220.21 117.924 220.338 118.197C220.499 118.598 220.7 118.91 220.94 119.134C221.197 119.359 221.607 119.471 222.169 119.471C222.827 119.471 223.405 119.167 223.902 118.557C224.4 117.964 224.794 116.883 225.083 115.312L226.263 108.604C225.524 110.095 224.689 111.297 223.758 112.21C222.843 113.108 221.96 113.557 221.109 113.557C220.114 113.557 219.616 112.964 219.616 111.778C219.616 111.649 219.632 111.409 219.664 111.056C219.825 109.918 220.25 108.772 220.94 107.618C221.631 106.464 222.441 105.519 223.373 104.781C224.304 104.028 225.179 103.651 225.998 103.651C226.303 103.651 226.6 103.707 226.889 103.82C227.178 103.932 227.41 104.1 227.587 104.325C227.876 104.084 228.069 103.796 228.165 103.459ZM221.976 112.379C222.554 112.379 223.164 112.082 223.806 111.489C224.464 110.896 225.05 110.151 225.564 109.253C226.078 108.34 226.423 107.45 226.6 106.585C226.648 106.376 226.664 106.192 226.648 106.032C226.648 105.551 226.519 105.174 226.263 104.902C226.022 104.629 225.652 104.493 225.155 104.493C224.593 104.509 224.015 104.765 223.421 105.262C222.843 105.743 222.337 106.4 221.904 107.234C221.47 108.051 221.181 108.965 221.037 109.974C220.989 110.327 220.964 110.648 220.964 110.936C220.964 111.898 221.302 112.379 221.976 112.379Z" fill="#16304D"/>
<path d="M239.512 111.417C239.528 111.401 239.552 111.393 239.584 111.393C239.632 111.393 239.673 111.425 239.705 111.489C239.737 111.537 239.737 111.577 239.705 111.609C239.143 112.25 238.637 112.723 238.188 113.028C237.738 113.316 237.305 113.461 236.887 113.461C236.614 113.461 236.414 113.38 236.285 113.22C236.157 113.044 236.092 112.771 236.092 112.403C236.092 111.986 236.133 111.569 236.213 111.153L236.719 108.243C236.141 109.91 235.458 111.217 234.672 112.162C233.885 113.092 233.058 113.557 232.191 113.557C231.131 113.557 230.602 112.964 230.602 111.778C230.602 111.345 230.658 110.88 230.77 110.383L231.637 106.104C231.685 105.831 231.709 105.615 231.709 105.455C231.709 104.958 231.557 104.709 231.252 104.709C230.931 104.709 230.401 105.078 229.662 105.815C229.63 105.847 229.598 105.863 229.566 105.863C229.518 105.863 229.478 105.839 229.446 105.791C229.414 105.727 229.422 105.671 229.47 105.623C230.032 104.982 230.521 104.509 230.939 104.204C231.372 103.9 231.79 103.748 232.191 103.748C232.753 103.748 233.034 104.116 233.034 104.854C233.034 105.094 232.978 105.511 232.865 106.104L232.095 109.926C231.982 110.535 231.926 110.976 231.926 111.249C231.926 112.162 232.271 112.619 232.962 112.619C233.492 112.619 234.037 112.282 234.599 111.609C235.177 110.936 235.715 109.958 236.213 108.676C236.727 107.394 237.136 105.879 237.441 104.132C237.489 103.892 237.746 103.772 238.212 103.772C238.597 103.772 238.79 103.82 238.79 103.916L238.693 104.469C238.597 104.853 238.509 105.278 238.428 105.743L237.441 111.104C237.393 111.345 237.369 111.561 237.369 111.754C237.369 112.266 237.529 112.523 237.85 112.523C238.027 112.523 238.26 112.427 238.549 112.234C238.854 112.042 239.175 111.77 239.512 111.417Z" fill="#16304D"/>
<path d="M247.191 104.036C247.303 104.036 247.359 104.092 247.359 104.204C247.359 104.333 247.271 104.501 247.094 104.709C246.918 104.918 246.749 105.022 246.588 105.022C246.508 105.022 246.187 104.99 245.625 104.926C245.079 104.845 244.541 104.797 244.012 104.781L242.952 110.744C242.904 111 242.88 111.233 242.88 111.441C242.88 111.842 242.976 112.138 243.169 112.331C243.361 112.523 243.658 112.619 244.06 112.619C244.477 112.619 244.871 112.531 245.24 112.355C245.609 112.162 245.986 111.898 246.372 111.561H246.396C246.444 111.561 246.492 111.585 246.54 111.633C246.605 111.681 246.613 111.722 246.564 111.754C245.842 112.379 245.208 112.835 244.662 113.124C244.132 113.396 243.618 113.533 243.121 113.533C242.655 113.533 242.27 113.412 241.965 113.172C241.66 112.932 241.507 112.547 241.507 112.018C241.507 111.922 241.523 111.746 241.555 111.489L242.591 105.887C242.655 105.583 242.687 105.326 242.687 105.118C242.687 104.894 242.623 104.749 242.495 104.685C242.366 104.605 242.125 104.565 241.772 104.565C241.724 104.565 241.7 104.525 241.7 104.445C241.7 104.413 241.708 104.381 241.724 104.349C241.756 104.301 241.78 104.276 241.796 104.276C242.342 104.276 242.816 104.1 243.217 103.748C243.618 103.395 243.891 102.954 244.036 102.425C244.068 102.377 244.14 102.353 244.253 102.353C244.413 102.353 244.477 102.377 244.445 102.425L244.132 104.204C244.919 104.172 245.665 104.132 246.372 104.084L247.191 104.036Z" fill="#16304D"/>
<path d="M255.232 104.733C255.232 105.23 254.967 105.711 254.437 106.176C253.924 106.625 253.225 107.017 252.342 107.354C251.475 107.69 250.536 107.939 249.525 108.099C249.444 108.612 249.404 109.053 249.404 109.421C249.404 110.415 249.629 111.217 250.079 111.826C250.528 112.419 251.162 112.715 251.981 112.715C252.88 112.715 253.683 112.451 254.389 111.922H254.437C254.486 111.922 254.526 111.946 254.558 111.994C254.606 112.042 254.606 112.09 254.558 112.138C253.434 113.068 252.262 113.533 251.042 113.533C250.03 113.533 249.26 113.212 248.73 112.571C248.216 111.914 247.959 111.072 247.959 110.047C247.959 109.694 247.999 109.277 248.08 108.796C248.224 107.979 248.561 107.178 249.091 106.392C249.621 105.591 250.279 104.934 251.066 104.421C251.869 103.908 252.703 103.651 253.57 103.651C254.1 103.651 254.51 103.748 254.799 103.94C255.088 104.132 255.232 104.397 255.232 104.733ZM252.511 104.301C251.772 104.301 251.146 104.629 250.632 105.286C250.135 105.927 249.79 106.753 249.597 107.763C250.721 107.57 251.628 107.282 252.318 106.897C253.025 106.512 253.45 106.032 253.595 105.455C253.627 105.294 253.643 105.182 253.643 105.118C253.643 104.845 253.53 104.645 253.306 104.517C253.081 104.373 252.816 104.301 252.511 104.301Z" fill="#16304D"/>
<path d="M266.184 111.393C266.216 111.361 266.24 111.345 266.256 111.345C266.304 111.345 266.345 111.377 266.377 111.441C266.425 111.489 266.425 111.537 266.377 111.585C265.831 112.226 265.341 112.699 264.908 113.004C264.49 113.308 264.081 113.461 263.68 113.461C263.391 113.461 263.174 113.38 263.029 113.22C262.901 113.044 262.837 112.763 262.837 112.379C262.837 112.058 262.885 111.633 262.981 111.104L263.68 107.282C263.776 106.769 263.824 106.336 263.824 105.983C263.824 105.054 263.479 104.589 262.788 104.589C262.259 104.589 261.705 104.926 261.127 105.599C260.565 106.272 260.035 107.258 259.537 108.556C259.04 109.838 258.638 111.345 258.333 113.076C258.301 113.188 258.213 113.276 258.068 113.34C257.94 113.404 257.763 113.437 257.539 113.437C257.314 113.437 257.161 113.42 257.081 113.388C257.017 113.372 256.985 113.34 256.985 113.292L257.081 112.739C257.177 112.355 257.266 111.93 257.346 111.465L258.333 106.104C258.381 105.863 258.406 105.647 258.406 105.455C258.406 104.942 258.245 104.685 257.924 104.685C257.731 104.685 257.482 104.781 257.177 104.974C256.888 105.166 256.583 105.439 256.262 105.791C256.246 105.807 256.222 105.815 256.19 105.815C256.142 105.815 256.094 105.791 256.045 105.743C256.013 105.679 256.021 105.631 256.07 105.599C256.615 104.974 257.113 104.509 257.563 104.204C258.028 103.9 258.47 103.748 258.887 103.748C259.16 103.748 259.361 103.836 259.489 104.012C259.618 104.172 259.682 104.437 259.682 104.805C259.682 105.222 259.642 105.639 259.561 106.056L259.056 108.965C259.634 107.298 260.316 106 261.103 105.07C261.889 104.124 262.716 103.651 263.583 103.651C264.113 103.651 264.506 103.796 264.763 104.084C265.02 104.373 265.149 104.829 265.149 105.455C265.149 105.839 265.1 106.296 265.004 106.825L264.209 111.104C264.161 111.345 264.137 111.561 264.137 111.754C264.137 112.25 264.298 112.499 264.619 112.499C264.956 112.499 265.478 112.13 266.184 111.393Z" fill="#16304D"/>
<path d="M289.26 98.2179C289.292 98.2179 289.308 98.266 289.308 98.3621C289.308 98.4583 289.292 98.5064 289.26 98.5064C288.746 98.5064 288.361 98.5545 288.104 98.6506C287.847 98.7308 287.655 98.883 287.526 99.1074C287.398 99.3318 287.293 99.6844 287.213 100.165L285.238 111.297C285.19 111.585 285.166 111.834 285.166 112.042C285.166 112.411 285.271 112.659 285.479 112.787C285.704 112.9 286.113 112.956 286.707 112.956C286.756 112.956 286.78 113.004 286.78 113.1C286.78 113.196 286.756 113.244 286.707 113.244C286.306 113.244 285.985 113.236 285.744 113.22L284.299 113.196L282.854 113.22C282.597 113.236 282.252 113.244 281.819 113.244C281.787 113.244 281.771 113.196 281.771 113.1C281.771 113.004 281.787 112.956 281.819 112.956C282.349 112.956 282.734 112.916 282.975 112.835C283.232 112.755 283.424 112.603 283.553 112.379C283.681 112.138 283.785 111.778 283.866 111.297L284.853 105.671H277.123L276.111 111.297C276.047 111.714 276.015 111.978 276.015 112.09C276.015 112.427 276.119 112.659 276.328 112.787C276.553 112.9 276.962 112.956 277.556 112.956C277.604 112.956 277.628 113.004 277.628 113.1C277.628 113.196 277.604 113.244 277.556 113.244C277.139 113.244 276.802 113.236 276.545 113.22L275.076 113.196L273.655 113.22C273.414 113.236 273.085 113.244 272.667 113.244C272.619 113.244 272.595 113.196 272.595 113.1C272.595 113.004 272.619 112.956 272.667 112.956C273.181 112.956 273.567 112.916 273.823 112.835C274.096 112.755 274.297 112.603 274.425 112.379C274.554 112.138 274.658 111.778 274.739 111.297L276.713 100.165C276.761 99.8447 276.786 99.5963 276.786 99.42C276.786 99.0513 276.673 98.8109 276.448 98.6987C276.24 98.5705 275.838 98.5064 275.244 98.5064C275.212 98.5064 275.196 98.4583 275.196 98.3621C275.196 98.266 275.212 98.2179 275.244 98.2179L276.256 98.2419C276.834 98.274 277.299 98.29 277.652 98.29C278.038 98.29 278.535 98.274 279.146 98.2419L280.133 98.2179C280.165 98.2179 280.181 98.266 280.181 98.3621C280.181 98.4583 280.165 98.5064 280.133 98.5064C279.619 98.5064 279.234 98.5545 278.977 98.6506C278.736 98.7468 278.552 98.9151 278.423 99.1555C278.295 99.3799 278.182 99.7325 278.086 100.213L277.195 105.166H284.949L285.816 100.213C285.881 99.7966 285.913 99.5322 285.913 99.42C285.913 99.0674 285.8 98.827 285.576 98.6987C285.367 98.5705 284.973 98.5064 284.395 98.5064C284.347 98.5064 284.323 98.4583 284.323 98.3621C284.323 98.266 284.347 98.2179 284.395 98.2179L285.383 98.2419C285.961 98.274 286.434 98.29 286.804 98.29C287.157 98.29 287.639 98.274 288.249 98.2419L289.26 98.2179Z" fill="#16304D"/>
<path d="M293.906 101.752C293.584 101.752 293.336 101.664 293.159 101.488C292.982 101.311 292.894 101.071 292.894 100.766C292.894 100.462 292.982 100.221 293.159 100.045C293.336 99.8688 293.584 99.7806 293.906 99.7806C294.227 99.7806 294.467 99.8688 294.628 100.045C294.805 100.205 294.893 100.446 294.893 100.766C294.893 101.071 294.805 101.311 294.628 101.488C294.467 101.664 294.227 101.752 293.906 101.752ZM297.542 101.752C297.221 101.752 296.964 101.664 296.771 101.488C296.595 101.311 296.506 101.071 296.506 100.766C296.506 100.462 296.595 100.221 296.771 100.045C296.964 99.8688 297.221 99.7806 297.542 99.7806C297.863 99.7806 298.104 99.8688 298.264 100.045C298.441 100.205 298.529 100.446 298.529 100.766C298.529 101.071 298.441 101.311 298.264 101.488C298.104 101.664 297.863 101.752 297.542 101.752ZM298.409 111.393C298.425 111.377 298.449 111.369 298.481 111.369C298.529 111.369 298.569 111.401 298.602 111.465C298.634 111.513 298.634 111.553 298.602 111.585C298.056 112.21 297.566 112.683 297.133 113.004C296.715 113.308 296.306 113.461 295.904 113.461C295.631 113.461 295.423 113.38 295.278 113.22C295.15 113.044 295.086 112.763 295.086 112.379C295.086 112.058 295.134 111.633 295.23 111.104L295.664 108.604C294.925 110.095 294.09 111.297 293.159 112.21C292.244 113.108 291.361 113.557 290.51 113.557C289.515 113.557 289.017 112.964 289.017 111.778C289.017 111.649 289.033 111.409 289.065 111.056C289.226 109.918 289.651 108.772 290.341 107.618C291.032 106.464 291.843 105.519 292.774 104.781C293.705 104.028 294.58 103.651 295.399 103.651C295.704 103.651 296.001 103.707 296.29 103.82C296.579 103.932 296.811 104.1 296.988 104.325C297.277 104.084 297.47 103.796 297.566 103.459C297.582 103.411 297.638 103.395 297.735 103.411C297.831 103.427 297.871 103.451 297.855 103.483L296.458 111.104C296.41 111.345 296.386 111.561 296.386 111.754C296.386 112.25 296.53 112.499 296.819 112.499C297.173 112.499 297.702 112.13 298.409 111.393ZM291.377 112.379C291.955 112.379 292.565 112.082 293.207 111.489C293.865 110.896 294.451 110.151 294.965 109.253C295.479 108.34 295.824 107.45 296.001 106.585C296.049 106.376 296.065 106.192 296.049 106.032C296.049 105.551 295.92 105.174 295.664 104.902C295.423 104.629 295.053 104.493 294.556 104.493C293.994 104.509 293.416 104.765 292.822 105.262C292.244 105.743 291.738 106.4 291.305 107.234C290.871 108.051 290.582 108.965 290.438 109.974C290.39 110.327 290.365 110.648 290.365 110.936C290.365 111.898 290.703 112.379 291.377 112.379Z" fill="#16304D"/>
<path d="M309.621 111.393C309.654 111.361 309.678 111.345 309.694 111.345C309.742 111.345 309.782 111.377 309.814 111.441C309.862 111.489 309.862 111.537 309.814 111.585C309.268 112.226 308.779 112.699 308.345 113.004C307.928 113.308 307.518 113.461 307.117 113.461C306.828 113.461 306.611 113.38 306.467 113.22C306.338 113.044 306.274 112.763 306.274 112.379C306.274 112.058 306.322 111.633 306.418 111.104L307.117 107.282C307.213 106.769 307.261 106.336 307.261 105.983C307.261 105.054 306.916 104.589 306.226 104.589C305.696 104.589 305.142 104.926 304.564 105.599C304.002 106.272 303.472 107.258 302.975 108.556C302.477 109.838 302.076 111.345 301.771 113.076C301.739 113.188 301.65 113.276 301.506 113.34C301.377 113.404 301.201 113.437 300.976 113.437C300.751 113.437 300.599 113.42 300.518 113.388C300.454 113.372 300.422 113.34 300.422 113.292L300.518 112.739C300.615 112.355 300.703 111.93 300.783 111.465L301.771 106.104C301.819 105.863 301.843 105.647 301.843 105.455C301.843 104.942 301.682 104.685 301.361 104.685C301.169 104.685 300.92 104.781 300.615 104.974C300.326 105.166 300.021 105.439 299.7 105.791C299.683 105.807 299.659 105.815 299.627 105.815C299.579 105.815 299.531 105.791 299.483 105.743C299.451 105.679 299.459 105.631 299.507 105.599C300.053 104.974 300.55 104.509 301 104.204C301.466 103.9 301.907 103.748 302.325 103.748C302.597 103.748 302.798 103.836 302.927 104.012C303.055 104.172 303.119 104.437 303.119 104.805C303.119 105.222 303.079 105.639 302.999 106.056L302.493 108.965C303.071 107.298 303.753 106 304.54 105.07C305.327 104.124 306.154 103.651 307.021 103.651C307.55 103.651 307.944 103.796 308.201 104.084C308.457 104.373 308.586 104.829 308.586 105.455C308.586 105.839 308.538 106.296 308.441 106.825L307.647 111.104C307.599 111.345 307.574 111.561 307.574 111.754C307.574 112.25 307.735 112.499 308.056 112.499C308.393 112.499 308.915 112.13 309.621 111.393Z" fill="#16304D"/>
<path d="M318.335 111.104C318.287 111.345 318.263 111.553 318.263 111.73C318.263 112.242 318.424 112.499 318.745 112.499C319.066 112.499 319.596 112.13 320.334 111.393C320.366 111.361 320.39 111.345 320.406 111.345C320.455 111.345 320.495 111.377 320.527 111.441C320.575 111.489 320.575 111.537 320.527 111.585C319.949 112.226 319.451 112.699 319.034 113.004C318.616 113.308 318.207 113.461 317.806 113.461C317.244 113.461 316.963 113.108 316.963 112.403C316.963 112.146 317.019 111.714 317.131 111.104L317.589 108.724C316.85 110.231 316.064 111.417 315.229 112.282C314.41 113.132 313.575 113.557 312.724 113.557C312.146 113.557 311.673 113.372 311.303 113.004C310.934 112.619 310.75 112.018 310.75 111.201C310.75 111.024 310.782 110.696 310.846 110.215C311.055 109.061 311.488 107.979 312.146 106.969C312.821 105.959 313.615 105.158 314.53 104.565C315.462 103.956 316.385 103.651 317.3 103.651C317.749 103.651 318.135 103.756 318.456 103.964L319.515 98.3621C319.548 98.1057 319.564 97.9374 319.564 97.8573C319.564 97.4405 319.387 97.2322 319.034 97.2322C318.777 97.2322 318.384 97.3524 317.854 97.5928H317.806C317.757 97.5928 317.717 97.5527 317.685 97.4726C317.669 97.3924 317.693 97.3444 317.757 97.3283L320.888 95.8137H320.936C320.984 95.8137 321.033 95.8377 321.081 95.8858C321.129 95.9339 321.145 95.974 321.129 96.006L318.335 111.104ZM313.495 112.379C314.217 112.379 314.924 111.986 315.614 111.201C316.321 110.415 316.898 109.502 317.348 108.46C317.798 107.418 318.022 106.609 318.022 106.032C318.022 105.535 317.878 105.158 317.589 104.902C317.3 104.629 316.907 104.493 316.409 104.493C315.365 104.525 314.458 104.95 313.688 105.767C312.933 106.585 312.427 107.747 312.17 109.253C312.106 109.622 312.074 109.982 312.074 110.335C312.074 111.008 312.194 111.521 312.435 111.874C312.692 112.21 313.045 112.379 313.495 112.379Z" fill="#16304D"/>
<path d="M328.819 104.733C328.819 105.23 328.554 105.711 328.025 106.176C327.511 106.625 326.812 107.017 325.929 107.354C325.062 107.69 324.123 107.939 323.112 108.099C323.032 108.612 322.991 109.053 322.991 109.421C322.991 110.415 323.216 111.217 323.666 111.826C324.115 112.419 324.749 112.715 325.568 112.715C326.467 112.715 327.27 112.451 327.976 111.922H328.025C328.073 111.922 328.113 111.946 328.145 111.994C328.193 112.042 328.193 112.09 328.145 112.138C327.021 113.068 325.849 113.533 324.629 113.533C323.618 113.533 322.847 113.212 322.317 112.571C321.803 111.914 321.546 111.072 321.546 110.047C321.546 109.694 321.587 109.277 321.667 108.796C321.811 107.979 322.149 107.178 322.678 106.392C323.208 105.591 323.866 104.934 324.653 104.421C325.456 103.908 326.291 103.651 327.158 103.651C327.687 103.651 328.097 103.748 328.386 103.94C328.675 104.132 328.819 104.397 328.819 104.733ZM326.098 104.301C325.359 104.301 324.733 104.629 324.22 105.286C323.722 105.927 323.377 106.753 323.184 107.763C324.308 107.57 325.215 107.282 325.905 106.897C326.612 106.512 327.037 106.032 327.182 105.455C327.214 105.294 327.23 105.182 327.23 105.118C327.23 104.845 327.117 104.645 326.893 104.517C326.668 104.373 326.403 104.301 326.098 104.301Z" fill="#16304D"/>
<path d="M339.771 111.393C339.803 111.361 339.827 111.345 339.843 111.345C339.892 111.345 339.932 111.377 339.964 111.441C340.012 111.489 340.012 111.537 339.964 111.585C339.418 112.226 338.928 112.699 338.495 113.004C338.077 113.308 337.668 113.461 337.267 113.461C336.978 113.461 336.761 113.38 336.616 113.22C336.488 113.044 336.424 112.763 336.424 112.379C336.424 112.058 336.472 111.633 336.568 111.104L337.267 107.282C337.363 106.769 337.411 106.336 337.411 105.983C337.411 105.054 337.066 104.589 336.376 104.589C335.846 104.589 335.292 104.926 334.714 105.599C334.152 106.272 333.622 107.258 333.125 108.556C332.627 109.838 332.225 111.345 331.92 113.076C331.888 113.188 331.8 113.276 331.656 113.34C331.527 113.404 331.35 113.437 331.126 113.437C330.901 113.437 330.748 113.42 330.668 113.388C330.604 113.372 330.572 113.34 330.572 113.292L330.668 112.739C330.764 112.355 330.853 111.93 330.933 111.465L331.92 106.104C331.969 105.863 331.993 105.647 331.993 105.455C331.993 104.942 331.832 104.685 331.511 104.685C331.318 104.685 331.07 104.781 330.764 104.974C330.475 105.166 330.17 105.439 329.849 105.791C329.833 105.807 329.809 105.815 329.777 105.815C329.729 105.815 329.681 105.791 329.633 105.743C329.601 105.679 329.609 105.631 329.657 105.599C330.203 104.974 330.7 104.509 331.15 104.204C331.615 103.9 332.057 103.748 332.474 103.748C332.747 103.748 332.948 103.836 333.076 104.012C333.205 104.172 333.269 104.437 333.269 104.805C333.269 105.222 333.229 105.639 333.149 106.056L332.643 108.965C333.221 107.298 333.903 106 334.69 105.07C335.477 104.124 336.303 103.651 337.17 103.651C337.7 103.651 338.093 103.796 338.35 104.084C338.607 104.373 338.736 104.829 338.736 105.455C338.736 105.839 338.688 106.296 338.591 106.825L337.796 111.104C337.748 111.345 337.724 111.561 337.724 111.754C337.724 112.25 337.885 112.499 338.206 112.499C338.543 112.499 339.065 112.13 339.771 111.393Z" fill="#16304D"/>
<path d="M51.7393 4.2606C51.9867 3.94313 52.4585 3.12667 52.3664 2.40054C52.2513 1.49288 51.8791 0.888477 51.3213 0.522176C50.7635 0.155875 49.4652 -0.126346 48.7155 0.0580153C47.9659 0.242377 47.181 0.696666 46.7411 1.4503C46.3012 2.20393 46.0106 3.0543 46.0118 3.5953C46.0127 4.07 46.332 4.8413 46.7915 5.14009C47.0912 5.33495 47.9904 5.91953 48.9274 5.84055C49.8645 5.76158 50.5183 5.4767 50.758 5.31569C51.0142 5.14365 51.4732 4.66414 51.7393 4.2606Z" fill="#DB7A64"/>
<path d="M41.7371 1.37619C42.0811 1.20084 42.2714 1.12872 42.3953 1.11406C42.5191 1.09941 42.8108 1.11592 43.068 1.17621C43.4184 1.2942 43.5225 1.35275 43.6474 1.42301C43.7724 1.49327 43.9511 1.6552 44.0006 1.75328C44.0377 1.82684 44.1156 2.05503 44.1401 2.14781C44.1585 2.21777 44.1668 2.34957 44.172 2.43247C44.1733 2.45322 44.1744 2.47091 44.1755 2.48379C44.1857 2.6125 44.1266 2.90414 44.0506 3.01944L43.5437 3.78809C43.3627 3.97605 43.1988 4.09465 42.9978 4.13969C42.8069 4.18248 42.4543 4.1414 42.2789 4.10427C42.2188 4.09154 41.8618 4.00143 41.6325 3.87248C41.3826 3.73196 41.2308 3.6419 41.0711 3.42511C40.9242 3.22583 40.9089 2.99707 40.8966 2.81322C40.895 2.7896 40.8934 2.76672 40.8917 2.74474C40.8712 2.48885 41.3931 1.55154 41.7371 1.37619Z" fill="#DB7A64"/>
<path d="M37.4465 1.51885C37.9707 1.28675 38.2505 1.33869 38.7466 1.53865C39.1733 1.71062 39.2804 1.96431 39.3658 2.16686C39.3726 2.18299 39.3793 2.1988 39.3859 2.21421C39.4765 2.42319 39.5979 3.01828 39.1254 3.64822C38.6529 4.27815 38.0554 4.23191 37.8263 4.10311C37.5972 3.9743 37.1019 3.64313 37.0086 3.22188C36.9153 2.80063 36.8763 2.38358 36.9487 2.18721C36.9993 2.04984 37.2852 1.59027 37.4465 1.51885Z" fill="#DB7A64"/>
<path d="M33.9324 4.94295C33.4987 4.77812 33.2922 4.3986 33.2251 3.80771C33.2249 3.8032 33.2235 3.78801 33.2214 3.76521C33.2109 3.65122 33.1831 3.34731 33.1996 3.24023C33.2259 3.07061 33.3906 2.82079 33.5717 2.63283C33.7984 2.39746 34.2758 2.41978 34.6554 2.50462C35.2774 2.64363 35.4177 3.32659 35.4514 3.50535C35.4958 3.74105 35.2605 4.53071 34.9744 4.79131C34.6942 5.04658 34.4744 5.14897 33.9324 4.94295Z" fill="#DB7A64"/>
<path d="M30.5202 6.26441C30.216 6.1197 30.1291 5.99179 29.9986 5.49697C29.9905 5.46605 29.8937 5.08911 29.9143 4.97544L29.9174 4.95842C29.939 4.83724 29.9735 4.64327 30.1813 4.44069C30.4212 4.2068 30.604 4.10906 30.9608 4.16775C31.4244 4.24401 31.7558 4.62884 31.8591 4.88355C32.0112 5.25886 31.8366 5.74017 31.6338 6.04762C31.4311 6.35508 30.8679 6.42981 30.5202 6.26441Z" fill="#DB7A64"/>
<path d="M33.9029 7.45515C34.8671 7.07532 36.8009 6.53825 38.0159 6.3697C39.3226 6.0332 42.4141 5.88193 45.2536 6.90949C48.4883 8.08008 47.8054 9.64078 47.5601 10.2014C47.5362 10.2559 47.5165 10.301 47.5049 10.3353C47.3855 10.6896 46.1656 12.4076 45.8919 12.6947C45.8619 12.7262 45.8212 12.7699 45.7709 12.8238C45.3557 13.269 44.2866 14.4155 43.1698 15.2208C42.0645 16.0179 41.4736 16.8785 41.0395 17.5107C40.9819 17.5945 40.9271 17.6744 40.8742 17.7495C40.4225 18.3911 38.5145 21.7173 38.2722 23.5567C38.0648 25.1308 37.7609 25.8597 37.4173 26.6834C37.3595 26.8222 37.3005 26.9636 37.2406 27.1123C36.2722 29.5178 33.7599 30.2387 32.9331 30.4759C32.8815 30.4907 32.8361 30.5038 32.7985 30.5151C32.1575 30.7078 30.249 31.0045 28.6173 29.929C26.9857 28.8535 26.9795 26.9702 27.0052 26.5728C27.0247 26.2728 27.3452 24.9733 27.5769 24.0343C27.6788 23.6212 27.7635 23.2777 27.7978 23.1199C27.9144 22.5832 28.5595 19.2809 28.6264 18.66C28.6799 18.1632 28.678 16.9944 28.6704 16.4721C28.6141 15.9224 28.5342 14.4621 28.6644 13.018C28.8271 11.2129 29.954 9.63382 30.4754 9.18944C30.9968 8.74507 32.9387 7.83498 33.9029 7.45515Z" fill="#DB7A64"/>
<path d="M49.0527 16.9474C49.2441 16.5994 49.8119 15.8394 50.5521 15.5827C51.4773 15.2619 52.2293 15.2905 52.8377 15.58C53.4461 15.8696 54.3141 16.8044 54.4814 17.503C54.6488 18.2016 54.5729 19.0525 54.0508 19.7577C53.5287 20.4628 52.845 21.0899 52.3246 21.3364C51.8679 21.5527 50.9799 21.6439 50.4815 21.404C50.1565 21.2475 49.1814 20.7781 48.8266 19.9741C48.4718 19.1701 48.4451 18.5041 48.4897 18.234C48.5373 17.9454 48.7872 17.35 49.0527 16.9474Z" fill="#DB7A64"/>
<path d="M56.422 23.8242C56.4324 23.4621 56.4143 23.2732 56.3714 23.165C56.3286 23.0568 56.1787 22.8254 56.0025 22.6422C55.7281 22.4091 55.6239 22.3505 55.499 22.2803C55.374 22.21 55.1363 22.1376 55.0193 22.1419C54.9315 22.1451 54.6764 22.1857 54.576 22.2081C54.5003 22.2249 54.3698 22.2784 54.2877 22.3121C54.2672 22.3205 54.2497 22.3277 54.2368 22.3328C54.1084 22.3832 53.8553 22.565 53.7794 22.6801L53.2737 23.447C53.1762 23.6813 53.1376 23.8698 53.1867 24.0551C53.2333 24.2312 53.4348 24.5013 53.5511 24.628C53.591 24.6714 53.8417 24.9227 54.071 25.0517C54.3209 25.1922 54.4772 25.2754 54.759 25.3071C55.018 25.3363 55.2449 25.2442 55.4273 25.1703C55.4507 25.1607 55.4734 25.1515 55.4953 25.1429C55.7507 25.0426 56.4116 24.1863 56.422 23.8242Z" fill="#DB7A64"/>
<path d="M58.257 27.4053C58.2391 26.8696 58.0606 26.6641 57.6404 26.349C57.279 26.078 56.986 26.1064 56.7521 26.129L56.7314 26.131L56.7109 26.1329L56.6973 26.1341C56.4548 26.1555 55.8271 26.3282 55.4388 27.0035C55.0506 27.6788 55.3697 28.1473 55.5988 28.2761C55.8279 28.4049 56.3738 28.6593 56.8215 28.5431C57.2693 28.4269 57.688 28.2681 57.8435 28.119C57.9522 28.0146 58.2625 27.5702 58.257 27.4053Z" fill="#DB7A64"/>
<path d="M56.5814 31.851C56.9391 32.131 57.3988 32.1266 57.9975 31.9113C58.0019 31.9095 58.0172 31.9036 58.04 31.8949C58.1543 31.8514 58.4593 31.7352 58.5546 31.6727C58.7055 31.5735 58.8699 31.3243 58.9673 31.09C59.0894 30.7966 58.8485 30.4156 58.5924 30.1433C58.173 29.6972 57.4521 29.8946 57.2648 29.9487C57.0179 30.0202 56.3671 30.5741 56.2482 30.9277C56.1316 31.2741 56.1342 31.501 56.5814 31.851Z" fill="#DB7A64"/>
<path d="M56.8796 35.2514C57.1586 35.4345 57.3215 35.4472 57.857 35.3278C57.8904 35.3204 58.2972 35.2273 58.3969 35.1584L58.4119 35.1481C58.5184 35.075 58.689 34.9579 58.7881 34.695C58.9027 34.3914 58.9126 34.197 58.6922 33.9314C58.4058 33.5864 57.8836 33.4909 57.5914 33.5227C57.1608 33.5697 56.7785 33.933 56.5762 34.2397C56.3739 34.5465 56.5609 35.0421 56.8796 35.2514Z" fill="#DB7A64"/>
<path d="M54.1805 33.0241C54.1024 32.0604 53.7297 30.2301 53.3333 29.1574C53.0561 27.9327 51.7805 25.3302 49.4879 23.4735C46.8761 21.3582 45.6901 22.6317 45.264 23.0891C45.2226 23.1336 45.1883 23.1704 45.1607 23.1955C44.8751 23.4555 43.7847 25.2408 43.6345 25.5964C43.6182 25.6351 43.5952 25.6878 43.5668 25.7529L43.5663 25.754L43.5661 25.7546C43.329 26.2985 42.7186 27.6989 42.4579 28.9823C42.1999 30.2527 41.6444 31.1304 41.2363 31.7753C41.1822 31.8608 41.1307 31.9423 41.0828 32.02C40.6737 32.6836 38.354 35.7683 36.6976 36.8082C35.2801 37.6981 34.7193 38.2805 34.0856 38.9387C33.9788 39.0496 33.87 39.1627 33.7546 39.2797C31.8878 41.1734 32.3497 43.5618 32.5018 44.3478C32.5113 44.397 32.5196 44.4399 32.526 44.476C32.6353 45.0895 33.2274 46.789 35.011 47.6342C36.7946 48.4793 38.6074 47.623 38.9775 47.4202C39.2569 47.267 40.3585 46.41 41.1545 45.7907C41.5047 45.5182 41.7958 45.2917 41.9317 45.1915C42.394 44.8504 45.2711 42.8115 45.8371 42.4727C46.2899 42.2016 47.4142 41.6686 47.9197 41.4359C48.4738 41.2306 49.914 40.6281 51.242 39.861C52.9021 38.9021 53.9017 37.2565 54.0891 36.6259C54.2765 35.9954 54.2586 33.9879 54.1805 33.0241Z" fill="#DB7A64"/>
</svg>
