<svg width="170" height="57" viewBox="0 0 170 57" fill="none" xmlns="http://www.w3.org/2000/svg">
<path d="M2.57843 39.4861V25.9068C2.57843 25.1524 2.4667 24.5489 2.24324 24.0962C2.03696 23.6268 1.54706 23.3921 0.77353 23.3921H0.257843V22.8892H10.5458C11.1474 22.8892 11.6029 22.9898 11.9124 23.1909C12.2218 23.3753 12.4366 23.6268 12.557 23.9453C12.6773 24.2471 12.7375 24.5656 12.7375 24.9009V26.7869H12.2218C12.2218 25.781 11.9381 25.0518 11.3709 24.5991C10.8208 24.1297 10.0301 23.895 8.99873 23.895H4.89902V30.5589H10.7263V31.5648H4.89902V39.4861H2.57843Z" fill="#F8F8F8"/>
<path d="M18.7489 39.7375C18.0269 39.7375 17.3308 39.6118 16.6604 39.3603C15.99 39.1088 15.4399 38.6562 15.0102 38.0024C14.5804 37.3486 14.3656 36.4181 14.3656 35.2111V30.6847C14.3656 29.9303 14.2538 29.3267 14.0304 28.8741C13.8241 28.4047 13.3342 28.17 12.5607 28.17H12.3028V27.6671H14.3656C14.9672 27.6671 15.4313 27.7425 15.7579 27.8934C16.1017 28.0443 16.3424 28.3376 16.4799 28.7735C16.6174 29.2094 16.6862 29.8464 16.6862 30.6847V35.2111C16.6862 36.0493 16.8237 36.7199 17.0987 37.2228C17.3737 37.709 17.7261 38.0611 18.1559 38.279C18.6028 38.4969 19.0583 38.6059 19.5224 38.6059C19.8662 38.6059 20.1928 38.5472 20.5022 38.4299C20.8117 38.2958 21.1039 38.1281 21.3789 37.9269C21.6539 37.7258 21.8946 37.5078 22.1009 37.2731V27.6671H24.4215V39.4861H23.1322L22.2298 38.4802H22.1009C21.7743 38.7987 21.3273 39.0921 20.7601 39.3603C20.1928 39.6118 19.5224 39.7375 18.7489 39.7375Z" fill="#F8F8F8"/>
<path d="M35.1724 39.7375C34.5192 39.7375 33.9004 39.6537 33.3159 39.4861C32.7315 39.3016 32.276 39.0502 31.9494 38.7316C31.6228 38.4131 31.4337 38.0778 31.3821 37.7258C31.3305 37.3737 31.3047 37.0384 31.3047 36.7199H31.8204C31.8892 37.2228 32.1814 37.6839 32.6971 38.103C33.23 38.5221 33.8832 38.7316 34.6567 38.7316C35.3099 38.7316 35.817 38.564 36.178 38.2287C36.539 37.8934 36.7195 37.4743 36.7195 36.9714C36.7195 36.4181 36.539 35.9571 36.178 35.5883C35.8342 35.2027 35.3959 34.859 34.863 34.5573C34.3473 34.2388 33.823 33.9118 33.2901 33.5766C32.7573 33.2413 32.3103 32.8473 31.9494 32.3947C31.6056 31.9252 31.4337 31.3553 31.4337 30.6847C31.4337 30.1314 31.5282 29.6788 31.7173 29.3267C31.9236 28.9579 32.1728 28.6478 32.465 28.3963C32.7573 28.1281 33.0495 27.8766 33.3417 27.6419C33.6511 27.3904 33.9004 27.1138 34.0895 26.8121C34.2957 26.4935 34.3989 26.108 34.3989 25.6553C34.3989 25.0183 34.2012 24.5237 33.8058 24.1716C33.4277 23.8196 32.8518 23.6436 32.0783 23.6436C31.236 23.6436 30.5914 23.8783 30.1445 24.3477C29.7147 24.8003 29.4998 25.6553 29.4998 26.9127V39.4861H27.1793V26.9127C27.1793 25.7391 27.4113 24.8506 27.8754 24.2471C28.3395 23.6268 28.9498 23.2077 29.7061 22.9898C30.4796 22.755 31.3133 22.6377 32.2072 22.6377C33.6339 22.6377 34.7169 22.8724 35.456 23.3418C36.2124 23.7944 36.5905 24.398 36.5905 25.1524C36.5905 25.7056 36.4874 26.1666 36.2811 26.5354C36.092 26.8875 35.8514 27.1976 35.5592 27.4659C35.2669 27.7173 34.9661 27.9688 34.6567 28.2203C34.3645 28.455 34.1152 28.7316 33.909 29.0501C33.7199 29.3519 33.6253 29.7291 33.6253 30.1817C33.6253 30.735 33.7972 31.2044 34.141 31.59C34.502 31.9588 34.9489 32.3024 35.4818 32.621C36.0147 32.9227 36.539 33.2413 37.0547 33.5766C37.5875 33.9118 38.0259 34.3058 38.3697 34.7585C38.7306 35.2111 38.9111 35.7811 38.9111 36.4684C38.9111 37.2228 38.7478 37.8431 38.4212 38.3293C38.1118 38.8155 37.6735 39.1759 37.1062 39.4106C36.5562 39.6285 35.9115 39.7375 35.1724 39.7375Z" fill="#F8F8F8"/>
<path d="M40.8839 44.2639V30.6847C40.8839 29.9303 40.7722 29.3267 40.5487 28.8741C40.3424 28.4047 39.8525 28.17 39.079 28.17H38.5633V27.6671H40.8839C41.5371 27.6671 42.027 27.7593 42.3536 27.9437C42.6974 28.1281 42.9381 28.4131 43.0756 28.7987C43.4194 28.4634 43.8835 28.1532 44.4679 27.8682C45.0524 27.5665 45.7915 27.4156 46.6854 27.4156C47.7167 27.4156 48.5762 27.6922 49.2638 28.2454C49.9514 28.7987 50.4671 29.5447 50.8109 30.4835C51.1547 31.4055 51.3266 32.4366 51.3266 33.5766C51.3266 34.6998 51.1461 35.7308 50.7851 36.6696C50.4413 37.6084 49.9084 38.3544 49.1865 38.9077C48.4645 39.4609 47.5449 39.7375 46.4275 39.7375C45.7056 39.7375 45.0867 39.6537 44.5711 39.4861C44.0554 39.3352 43.5999 39.1675 43.2045 38.9831V44.2639H40.8839ZM45.654 38.7316C46.4275 38.7316 47.0464 38.5053 47.5105 38.0527C47.9918 37.5833 48.3356 36.963 48.5418 36.1918C48.7653 35.4039 48.877 34.5321 48.877 33.5766C48.877 32.6042 48.7739 31.7325 48.5676 30.9613C48.3614 30.1901 48.0348 29.5782 47.5878 29.1256C47.1581 28.6562 46.5994 28.4215 45.9118 28.4215C45.2071 28.4215 44.6398 28.5807 44.2101 28.8992C43.7803 29.201 43.4451 29.5447 43.2045 29.9303V37.9772C43.5999 38.1617 44.0038 38.3377 44.4164 38.5053C44.8461 38.6562 45.2586 38.7316 45.654 38.7316Z" fill="#F8F8F8"/>
<path d="M53.9021 39.4861V28.6729H52.0971V27.6671H53.9021V26.9127C53.9021 25.7391 54.1255 24.8506 54.5724 24.2471C55.0194 23.6268 55.5866 23.2077 56.2742 22.9898C56.979 22.755 57.6923 22.6377 58.4143 22.6377C58.9472 22.6377 59.3941 22.6712 59.7551 22.7383C60.1333 22.7886 60.4169 22.8808 60.606 23.0149C60.7951 23.149 60.9584 23.3083 61.0959 23.4927C61.2334 23.6771 61.3709 23.895 61.5084 24.1465L60.7349 24.7752C60.477 24.3896 60.1419 24.1046 59.7293 23.9202C59.3168 23.7358 58.8355 23.6436 58.2854 23.6436C57.7009 23.6436 57.211 23.8783 56.8157 24.3477C56.4203 24.8171 56.2226 25.6721 56.2226 26.9127V27.6671H59.8324V28.6729H56.2226V39.4861H53.9021Z" fill="#F8F8F8"/>
<path d="M61.2432 39.4861V25.9068C61.2432 25.1524 61.1315 24.5489 60.908 24.0962C60.7017 23.6268 60.2118 23.3921 59.4383 23.3921H58.9226V22.8892H61.2432C61.8448 22.8892 62.309 22.9646 62.6356 23.1155C62.9794 23.2664 63.22 23.5597 63.3575 23.9956C63.495 24.4315 63.5638 25.0686 63.5638 25.9068V39.4861H61.2432Z" fill="#F8F8F8"/>
<path d="M71.1441 39.7375C69.9408 39.7375 68.9352 39.4609 68.1273 38.9077C67.3366 38.3544 66.7349 37.6084 66.3224 36.6696C65.927 35.7308 65.7294 34.6998 65.7294 33.5766C65.7294 32.4366 65.9356 31.4055 66.3482 30.4835C66.7607 29.5447 67.3538 28.7987 68.1273 28.2454C68.9008 27.6922 69.8205 27.4156 70.8862 27.4156C72.0551 27.4156 73.0177 27.6335 73.7741 28.0694C74.5476 28.4885 75.1148 29.1088 75.4758 29.9303C75.854 30.7517 76.0431 31.7576 76.0431 32.9479L75.9915 33.9538H68.1789C68.1789 35.3284 68.4797 36.4684 69.0813 37.3737C69.7001 38.279 70.5596 38.7316 71.6598 38.7316C72.502 38.7316 73.1982 38.5556 73.7483 38.2036C74.3155 37.8515 74.8226 37.357 75.2696 36.7199L75.7852 37.0971C75.4071 37.7342 74.9773 38.2455 74.496 38.6311C74.0319 39.0166 73.5162 39.3016 72.949 39.4861C72.3989 39.6537 71.7973 39.7375 71.1441 39.7375ZM68.1789 32.9479H73.5936C73.5936 31.4894 73.3701 30.3745 72.9232 29.6034C72.4763 28.8154 71.7973 28.4215 70.8862 28.4215C70.3705 28.4215 69.9064 28.6226 69.4939 29.025C69.0985 29.4106 68.7805 29.947 68.5398 30.6344C68.2992 31.305 68.1789 32.0761 68.1789 32.9479Z" fill="#F8F8F8"/>
<path d="M82.5428 44.5154C81.4771 44.5154 80.5145 44.3897 79.655 44.1382C78.7955 43.8867 78.1165 43.476 77.618 42.906C77.1195 42.336 76.8703 41.5732 76.8703 40.6177C76.8703 40.0644 76.9992 39.5783 77.257 39.1591C77.5149 38.7233 77.8587 38.3544 78.2884 38.0527C78.7182 37.7509 79.1909 37.5162 79.7066 37.3486C79.4487 37.2145 79.2081 37.03 78.9846 36.7953C78.7783 36.5439 78.6752 36.2253 78.6752 35.8398C78.6752 35.4542 78.7783 35.1608 78.9846 34.9596C79.1909 34.7585 79.3885 34.5908 79.5776 34.4567C79.0619 34.2052 78.6064 33.8029 78.2111 33.2496C77.8329 32.6964 77.6438 32.0091 77.6438 31.1876C77.6438 30.2153 77.8587 29.4609 78.2884 28.9244C78.7353 28.3712 79.3284 27.9856 80.0675 27.7676C80.8239 27.5329 81.649 27.4156 82.5428 27.4156H87.3129V28.0443L85.6369 28.2957C86.1183 28.5807 86.5394 28.9747 86.9004 29.4776C87.2614 29.9806 87.4418 30.5506 87.4418 31.1876C87.4418 32.1432 87.2184 32.8976 86.7715 33.4508C86.3417 34.004 85.7573 34.398 85.0181 34.6327C84.279 34.8507 83.4539 34.9596 82.5428 34.9596C81.649 34.9596 80.97 35.0351 80.5059 35.1859C80.0589 35.3368 79.8355 35.5548 79.8355 35.8398C79.8355 36.1248 80.0589 36.3427 80.5059 36.4936C80.97 36.6445 81.649 36.7199 82.5428 36.7199C83.5742 36.7199 84.5196 36.854 85.3791 37.1223C86.2386 37.3905 86.9262 37.8096 87.4418 38.3796C87.9575 38.9496 88.2154 39.6956 88.2154 40.6177C88.2154 41.5732 87.9661 42.336 87.4676 42.906C86.9691 43.476 86.2901 43.8867 85.4307 44.1382C84.5712 44.3897 83.6086 44.5154 82.5428 44.5154ZM82.5428 43.5095C83.5226 43.5095 84.3219 43.2748 84.9408 42.8054C85.5768 42.3528 85.8948 41.6235 85.8948 40.6177C85.8948 39.7794 85.6369 39.1172 85.1213 38.6311C84.6056 38.1449 83.832 37.8431 82.8007 37.7258L81.3825 37.6C80.7293 37.8515 80.1965 38.2119 79.7839 38.6814C79.3885 39.1508 79.1909 39.7962 79.1909 40.6177C79.1909 41.6235 79.5003 42.3528 80.1191 42.8054C80.7551 43.2748 81.563 43.5095 82.5428 43.5095ZM82.5428 34.0795C83.2476 34.0795 83.8492 33.8699 84.3477 33.4508C84.8634 33.0149 85.1213 32.2605 85.1213 31.1876C85.1213 30.1817 84.872 29.4525 84.3735 28.9998C83.875 28.5304 83.2648 28.2957 82.5428 28.2957C81.8381 28.2957 81.2278 28.5137 80.7121 28.9495C80.2136 29.3687 79.9644 30.1147 79.9644 31.1876C79.9644 32.2605 80.2136 33.0149 80.7121 33.4508C81.2278 33.8699 81.8381 34.0795 82.5428 34.0795Z" fill="#F8F8F8"/>
<path d="M94.5064 39.7375C93.3032 39.7375 92.2976 39.4609 91.4897 38.9077C90.6989 38.3544 90.0973 37.6084 89.6848 36.6696C89.2894 35.7308 89.0917 34.6998 89.0917 33.5766C89.0917 32.4366 89.298 31.4055 89.7105 30.4835C90.1231 29.5447 90.7161 28.7987 91.4897 28.2454C92.2632 27.6922 93.1828 27.4156 94.2486 27.4156C95.4175 27.4156 96.3801 27.6335 97.1364 28.0694C97.91 28.4885 98.4772 29.1088 98.8382 29.9303C99.2164 30.7517 99.4055 31.7576 99.4055 32.9479L99.3539 33.9538H91.5412C91.5412 35.3284 91.842 36.4684 92.4437 37.3737C93.0625 38.279 93.922 38.7316 95.0221 38.7316C95.8644 38.7316 96.5606 38.5556 97.1106 38.2036C97.6779 37.8515 98.185 37.357 98.6319 36.7199L99.1476 37.0971C98.7694 37.7342 98.3397 38.2455 97.8584 38.6311C97.3943 39.0166 96.8786 39.3016 96.3113 39.4861C95.7613 39.6537 95.1596 39.7375 94.5064 39.7375ZM91.5412 32.9479H96.9559C96.9559 31.4894 96.7325 30.3745 96.2856 29.6034C95.8386 28.8154 95.1596 28.4215 94.2486 28.4215C93.7329 28.4215 93.2688 28.6226 92.8562 29.025C92.4609 29.4106 92.1429 29.947 91.9022 30.6344C91.6616 31.305 91.5412 32.0761 91.5412 32.9479Z" fill="#F8F8F8"/>
<path d="M105.668 39.4861V38.9831L116.368 23.895H110.18C109.149 23.895 108.35 24.1297 107.782 24.5991C107.232 25.0518 106.957 25.781 106.957 26.7869H106.442V24.9009C106.442 24.5656 106.502 24.2471 106.622 23.9453C106.742 23.6268 106.957 23.3753 107.267 23.1909C107.593 22.9898 108.049 22.8892 108.633 22.8892H119.849L108.891 38.4802H119.463V39.4861H105.668Z" fill="#F8F8F8"/>
<path d="M125.077 39.7375C124.046 39.7375 123.204 39.6537 122.551 39.4861C121.897 39.3016 121.407 39.0502 121.081 38.7316C120.754 38.4131 120.565 38.0527 120.514 37.6503C120.462 37.248 120.436 36.7283 120.436 36.0912H120.952C121.089 36.9127 121.45 37.5581 122.035 38.0275C122.619 38.4969 123.462 38.7316 124.562 38.7316C125.542 38.7316 126.255 38.564 126.702 38.2287C127.166 37.8934 127.398 37.4743 127.398 36.9714C127.398 36.4684 127.2 36.0493 126.805 35.714C126.427 35.362 125.851 35.0267 125.077 34.7082L123.53 34.0795C122.551 33.6939 121.786 33.2413 121.236 32.7216C120.703 32.1851 120.436 31.5061 120.436 30.6847C120.436 29.6285 120.84 28.8238 121.648 28.2706C122.456 27.7006 123.47 27.4156 124.691 27.4156C125.67 27.4156 126.478 27.5078 127.114 27.6922C127.75 27.8598 128.232 28.1029 128.558 28.4215C128.885 28.74 129.074 29.1004 129.126 29.5028C129.177 29.9051 129.203 30.4248 129.203 31.0619H128.687C128.55 30.2404 128.189 29.595 127.604 29.1256C127.037 28.6562 126.238 28.4215 125.206 28.4215C124.364 28.4215 123.719 28.5891 123.272 28.9244C122.843 29.2597 122.628 29.6788 122.628 30.1817C122.628 30.6176 122.808 31.02 123.169 31.3888C123.53 31.7408 124.037 32.051 124.691 32.3192L126.238 32.9479C127.338 33.3838 128.172 33.8615 128.739 34.3813C129.306 34.901 129.59 35.5967 129.59 36.4684C129.59 37.5246 129.16 38.3377 128.3 38.9077C127.441 39.4609 126.367 39.7375 125.077 39.7375Z" fill="#DF6347"/>
<path d="M135.986 39.7375C135.265 39.7375 134.568 39.6118 133.898 39.3603C133.228 39.1088 132.677 38.6562 132.248 38.0024C131.818 37.3486 131.603 36.4181 131.603 35.2111V30.6847C131.603 29.9303 131.491 29.3267 131.268 28.8741C131.062 28.4047 130.572 28.17 129.798 28.17H129.54V27.6671H131.603C132.205 27.6671 132.669 27.7425 132.995 27.8934C133.339 28.0443 133.58 28.3376 133.717 28.7735C133.855 29.2094 133.924 29.8464 133.924 30.6847V35.2111C133.924 36.0493 134.061 36.7199 134.336 37.2228C134.611 37.709 134.964 38.0611 135.393 38.279C135.84 38.4969 136.296 38.6059 136.76 38.6059C137.104 38.6059 137.43 38.5472 137.74 38.4299C138.049 38.2958 138.341 38.1281 138.616 37.9269C138.892 37.7258 139.132 37.5078 139.338 37.2731V27.6671H141.659V39.4861H140.37L139.467 38.4802H139.338C139.012 38.7987 138.565 39.0921 137.998 39.3603C137.43 39.6118 136.76 39.7375 135.986 39.7375Z" fill="#DF6347"/>
<path d="M143.695 39.4861V39.0083L150.399 28.6729H147.434C146.333 28.6729 145.517 28.8741 144.984 29.2765C144.468 29.6788 144.211 30.232 144.211 30.9361H143.695V29.6788C143.695 29.3435 143.755 29.025 143.875 28.7232C143.996 28.4047 144.211 28.1532 144.52 27.9688C144.847 27.7676 145.302 27.6671 145.887 27.6671H153.751L146.789 38.4802H153.751V39.4861H143.695Z" fill="#DF6347"/>
<path d="M159.517 39.7375C158.485 39.7375 157.643 39.6537 156.99 39.4861C156.337 39.3016 155.847 39.0502 155.52 38.7316C155.193 38.4131 155.004 38.0527 154.953 37.6503C154.901 37.248 154.875 36.7283 154.875 36.0912H155.391C155.529 36.9127 155.89 37.5581 156.474 38.0275C157.059 38.4969 157.901 38.7316 159.001 38.7316C159.981 38.7316 160.694 38.564 161.141 38.2287C161.605 37.8934 161.837 37.4743 161.837 36.9714C161.837 36.4684 161.64 36.0493 161.244 35.714C160.866 35.362 160.29 35.0267 159.517 34.7082L157.97 34.0795C156.99 33.6939 156.225 33.2413 155.675 32.7216C155.142 32.1851 154.875 31.5061 154.875 30.6847C154.875 29.6285 155.279 28.8238 156.087 28.2706C156.895 27.7006 157.909 27.4156 159.13 27.4156C160.11 27.4156 160.918 27.5078 161.554 27.6922C162.19 27.8598 162.671 28.1029 162.998 28.4215C163.324 28.74 163.513 29.1004 163.565 29.5028C163.616 29.9051 163.642 30.4248 163.642 31.0619H163.126C162.989 30.2404 162.628 29.595 162.044 29.1256C161.476 28.6562 160.677 28.4215 159.646 28.4215C158.803 28.4215 158.159 28.5891 157.712 28.9244C157.282 29.2597 157.067 29.6788 157.067 30.1817C157.067 30.6176 157.248 31.02 157.609 31.3888C157.97 31.7408 158.477 32.051 159.13 32.3192L160.677 32.9479C161.777 33.3838 162.611 33.8615 163.178 34.3813C163.745 34.901 164.029 35.5967 164.029 36.4684C164.029 37.5246 163.599 38.3377 162.74 38.9077C161.88 39.4609 160.806 39.7375 159.517 39.7375Z" fill="#DF6347"/>
<path d="M166.403 39.4861V30.6847C166.403 29.9303 166.292 29.3267 166.068 28.8741C165.862 28.4047 165.372 28.17 164.598 28.17H164.083V27.6671H166.403C167.005 27.6671 167.469 27.7425 167.796 27.8934C168.14 28.0443 168.38 28.3376 168.518 28.7735C168.655 29.2094 168.724 29.8464 168.724 30.6847V39.4861H166.403ZM167.383 26.1582C166.988 26.1582 166.644 25.999 166.352 25.6805C166.077 25.3619 165.939 24.9847 165.939 24.5489C165.939 24.1968 166.042 23.9202 166.249 23.719C166.472 23.5178 166.764 23.4172 167.125 23.4172C167.521 23.4172 167.856 23.5765 168.131 23.895C168.423 24.2136 168.569 24.5908 168.569 25.0266C168.569 25.3787 168.458 25.6553 168.234 25.8565C168.028 26.0577 167.744 26.1582 167.383 26.1582Z" fill="#DF6347"/>
<path d="M0.870221 54.6134V49.5212C0.870221 49.2383 0.828321 49.012 0.744522 48.8422C0.667169 48.6662 0.483456 48.5782 0.193382 48.5782H0V48.3896H2.51397C2.76537 48.3896 3.03933 48.4084 3.33585 48.4462C3.63881 48.4839 3.92566 48.5593 4.1964 48.6725C4.46713 48.7794 4.68952 48.9428 4.86357 49.1629C5.03761 49.3829 5.12463 49.6752 5.12463 50.0398C5.12463 50.3227 5.02472 50.5868 4.82489 50.832C4.62506 51.0709 4.30598 51.2626 3.86765 51.4072C4.28664 51.4701 4.61217 51.5738 4.84423 51.7184C5.07629 51.8567 5.23744 52.0264 5.32769 52.2276C5.41793 52.4288 5.46305 52.6583 5.46305 52.916C5.46305 53.2681 5.38248 53.5573 5.22133 53.7836C5.06017 54.0036 4.84745 54.1734 4.58316 54.2928C4.32532 54.4122 4.03847 54.4971 3.72261 54.5474C3.4132 54.5914 3.10701 54.6134 2.80405 54.6134H0.870221ZM2.65901 54.2834C3.2456 54.2834 3.69683 54.1702 4.01269 53.9439C4.33499 53.7176 4.49614 53.3907 4.49614 52.9632C4.49614 52.5357 4.34144 52.2088 4.03202 51.9824C3.72261 51.7561 3.26494 51.643 2.65901 51.643H1.74044V54.1513C1.8887 54.1954 2.04018 54.2299 2.19489 54.2551C2.35604 54.2739 2.51075 54.2834 2.65901 54.2834ZM1.74044 51.2658H2.65901C2.91685 51.2658 3.1618 51.2186 3.39386 51.1243C3.63237 51.03 3.82575 50.8886 3.97401 50.7C4.12871 50.5113 4.20607 50.2756 4.20607 49.9927C4.20607 49.6909 4.1126 49.4458 3.92566 49.2572C3.74517 49.0686 3.51956 48.9334 3.24883 48.8517C2.98454 48.7636 2.72347 48.7196 2.46563 48.7196C2.34315 48.7196 2.21423 48.7291 2.07886 48.7479C1.94994 48.7668 1.83713 48.7888 1.74044 48.8139V51.2658Z" fill="#F8F8F8"/>
<path d="M8.61587 54.7077C8.16464 54.7077 7.78755 54.604 7.48458 54.3965C7.18806 54.1891 6.96245 53.9093 6.80774 53.5573C6.65948 53.2052 6.58535 52.8186 6.58535 52.3974C6.58535 51.9699 6.6627 51.5832 6.81741 51.2375C6.97212 50.8854 7.19451 50.6057 7.48458 50.3982C7.77465 50.1907 8.11952 50.087 8.51918 50.087C8.95751 50.087 9.31849 50.1687 9.60212 50.3322C9.89219 50.4893 10.1049 50.722 10.2403 51.03C10.3821 51.3381 10.453 51.7153 10.453 52.1616L10.4337 52.5388H7.50392C7.50392 53.0543 7.61672 53.4818 7.84234 53.8213C8.0744 54.1608 8.3967 54.3305 8.80925 54.3305C9.12511 54.3305 9.38617 54.2645 9.59245 54.1325C9.80517 54.0005 9.99533 53.815 10.1629 53.5761L10.3563 53.7176C10.2145 53.9565 10.0533 54.1482 9.87285 54.2928C9.69881 54.4374 9.50543 54.5443 9.29271 54.6134C9.08643 54.6763 8.86082 54.7077 8.61587 54.7077ZM7.50392 52.1616H9.53443C9.53443 51.6147 9.45063 51.1966 9.28304 50.9074C9.11544 50.6119 8.86082 50.4642 8.51918 50.4642C8.32579 50.4642 8.15175 50.5396 7.99704 50.6905C7.84878 50.8351 7.72953 51.0363 7.63929 51.294C7.54904 51.5455 7.50392 51.8347 7.50392 52.1616Z" fill="#F8F8F8"/>
<path d="M12.0028 54.6134V51.3129C12.0028 51.03 11.9609 50.8037 11.8771 50.6339C11.7997 50.4579 11.616 50.3699 11.3259 50.3699H11.1326V50.1813H12.0028C12.2284 50.1813 12.4024 50.2096 12.5249 50.2662C12.6538 50.3227 12.7441 50.4328 12.7956 50.5962C12.8472 50.7597 12.873 50.9986 12.873 51.3129V54.6134H12.0028ZM12.3702 49.6155C12.2219 49.6155 12.093 49.5558 11.9834 49.4363C11.8803 49.3169 11.8287 49.1754 11.8287 49.012C11.8287 48.88 11.8674 48.7762 11.9448 48.7008C12.0286 48.6253 12.1381 48.5876 12.2735 48.5876C12.4218 48.5876 12.5475 48.6473 12.6506 48.7668C12.7602 48.8862 12.815 49.0277 12.815 49.1911C12.815 49.3232 12.7731 49.4269 12.6893 49.5023C12.6119 49.5778 12.5056 49.6155 12.3702 49.6155Z" fill="#F8F8F8"/>
<path d="M17.3797 54.6134V51.3129C17.3797 51.03 17.3378 50.8037 17.254 50.6339C17.1767 50.4579 16.993 50.3699 16.7029 50.3699H16.5095V50.1813H17.3797C17.6247 50.1813 17.8084 50.2159 17.9309 50.285C18.0598 50.3479 18.15 50.4391 18.2016 50.5585H18.2499C18.3724 50.4391 18.54 50.3322 18.7527 50.2379C18.9655 50.1373 19.2169 50.087 19.5069 50.087C19.6745 50.087 19.8292 50.1059 19.971 50.1436C20.1193 50.1813 20.2514 50.2473 20.3675 50.3416C20.49 50.4359 20.5899 50.5711 20.6672 50.7471C20.8348 50.5334 21.0508 50.3699 21.315 50.2567C21.5793 50.1436 21.8469 50.087 22.1176 50.087C22.3625 50.087 22.5849 50.1341 22.7848 50.2284C22.991 50.3227 23.1554 50.4925 23.2779 50.7377C23.4068 50.9766 23.4713 51.3255 23.4713 51.7844V54.6134H22.601V51.7844C22.601 51.3129 22.5334 50.9829 22.398 50.7943C22.2626 50.6057 22.0725 50.5114 21.8275 50.5114C21.6406 50.5114 21.4472 50.5774 21.2474 50.7094C21.0475 50.8414 20.9025 50.9797 20.8123 51.1243C20.838 51.1935 20.8509 51.2972 20.8509 51.4355C20.8574 51.5738 20.8606 51.6901 20.8606 51.7844V54.6134H19.9904V51.7844C19.9904 51.3129 19.9227 50.9829 19.7873 50.7943C19.652 50.6057 19.4618 50.5114 19.2169 50.5114C19.0235 50.5114 18.843 50.5616 18.6754 50.6622C18.5142 50.7628 18.3724 50.8791 18.2499 51.0111V54.6134H17.3797Z" fill="#F8F8F8"/>
<path d="M25.2616 54.6134V51.3129C25.2616 51.03 25.2197 50.8037 25.1359 50.6339C25.0585 50.4579 24.8748 50.3699 24.5847 50.3699H24.3913V50.1813H25.2616C25.4872 50.1813 25.6612 50.2096 25.7837 50.2662C25.9126 50.3227 26.0029 50.4328 26.0544 50.5962C26.106 50.7597 26.1318 50.9986 26.1318 51.3129V54.6134H25.2616ZM25.629 49.6155C25.4807 49.6155 25.3518 49.5558 25.2422 49.4363C25.1391 49.3169 25.0875 49.1754 25.0875 49.012C25.0875 48.88 25.1262 48.7762 25.2035 48.7008C25.2873 48.6253 25.3969 48.5876 25.5323 48.5876C25.6806 48.5876 25.8063 48.6473 25.9094 48.7668C26.019 48.8862 26.0738 49.0277 26.0738 49.1911C26.0738 49.3232 26.0319 49.4269 25.9481 49.5023C25.8707 49.5778 25.7644 49.6155 25.629 49.6155Z" fill="#F8F8F8"/>
<path d="M27.8635 54.6134V51.3129C27.8635 51.03 27.8216 50.8037 27.7378 50.6339C27.6604 50.4579 27.4767 50.3699 27.1866 50.3699H27.0899V50.1813H27.8635C28.1084 50.1813 28.2921 50.2159 28.4146 50.285C28.5435 50.3542 28.6338 50.4611 28.6853 50.6057C28.7949 50.4988 28.9528 50.3856 29.1591 50.2662C29.3718 50.1467 29.6168 50.087 29.894 50.087C29.9907 50.087 30.0938 50.0996 30.2034 50.1247C30.313 50.1436 30.4032 50.1782 30.4741 50.2284C30.545 50.2787 30.6063 50.3385 30.6578 50.4076C30.7094 50.4768 30.761 50.5585 30.8125 50.6528L30.4258 50.9357C30.3549 50.8414 30.2485 50.7722 30.1067 50.7282C29.9713 50.6779 29.8198 50.6528 29.6522 50.6528C29.4589 50.6528 29.2816 50.6968 29.1204 50.7848C28.9593 50.8665 28.8304 50.9797 28.7337 51.1243C28.7337 51.1557 28.7337 51.2029 28.7337 51.2658C28.7337 51.3223 28.7337 51.3695 28.7337 51.4072V54.6134H27.8635Z" fill="#F8F8F8"/>
<path d="M36.1447 54.7077C35.7579 54.7077 35.4421 54.6763 35.1971 54.6134C34.9522 54.5443 34.7684 54.45 34.646 54.3305C34.5235 54.2111 34.4526 54.0759 34.4333 53.925C34.4139 53.7741 34.4042 53.5793 34.4042 53.3404H34.5976C34.6492 53.6484 34.7846 53.8904 35.0037 54.0665C35.2229 54.2425 35.5388 54.3305 35.9513 54.3305C36.3187 54.3305 36.5862 54.2677 36.7538 54.1419C36.9279 54.0162 37.0149 53.859 37.0149 53.6704C37.0149 53.4818 36.9408 53.3246 36.7925 53.1989C36.6507 53.0669 36.4348 52.9412 36.1447 52.8217L35.5645 52.586C35.1971 52.4414 34.9103 52.2716 34.704 52.0767C34.5042 51.8756 34.4042 51.621 34.4042 51.3129C34.4042 50.9168 34.5557 50.6151 34.8587 50.4076C35.1617 50.1939 35.542 50.087 35.9996 50.087C36.3671 50.087 36.67 50.1216 36.9085 50.1907C37.1471 50.2536 37.3275 50.3448 37.45 50.4642C37.5725 50.5836 37.6434 50.7188 37.6627 50.8697C37.6821 51.0206 37.6917 51.2155 37.6917 51.4544H37.4984C37.4468 51.1463 37.3114 50.9043 37.0923 50.7282C36.8795 50.5522 36.5798 50.4642 36.193 50.4642C35.8772 50.4642 35.6354 50.5271 35.4678 50.6528C35.3067 50.7785 35.2261 50.9357 35.2261 51.1243C35.2261 51.2878 35.2938 51.4386 35.4292 51.5769C35.5645 51.709 35.7547 51.8253 35.9996 51.9259L36.5798 52.1616C36.9923 52.3251 37.305 52.5042 37.5177 52.6991C37.7304 52.894 37.8368 53.1549 37.8368 53.4818C37.8368 53.8779 37.6756 54.1828 37.3533 54.3965C37.031 54.604 36.6281 54.7077 36.1447 54.7077Z" fill="#F8F8F8"/>
<path d="M39.377 54.6134V51.3129C39.377 51.03 39.3351 50.8037 39.2513 50.6339C39.1739 50.4579 38.9902 50.3699 38.7001 50.3699H38.5067V50.1813H39.377C39.6026 50.1813 39.7766 50.2096 39.8991 50.2662C40.028 50.3227 40.1183 50.4328 40.1698 50.5962C40.2214 50.7597 40.2472 50.9986 40.2472 51.3129V54.6134H39.377ZM39.7444 49.6155C39.5961 49.6155 39.4672 49.5558 39.3576 49.4363C39.2545 49.3169 39.2029 49.1754 39.2029 49.012C39.2029 48.88 39.2416 48.7762 39.319 48.7008C39.4027 48.6253 39.5123 48.5876 39.6477 48.5876C39.796 48.5876 39.9217 48.6473 40.0248 48.7668C40.1344 48.8862 40.1892 49.0277 40.1892 49.1911C40.1892 49.3232 40.1473 49.4269 40.0635 49.5023C39.9861 49.5778 39.8798 49.6155 39.7444 49.6155Z" fill="#F8F8F8"/>
<path d="M42.0466 54.6134V51.3129C42.0466 51.03 42.0046 50.8037 41.9208 50.6339C41.8435 50.4579 41.6598 50.3699 41.3697 50.3699H41.1763V50.1813H42.0466C42.2915 50.1813 42.4752 50.2159 42.5977 50.285C42.7266 50.3479 42.8169 50.4391 42.8684 50.5585C42.9973 50.4516 43.1746 50.3479 43.4002 50.2473C43.6258 50.1404 43.8837 50.087 44.1738 50.087C44.4509 50.087 44.712 50.1341 44.957 50.2284C45.2084 50.3227 45.4146 50.4925 45.5758 50.7377C45.7369 50.9766 45.8175 51.3255 45.8175 51.7844V54.6134H44.9473V51.7844C44.9473 51.4701 44.8957 51.2217 44.7926 51.0394C44.6894 50.8508 44.5573 50.7157 44.3961 50.6339C44.235 50.5522 44.0642 50.5114 43.8837 50.5114C43.6903 50.5114 43.5098 50.5616 43.3422 50.6622C43.1811 50.7628 43.0392 50.8791 42.9168 51.0111V54.6134H42.0466Z" fill="#F8F8F8"/>
<path d="M48.9498 54.7077C48.563 54.7077 48.2407 54.604 47.9829 54.3965C47.725 54.1891 47.5316 53.9093 47.4027 53.5573C47.2738 53.2052 47.2093 52.8186 47.2093 52.3974C47.2093 51.9699 47.2738 51.5832 47.4027 51.2375C47.5381 50.8854 47.7411 50.6057 48.0119 50.3982C48.2826 50.1907 48.6275 50.087 49.0465 50.087C49.3172 50.087 49.5493 50.1184 49.7426 50.1813C49.936 50.2379 50.1068 50.3007 50.2551 50.3699V49.5212C50.2551 49.2383 50.2132 49.012 50.1294 48.8422C50.0521 48.6662 49.8683 48.5782 49.5783 48.5782H49.3849V48.3896H50.2551C50.4807 48.3896 50.6548 48.4179 50.7772 48.4745C50.9062 48.531 50.9964 48.6411 51.048 48.8045C51.0995 48.968 51.1253 49.2069 51.1253 49.5212V54.6134H50.6419L50.3035 54.1891H50.2551C50.152 54.3085 50.0069 54.4248 49.82 54.538C49.6331 54.6511 49.343 54.7077 48.9498 54.7077ZM49.2398 54.3305C49.4397 54.3305 49.6008 54.3022 49.7233 54.2456C49.8458 54.1891 49.9457 54.1199 50.023 54.0382C50.1068 53.9502 50.1842 53.859 50.2551 53.7647V50.7471C50.1068 50.6779 49.9521 50.6151 49.791 50.5585C49.6363 50.4956 49.4848 50.4642 49.3365 50.4642C49.0465 50.4642 48.8112 50.5522 48.6307 50.7282C48.4567 50.898 48.3277 51.1274 48.2439 51.4166C48.1666 51.7058 48.1279 52.0327 48.1279 52.3974C48.1279 52.7557 48.1666 53.0826 48.2439 53.3781C48.3213 53.6673 48.4405 53.8999 48.6017 54.0759C48.7693 54.2456 48.982 54.3305 49.2398 54.3305Z" fill="#F8F8F8"/>
<path d="M56.5537 54.6134C56.3281 54.6134 56.1508 54.5851 56.0219 54.5286C55.8994 54.472 55.8124 54.362 55.7608 54.1985C55.7093 54.035 55.6835 53.7962 55.6835 53.4818V48.3896H56.5537V53.4818C56.5537 53.7647 56.5924 53.9942 56.6697 54.1702C56.7535 54.3399 56.9405 54.4248 57.2305 54.4248H57.4239V54.6134H56.5537Z" fill="#F8F8F8"/>
<path d="M58.5664 54.6134V49.5212C58.5664 49.2383 58.5245 49.012 58.4407 48.8422C58.3633 48.6662 58.1796 48.5782 57.8896 48.5782H57.6962V48.3896H58.5664C58.792 48.3896 58.9661 48.4179 59.0885 48.4745C59.2174 48.531 59.3077 48.6411 59.3593 48.8045C59.4108 48.968 59.4366 49.2069 59.4366 49.5212V50.5585C59.5591 50.4391 59.7267 50.3322 59.9394 50.2379C60.1521 50.1373 60.4035 50.087 60.6936 50.087C60.8999 50.087 61.0997 50.1121 61.2931 50.1624C61.4929 50.2127 61.6702 50.3007 61.8249 50.4265C61.9796 50.5459 62.1021 50.7188 62.1923 50.9451C62.289 51.1652 62.3373 51.4449 62.3373 51.7844V54.6134H61.4671V51.7844C61.4671 51.4701 61.4156 51.2217 61.3124 51.0394C61.2093 50.8508 61.0771 50.7157 60.916 50.6339C60.7548 50.5522 60.584 50.5114 60.4035 50.5114C60.2101 50.5114 60.0297 50.5616 59.8621 50.6622C59.7009 50.7628 59.5591 50.8791 59.4366 51.0111V54.6134H58.5664Z" fill="#F8F8F8"/>
<path d="M64.0517 54.6134V51.3129C64.0517 51.03 64.0098 50.8037 63.926 50.6339C63.8486 50.4579 63.6649 50.3699 63.3748 50.3699H63.2781V50.1813H64.0517C64.2966 50.1813 64.4803 50.2159 64.6028 50.285C64.7317 50.3542 64.822 50.4611 64.8735 50.6057C64.9831 50.4988 65.141 50.3856 65.3473 50.2662C65.56 50.1467 65.805 50.087 66.0822 50.087C66.1789 50.087 66.282 50.0996 66.3916 50.1247C66.5012 50.1436 66.5914 50.1782 66.6623 50.2284C66.7332 50.2787 66.7945 50.3385 66.846 50.4076C66.8976 50.4768 66.9492 50.5585 67.0007 50.6528L66.614 50.9357C66.5431 50.8414 66.4367 50.7722 66.2949 50.7282C66.1595 50.6779 66.008 50.6528 65.8404 50.6528C65.6471 50.6528 65.4698 50.6968 65.3086 50.7848C65.1475 50.8665 65.0186 50.9797 64.9219 51.1243C64.9219 51.1557 64.9219 51.2029 64.9219 51.2658C64.9219 51.3223 64.9219 51.3695 64.9219 51.4072V54.6134H64.0517Z" fill="#F8F8F8"/>
<path d="M69.7919 54.7077C69.3407 54.7077 68.9636 54.604 68.6607 54.3965C68.3641 54.1891 68.1385 53.9093 67.9838 53.5573C67.8356 53.2052 67.7614 52.8186 67.7614 52.3974C67.7614 51.9699 67.8388 51.5832 67.9935 51.2375C68.1482 50.8854 68.3706 50.6057 68.6607 50.3982C68.9507 50.1907 69.2956 50.087 69.6953 50.087C70.1336 50.087 70.4946 50.1687 70.7782 50.3322C71.0683 50.4893 71.281 50.722 71.4164 51.03C71.5582 51.3381 71.6291 51.7153 71.6291 52.1616L71.6097 52.5388H68.68C68.68 53.0543 68.7928 53.4818 69.0184 53.8213C69.2505 54.1608 69.5728 54.3305 69.9853 54.3305C70.3012 54.3305 70.5622 54.2645 70.7685 54.1325C70.9812 54.0005 71.1714 53.815 71.339 53.5761L71.5324 53.7176C71.3906 53.9565 71.2294 54.1482 71.0489 54.2928C70.8749 54.4374 70.6815 54.5443 70.4688 54.6134C70.2625 54.6763 70.0369 54.7077 69.7919 54.7077ZM68.68 52.1616H70.7105C70.7105 51.6147 70.6267 51.1966 70.4591 50.9074C70.2915 50.6119 70.0369 50.4642 69.6953 50.4642C69.5019 50.4642 69.3278 50.5396 69.1731 50.6905C69.0249 50.8351 68.9056 51.0363 68.8154 51.294C68.7251 51.5455 68.68 51.8347 68.68 52.1616Z" fill="#F8F8F8"/>
<path d="M76.0699 54.6134V49.5212C76.0699 49.2383 76.028 49.012 75.9442 48.8422C75.8669 48.6662 75.6832 48.5782 75.3931 48.5782H75.1997V48.3896H79.0577C79.2833 48.3896 79.4541 48.4273 79.5702 48.5028C79.6862 48.5719 79.7668 48.6662 79.8119 48.7857C79.857 48.8988 79.8796 49.0183 79.8796 49.144V49.8512H79.6862C79.6862 49.474 79.5798 49.2006 79.3671 49.0308C79.1608 48.8548 78.8643 48.7668 78.4775 48.7668H76.9401V51.2658H79.1254V51.643H76.9401V54.6134H76.0699Z" fill="#F8F8F8"/>
<path d="M82.7836 54.7077C82.5129 54.7077 82.2518 54.6606 82.0004 54.5663C81.749 54.472 81.5428 54.3022 81.3816 54.057C81.2204 53.8119 81.1399 53.463 81.1399 53.0103V51.3129C81.1399 51.03 81.098 50.8037 81.0142 50.6339C80.9368 50.4579 80.7531 50.3699 80.463 50.3699H80.3663V50.1813H81.1399C81.3655 50.1813 81.5395 50.2096 81.662 50.2662C81.7909 50.3227 81.8812 50.4328 81.9327 50.5962C81.9843 50.7597 82.0101 50.9986 82.0101 51.3129V53.0103C82.0101 53.3246 82.0617 53.5761 82.1648 53.7647C82.2679 53.947 82.4001 54.0791 82.5612 54.1608C82.7288 54.2425 82.8996 54.2834 83.0737 54.2834C83.2026 54.2834 83.3251 54.2614 83.4411 54.2174C83.5571 54.1671 83.6667 54.1042 83.7699 54.0288C83.873 53.9533 83.9633 53.8716 84.0406 53.7836V50.1813H84.9108V54.6134H84.4274L84.089 54.2362H84.0406C83.9181 54.3557 83.7505 54.4657 83.5378 54.5663C83.3251 54.6606 83.0737 54.7077 82.7836 54.7077ZM83.7505 49.7098C83.6281 49.7098 83.5249 49.6689 83.4411 49.5872C83.3573 49.5055 83.3154 49.4049 83.3154 49.2854C83.3154 49.166 83.3573 49.0654 83.4411 48.9837C83.5249 48.902 83.6281 48.8611 83.7505 48.8611C83.873 48.8611 83.9761 48.902 84.0599 48.9837C84.1437 49.0654 84.1856 49.166 84.1856 49.2854C84.1856 49.4049 84.1437 49.5055 84.0599 49.5872C83.9761 49.6689 83.873 49.7098 83.7505 49.7098ZM82.1068 49.7098C81.9843 49.7098 81.8812 49.6689 81.7974 49.5872C81.7136 49.5055 81.6717 49.4049 81.6717 49.2854C81.6717 49.166 81.7136 49.0654 81.7974 48.9837C81.8812 48.902 81.9843 48.8611 82.1068 48.8611C82.2293 48.8611 82.3324 48.902 82.4162 48.9837C82.5 49.0654 82.5419 49.166 82.5419 49.2854C82.5419 49.4049 82.5 49.5055 82.4162 49.5872C82.3324 49.6689 82.2293 49.7098 82.1068 49.7098Z" fill="#F8F8F8"/>
<path d="M89.5922 54.7077C89.3472 54.7077 89.1152 54.6763 88.896 54.6134C88.6768 54.5443 88.506 54.45 88.3835 54.3305C88.2611 54.2111 88.1902 54.0853 88.1708 53.9533C88.1515 53.8213 88.1418 53.6956 88.1418 53.5761H88.3352C88.361 53.7647 88.4706 53.9376 88.6639 54.0948C88.8638 54.2519 89.1087 54.3305 89.3988 54.3305C89.6438 54.3305 89.8339 54.2677 89.9693 54.1419C90.1047 54.0162 90.1723 53.859 90.1723 53.6704C90.1723 53.463 90.1047 53.2901 89.9693 53.1518C89.8404 53.0072 89.676 52.8783 89.4762 52.7651C89.2828 52.6457 89.0862 52.5231 88.8863 52.3974C88.6865 52.2716 88.5189 52.1239 88.3835 51.9541C88.2546 51.7781 88.1902 51.5644 88.1902 51.3129C88.1902 51.1054 88.2256 50.9357 88.2965 50.8037C88.3739 50.6654 88.4673 50.5491 88.5769 50.4548C88.6865 50.3542 88.7961 50.2599 88.9057 50.1719C89.0217 50.0776 89.1152 49.9738 89.1861 49.8607C89.2634 49.7412 89.3021 49.5966 89.3021 49.4269C89.3021 49.188 89.228 49.0025 89.0797 48.8705C88.9379 48.7385 88.722 48.6725 88.4319 48.6725C88.116 48.6725 87.8743 48.7605 87.7067 48.9365C87.5456 49.1063 87.465 49.4269 87.465 49.8984V54.6134H86.5948V49.8984C86.5948 49.4583 86.6818 49.1251 86.8558 48.8988C87.0299 48.6662 87.2587 48.509 87.5423 48.4273C87.8324 48.3393 88.145 48.2953 88.4802 48.2953C89.0153 48.2953 89.4214 48.3833 89.6985 48.5593C89.9822 48.7291 90.124 48.9554 90.124 49.2383C90.124 49.4458 90.0853 49.6186 90.008 49.7569C89.9371 49.889 89.8468 50.0053 89.7372 50.1059C89.6276 50.2002 89.5148 50.2945 89.3988 50.3888C89.2892 50.4768 89.1958 50.5805 89.1184 50.7C89.0475 50.8131 89.012 50.9546 89.012 51.1243C89.012 51.3318 89.0765 51.5078 89.2054 51.6524C89.3408 51.7907 89.5084 51.9196 89.7082 52.039C89.908 52.1522 90.1046 52.2716 90.298 52.3974C90.4979 52.5231 90.6622 52.6708 90.7912 52.8406C90.9265 53.0103 90.9942 53.2241 90.9942 53.4818C90.9942 53.7647 90.933 53.9973 90.8105 54.1796C90.6945 54.362 90.5301 54.4971 90.3174 54.5851C90.1111 54.6669 89.8694 54.7077 89.5922 54.7077Z" fill="#F8F8F8"/>
<path d="M94.0082 54.7077C93.557 54.7077 93.1799 54.604 92.8769 54.3965C92.5804 54.1891 92.3548 53.9093 92.2001 53.5573C92.0518 53.2052 91.9777 52.8186 91.9777 52.3974C91.9777 51.9699 92.055 51.5832 92.2097 51.2375C92.3644 50.8854 92.5868 50.6057 92.8769 50.3982C93.167 50.1907 93.5118 50.087 93.9115 50.087C94.3498 50.087 94.7108 50.1687 94.9944 50.3322C95.2845 50.4893 95.4972 50.722 95.6326 51.03C95.7744 51.3381 95.8453 51.7153 95.8453 52.1616L95.826 52.5388H92.8962C92.8962 53.0543 93.009 53.4818 93.2346 53.8213C93.4667 54.1608 93.789 54.3305 94.2016 54.3305C94.5174 54.3305 94.7785 54.2645 94.9848 54.1325C95.1975 54.0005 95.3876 53.815 95.5552 53.5761L95.7486 53.7176C95.6068 53.9565 95.4457 54.1482 95.2652 54.2928C95.0911 54.4374 94.8977 54.5443 94.685 54.6134C94.4787 54.6763 94.2531 54.7077 94.0082 54.7077ZM92.8962 52.1616H94.9268C94.9268 51.6147 94.8429 51.1966 94.6753 50.9074C94.5077 50.6119 94.2531 50.4642 93.9115 50.4642C93.7181 50.4642 93.5441 50.5396 93.3894 50.6905C93.2411 50.8351 93.1218 51.0363 93.0316 51.294C92.9413 51.5455 92.8962 51.8347 92.8962 52.1616Z" fill="#F8F8F8"/>
<path d="M100.102 54.6134V51.3129C100.102 51.03 100.061 50.8037 99.9767 50.6339C99.8994 50.4579 99.7157 50.3699 99.4256 50.3699H99.2322V50.1813H100.102C100.328 50.1813 100.502 50.2096 100.625 50.2662C100.754 50.3227 100.844 50.4328 100.895 50.5962C100.947 50.7597 100.973 50.9986 100.973 51.3129V54.6134H100.102ZM100.47 49.6155C100.322 49.6155 100.193 49.5558 100.083 49.4363C99.98 49.3169 99.9284 49.1754 99.9284 49.012C99.9284 48.88 99.9671 48.7762 100.044 48.7008C100.128 48.6253 100.238 48.5876 100.373 48.5876C100.521 48.5876 100.647 48.6473 100.75 48.7668C100.86 48.8862 100.915 49.0277 100.915 49.1911C100.915 49.3232 100.873 49.4269 100.789 49.5023C100.712 49.5778 100.605 49.6155 100.47 49.6155Z" fill="#F8F8F8"/>
<path d="M102.772 54.6134V51.3129C102.772 51.03 102.73 50.8037 102.646 50.6339C102.569 50.4579 102.385 50.3699 102.095 50.3699H101.902V50.1813H102.772C103.017 50.1813 103.201 50.2159 103.323 50.285C103.452 50.3479 103.542 50.4391 103.594 50.5585C103.723 50.4516 103.9 50.3479 104.126 50.2473C104.351 50.1404 104.609 50.087 104.899 50.087C105.176 50.087 105.437 50.1341 105.682 50.2284C105.934 50.3227 106.14 50.4925 106.301 50.7377C106.462 50.9766 106.543 51.3255 106.543 51.7844V54.6134H105.673V51.7844C105.673 51.4701 105.621 51.2217 105.518 51.0394C105.415 50.8508 105.283 50.7157 105.122 50.6339C104.96 50.5522 104.79 50.5114 104.609 50.5114C104.416 50.5114 104.235 50.5616 104.068 50.6622C103.907 50.7628 103.765 50.8791 103.642 51.0111V54.6134H102.772Z" fill="#F8F8F8"/>
<path d="M112.566 56.4994C112.167 56.4994 111.806 56.4523 111.483 56.358C111.161 56.2637 110.906 56.1097 110.72 55.8959C110.533 55.6822 110.439 55.3961 110.439 55.0378C110.439 54.8303 110.487 54.648 110.584 54.4908C110.681 54.3274 110.81 54.1891 110.971 54.0759C111.132 53.9627 111.309 53.8747 111.503 53.8119C111.406 53.7616 111.316 53.6924 111.232 53.6044C111.155 53.5101 111.116 53.3907 111.116 53.2461C111.116 53.1015 111.155 52.9915 111.232 52.916C111.309 52.8406 111.383 52.7777 111.454 52.7274C111.261 52.6331 111.09 52.4822 110.942 52.2748C110.8 52.0673 110.729 51.8096 110.729 51.5015C110.729 51.1369 110.81 50.854 110.971 50.6528C111.139 50.4453 111.361 50.3007 111.638 50.219C111.922 50.131 112.231 50.087 112.566 50.087H114.355V50.3227L113.727 50.417C113.907 50.5239 114.065 50.6717 114.2 50.8603C114.336 51.0489 114.403 51.2626 114.403 51.5015C114.403 51.8598 114.32 52.1427 114.152 52.3502C113.991 52.5577 113.772 52.7054 113.495 52.7934C113.217 52.8751 112.908 52.916 112.566 52.916C112.231 52.916 111.977 52.9443 111.802 53.0009C111.635 53.0575 111.551 53.1392 111.551 53.2461C111.551 53.3529 111.635 53.4347 111.802 53.4912C111.977 53.5478 112.231 53.5761 112.566 53.5761C112.953 53.5761 113.308 53.6264 113.63 53.727C113.952 53.8276 114.21 53.9848 114.403 54.1985C114.597 54.4122 114.694 54.692 114.694 55.0378C114.694 55.3961 114.6 55.6822 114.413 55.8959C114.226 56.1097 113.972 56.2637 113.649 56.358C113.327 56.4523 112.966 56.4994 112.566 56.4994ZM112.566 56.1222C112.934 56.1222 113.233 56.0342 113.466 55.8582C113.704 55.6884 113.823 55.415 113.823 55.0378C113.823 54.7234 113.727 54.4751 113.533 54.2928C113.34 54.1105 113.05 53.9973 112.663 53.9533L112.131 53.9062C111.886 54.0005 111.686 54.1356 111.532 54.3117C111.383 54.4877 111.309 54.7297 111.309 55.0378C111.309 55.415 111.425 55.6884 111.657 55.8582C111.896 56.0342 112.199 56.1222 112.566 56.1222ZM112.566 52.586C112.831 52.586 113.056 52.5074 113.243 52.3502C113.437 52.1868 113.533 51.9039 113.533 51.5015C113.533 51.1243 113.44 50.8508 113.253 50.6811C113.066 50.5051 112.837 50.417 112.566 50.417C112.302 50.417 112.073 50.4988 111.88 50.6622C111.693 50.8194 111.599 51.0992 111.599 51.5015C111.599 51.9039 111.693 52.1868 111.88 52.3502C112.073 52.5074 112.302 52.586 112.566 52.586Z" fill="#F8F8F8"/>
<path d="M117.586 54.7077C117.316 54.7077 117.055 54.6606 116.803 54.5663C116.552 54.472 116.346 54.3022 116.184 54.057C116.023 53.8119 115.943 53.463 115.943 53.0103V51.3129C115.943 51.03 115.901 50.8037 115.817 50.6339C115.74 50.4579 115.556 50.3699 115.266 50.3699H115.169V50.1813H115.943C116.168 50.1813 116.342 50.2096 116.465 50.2662C116.594 50.3227 116.684 50.4328 116.736 50.5962C116.787 50.7597 116.813 50.9986 116.813 51.3129V53.0103C116.813 53.3246 116.864 53.5761 116.968 53.7647C117.071 53.947 117.203 54.0791 117.364 54.1608C117.532 54.2425 117.702 54.2834 117.876 54.2834C118.005 54.2834 118.128 54.2614 118.244 54.2174C118.36 54.1671 118.47 54.1042 118.573 54.0288C118.676 53.9533 118.766 53.8716 118.843 53.7836V50.1813H119.714V54.6134H119.23L118.892 54.2362H118.843C118.721 54.3557 118.553 54.4657 118.341 54.5663C118.128 54.6606 117.876 54.7077 117.586 54.7077Z" fill="#F8F8F8"/>
<path d="M122.742 54.7077C122.4 54.7077 122.12 54.6103 121.9 54.4154C121.688 54.2205 121.581 53.9093 121.581 53.4818V50.5585H120.904V50.1813H121.581V49.3326L122.065 48.7668H122.451V50.1813H123.612V50.5585H122.451V53.4818C122.451 53.7647 122.506 53.9785 122.616 54.1231C122.732 54.2614 122.903 54.3305 123.128 54.3305C123.296 54.3305 123.435 54.3117 123.544 54.2739C123.654 54.2362 123.757 54.1922 123.854 54.1419L123.95 54.3305C123.847 54.406 123.705 54.4877 123.525 54.5757C123.344 54.6637 123.083 54.7077 122.742 54.7077Z" fill="#F8F8F8"/>
<path d="M126.724 54.7077C126.273 54.7077 125.896 54.604 125.593 54.3965C125.296 54.1891 125.071 53.9093 124.916 53.5573C124.768 53.2052 124.694 52.8186 124.694 52.3974C124.694 51.9699 124.771 51.5832 124.926 51.2375C125.08 50.8854 125.303 50.6057 125.593 50.3982C125.883 50.1907 126.228 50.087 126.627 50.087C127.066 50.087 127.427 50.1687 127.71 50.3322C128 50.4893 128.213 50.722 128.349 51.03C128.49 51.3381 128.561 51.7153 128.561 52.1616L128.542 52.5388H125.612C125.612 53.0543 125.725 53.4818 125.951 53.8213C126.183 54.1608 126.505 54.3305 126.918 54.3305C127.233 54.3305 127.494 54.2645 127.701 54.1325C127.913 54.0005 128.104 53.815 128.271 53.5761L128.465 53.7176C128.323 53.9565 128.162 54.1482 127.981 54.2928C127.807 54.4374 127.614 54.5443 127.401 54.6134C127.195 54.6763 126.969 54.7077 126.724 54.7077ZM125.612 52.1616H127.643C127.643 51.6147 127.559 51.1966 127.391 50.9074C127.224 50.6119 126.969 50.4642 126.627 50.4642C126.434 50.4642 126.26 50.5396 126.105 50.6905C125.957 50.8351 125.838 51.0363 125.748 51.294C125.657 51.5455 125.612 51.8347 125.612 52.1616Z" fill="#F8F8F8"/>
<path d="M130.111 54.6134V51.3129C130.111 51.03 130.069 50.8037 129.985 50.6339C129.908 50.4579 129.724 50.3699 129.434 50.3699H129.241V50.1813H130.111C130.356 50.1813 130.54 50.2159 130.662 50.285C130.791 50.3479 130.881 50.4391 130.933 50.5585C131.062 50.4516 131.239 50.3479 131.465 50.2473C131.69 50.1404 131.948 50.087 132.238 50.087C132.515 50.087 132.777 50.1341 133.021 50.2284C133.273 50.3227 133.479 50.4925 133.64 50.7377C133.801 50.9766 133.882 51.3255 133.882 51.7844V54.6134H133.012V51.7844C133.012 51.4701 132.96 51.2217 132.857 51.0394C132.754 50.8508 132.622 50.7157 132.461 50.6339C132.3 50.5522 132.129 50.5114 131.948 50.5114C131.755 50.5114 131.574 50.5616 131.407 50.6622C131.246 50.7628 131.104 50.8791 130.981 51.0111V54.6134H130.111Z" fill="#F8F8F8"/>
<path d="M138.552 54.6134V49.5212C138.552 49.2383 138.51 49.012 138.426 48.8422C138.349 48.6662 138.165 48.5782 137.875 48.5782H137.681V48.3896H138.552C138.777 48.3896 138.951 48.4179 139.074 48.4745C139.203 48.531 139.293 48.6411 139.345 48.8045C139.396 48.968 139.422 49.2069 139.422 49.5212V51.2186H142.323V48.3896H143.193V53.4818C143.193 53.7647 143.232 53.9942 143.309 54.1702C143.393 54.3399 143.58 54.4248 143.87 54.4248H144.063V54.6134H143.193C142.967 54.6134 142.79 54.5851 142.661 54.5286C142.539 54.472 142.452 54.362 142.4 54.1985C142.348 54.035 142.323 53.7962 142.323 53.4818V51.5958H139.422V54.6134H138.552Z" fill="#F8F8F8"/>
<path d="M146.3 54.7077C146.165 54.7077 146.017 54.6857 145.855 54.6417C145.701 54.604 145.549 54.5348 145.401 54.4343C145.253 54.3337 145.13 54.1985 145.033 54.0288C144.943 53.859 144.898 53.6453 144.898 53.3875C144.898 53.0417 145.011 52.7746 145.237 52.586C145.469 52.3974 145.772 52.2653 146.145 52.1899C146.526 52.1082 146.932 52.0673 147.364 52.0673H147.654C147.654 51.6272 147.609 51.294 147.518 51.0677C147.428 50.8351 147.306 50.6779 147.151 50.5962C147.003 50.5082 146.832 50.4642 146.639 50.4642C146.368 50.4642 146.139 50.5208 145.952 50.6339C145.772 50.7471 145.646 50.9577 145.575 51.2658H145.14C145.14 51.1023 145.15 50.9514 145.169 50.8131C145.188 50.6685 145.259 50.5365 145.382 50.417C145.504 50.2976 145.704 50.2127 145.981 50.1624C146.258 50.1121 146.542 50.087 146.832 50.087C147.051 50.087 147.261 50.1121 147.46 50.1624C147.667 50.2127 147.847 50.307 148.002 50.4453C148.163 50.5774 148.289 50.7754 148.379 51.0394C148.476 51.2972 148.524 51.6398 148.524 52.0673V54.6134H148.041L147.702 54.1891H147.654C147.557 54.3085 147.399 54.4248 147.18 54.538C146.961 54.6511 146.668 54.7077 146.3 54.7077ZM146.735 54.2834C146.974 54.2834 147.161 54.2268 147.296 54.1136C147.438 53.9942 147.557 53.8622 147.654 53.7176V52.4445H147.364C146.88 52.4445 146.5 52.5325 146.223 52.7086C145.952 52.8783 145.817 53.1046 145.817 53.3875C145.817 53.6956 145.91 53.9219 146.097 54.0665C146.284 54.2111 146.497 54.2834 146.735 54.2834ZM147.654 49.5683C147.531 49.5683 147.428 49.5275 147.344 49.4458C147.261 49.364 147.219 49.2634 147.219 49.144C147.219 49.0245 147.261 48.924 147.344 48.8422C147.428 48.7605 147.531 48.7196 147.654 48.7196C147.776 48.7196 147.879 48.7605 147.963 48.8422C148.047 48.924 148.089 49.0245 148.089 49.144C148.089 49.2634 148.047 49.364 147.963 49.4458C147.879 49.5275 147.776 49.5683 147.654 49.5683ZM146.01 49.5683C145.888 49.5683 145.784 49.5275 145.701 49.4458C145.617 49.364 145.575 49.2634 145.575 49.144C145.575 49.0245 145.617 48.924 145.701 48.8422C145.784 48.7605 145.888 48.7196 146.01 48.7196C146.133 48.7196 146.236 48.7605 146.319 48.8422C146.403 48.924 146.445 49.0245 146.445 49.144C146.445 49.2634 146.403 49.364 146.319 49.4458C146.236 49.5275 146.133 49.5683 146.01 49.5683Z" fill="#F8F8F8"/>
<path d="M150.307 54.6134V51.3129C150.307 51.03 150.266 50.8037 150.182 50.6339C150.104 50.4579 149.921 50.3699 149.631 50.3699H149.437V50.1813H150.307C150.552 50.1813 150.736 50.2159 150.859 50.285C150.988 50.3479 151.078 50.4391 151.129 50.5585C151.258 50.4516 151.436 50.3479 151.661 50.2473C151.887 50.1404 152.145 50.087 152.435 50.087C152.712 50.087 152.973 50.1341 153.218 50.2284C153.469 50.3227 153.676 50.4925 153.837 50.7377C153.998 50.9766 154.078 51.3255 154.078 51.7844V54.6134H153.208V51.7844C153.208 51.4701 153.157 51.2217 153.053 51.0394C152.95 50.8508 152.818 50.7157 152.657 50.6339C152.496 50.5522 152.325 50.5114 152.145 50.5114C151.951 50.5114 151.771 50.5616 151.603 50.6622C151.442 50.7628 151.3 50.8791 151.178 51.0111V54.6134H150.307Z" fill="#F8F8F8"/>
<path d="M157.211 54.7077C156.824 54.7077 156.502 54.604 156.244 54.3965C155.986 54.1891 155.793 53.9093 155.664 53.5573C155.535 53.2052 155.47 52.8186 155.47 52.3974C155.47 51.9699 155.535 51.5832 155.664 51.2375C155.799 50.8854 156.002 50.6057 156.273 50.3982C156.544 50.1907 156.888 50.087 157.307 50.087C157.578 50.087 157.81 50.1184 158.004 50.1813C158.197 50.2379 158.368 50.3007 158.516 50.3699V49.5212C158.516 49.2383 158.474 49.012 158.39 48.8422C158.313 48.6662 158.129 48.5782 157.839 48.5782H157.646V48.3896H158.516C158.742 48.3896 158.916 48.4179 159.038 48.4745C159.167 48.531 159.257 48.6411 159.309 48.8045C159.36 48.968 159.386 49.2069 159.386 49.5212V54.6134H158.903L158.564 54.1891H158.516C158.413 54.3085 158.268 54.4248 158.081 54.538C157.894 54.6511 157.604 54.7077 157.211 54.7077ZM157.501 54.3305C157.701 54.3305 157.862 54.3022 157.984 54.2456C158.107 54.1891 158.207 54.1199 158.284 54.0382C158.368 53.9502 158.445 53.859 158.516 53.7647V50.7471C158.368 50.6779 158.213 50.6151 158.052 50.5585C157.897 50.4956 157.746 50.4642 157.597 50.4642C157.307 50.4642 157.072 50.5522 156.892 50.7282C156.718 50.898 156.589 51.1274 156.505 51.4166C156.427 51.7058 156.389 52.0327 156.389 52.3974C156.389 52.7557 156.427 53.0826 156.505 53.3781C156.582 53.6673 156.701 53.8999 156.863 54.0759C157.03 54.2456 157.243 54.3305 157.501 54.3305Z" fill="#F8F8F8"/>
<path d="M162.842 54.7077C162.391 54.7077 162.014 54.604 161.711 54.3965C161.414 54.1891 161.189 53.9093 161.034 53.5573C160.886 53.2052 160.812 52.8186 160.812 52.3974C160.812 51.9699 160.889 51.5832 161.044 51.2375C161.198 50.8854 161.421 50.6057 161.711 50.3982C162.001 50.1907 162.346 50.087 162.745 50.087C163.184 50.087 163.545 50.1687 163.828 50.3322C164.118 50.4893 164.331 50.722 164.467 51.03C164.608 51.3381 164.679 51.7153 164.679 52.1616L164.66 52.5388H161.73C161.73 53.0543 161.843 53.4818 162.069 53.8213C162.301 54.1608 162.623 54.3305 163.036 54.3305C163.351 54.3305 163.612 54.2645 163.819 54.1325C164.031 54.0005 164.222 53.815 164.389 53.5761L164.583 53.7176C164.441 53.9565 164.28 54.1482 164.099 54.2928C163.925 54.4374 163.732 54.5443 163.519 54.6134C163.313 54.6763 163.087 54.7077 162.842 54.7077ZM161.73 52.1616H163.761C163.761 51.6147 163.677 51.1966 163.509 50.9074C163.342 50.6119 163.087 50.4642 162.745 50.4642C162.552 50.4642 162.378 50.5396 162.223 50.6905C162.075 50.8351 161.956 51.0363 161.866 51.294C161.775 51.5455 161.73 51.8347 161.73 52.1616Z" fill="#F8F8F8"/>
<path d="M166.229 54.6134V51.3129C166.229 51.03 166.187 50.8037 166.103 50.6339C166.026 50.4579 165.842 50.3699 165.552 50.3699H165.359V50.1813H166.229C166.474 50.1813 166.658 50.2159 166.78 50.285C166.909 50.3479 166.999 50.4391 167.051 50.5585C167.18 50.4516 167.357 50.3479 167.583 50.2473C167.808 50.1404 168.066 50.087 168.356 50.087C168.633 50.087 168.894 50.1341 169.139 50.2284C169.391 50.3227 169.597 50.4925 169.758 50.7377C169.919 50.9766 170 51.3255 170 51.7844V54.6134H169.13V51.7844C169.13 51.4701 169.078 51.2217 168.975 51.0394C168.872 50.8508 168.74 50.7157 168.579 50.6339C168.417 50.5522 168.247 50.5114 168.066 50.5114C167.873 50.5114 167.692 50.5616 167.525 50.6622C167.364 50.7628 167.222 50.8791 167.099 51.0111V54.6134H166.229Z" fill="#F8F8F8"/>
<path d="M15.5468 3.27183C15.6134 3.52056 15.6578 3.58484 15.8136 3.65747C15.9917 3.74049 16.2802 3.70268 16.3842 3.54801C16.4882 3.39334 16.578 3.15127 16.5002 2.96263C16.4474 2.83461 16.2778 2.64126 16.0404 2.60312C15.8576 2.57375 15.7639 2.62297 15.6409 2.74067C15.5292 2.84753 15.515 2.94955 15.5039 3.00964C15.4932 3.06681 15.5426 3.25629 15.5468 3.27183Z" fill="#A6412B"/>
<path d="M17.2005 2.42115C17.2346 2.71821 17.3402 2.90894 17.5623 2.99164C17.8399 3.095 17.9525 3.04342 18.0962 2.91496C18.2429 2.78382 18.3639 2.38669 18.3412 2.2682C18.3241 2.17833 18.2525 1.83501 17.9339 1.76537C17.7395 1.72288 17.4949 1.71185 17.3787 1.83029C17.2858 1.92487 17.2013 2.05054 17.1878 2.13584C17.1775 2.20045 17.1999 2.40756 17.2005 2.42115Z" fill="#A6412B"/>
<path d="M19.3643 1.26858C19.633 1.15166 19.7763 1.17766 20.0304 1.27799C20.2663 1.37115 20.3112 1.51236 20.3575 1.61739C20.4038 1.72242 20.4657 2.02158 20.2234 2.3385C19.981 2.65542 19.6749 2.63242 19.5576 2.56776C19.4403 2.50309 19.1867 2.33679 19.1391 2.12502C19.0915 1.91326 19.0717 1.70359 19.1089 1.60483C19.1349 1.53574 19.2816 1.30455 19.3643 1.26858Z" fill="#A6412B"/>
<path d="M21.8998 1.063C21.8363 1.07042 21.7388 1.10676 21.5624 1.19507C21.3861 1.28337 21.1183 1.75486 21.1287 1.88351C21.1365 1.98057 21.1354 2.11251 21.2202 2.22552C21.302 2.33445 21.3797 2.37967 21.5076 2.45021C21.625 2.51495 21.8079 2.56011 21.8387 2.56649C21.9285 2.58508 22.1091 2.60559 22.207 2.584C22.3099 2.56127 22.3939 2.50157 22.4868 2.40699L22.7468 2.02031C22.7859 1.96231 22.8163 1.81565 22.8111 1.75094C22.8085 1.71859 22.8049 1.626 22.7931 1.58203C22.7806 1.53539 22.7408 1.42069 22.7219 1.38372C22.6965 1.33443 22.6051 1.25308 22.5411 1.21781C22.4771 1.18254 22.4238 1.15314 22.2444 1.09396C22.1127 1.06376 21.9632 1.05558 21.8998 1.063Z" fill="#A6412B"/>
<path d="M26.6852 2.64115C26.8121 2.48143 27.0542 2.07072 27.0074 1.70567C26.9488 1.24936 26.7584 0.94563 26.4729 0.76169C26.1873 0.57775 25.5223 0.436393 25.1382 0.5294C24.754 0.622406 24.3517 0.851144 24.126 1.23025C23.9003 1.60935 23.751 2.03702 23.7513 2.30903C23.7515 2.5477 23.9147 2.93537 24.15 3.08541C24.3034 3.18325 24.7638 3.4768 25.2439 3.4367C25.7239 3.39661 26.059 3.2531 26.1819 3.17205C26.3133 3.08544 26.5486 2.84416 26.6852 2.64115Z" fill="#A6412B"/>
<path d="M19.6536 3.70729C19.0311 3.79255 18.0401 4.06338 17.546 4.25476C17.0518 4.44613 16.0566 4.90452 15.7892 5.12816C15.5219 5.35181 14.9437 6.1462 14.8595 7.05385C14.7921 7.77998 14.8323 8.51419 14.8608 8.79053C14.8645 9.05315 14.8649 9.64084 14.8372 9.89061C14.8026 10.2028 14.4705 11.8634 14.4105 12.1334C14.3528 12.3931 14.0173 13.6525 14.0028 13.8698C13.9894 14.0696 13.9916 15.0165 14.827 15.5566C15.6624 16.0966 16.6402 15.9467 16.9687 15.8495C17.2972 15.7523 18.7177 15.4223 19.2461 14.1367C19.4593 13.6182 19.6513 13.2735 19.7763 12.3486C19.9014 11.4237 20.8805 9.75053 21.1123 9.42774C21.344 9.10494 21.6477 8.60983 22.2896 8.15536C22.9314 7.70089 23.5428 7.03087 23.6853 6.88416C23.8257 6.73969 24.4515 5.8754 24.5129 5.69722C24.5799 5.50244 25.1789 4.62 23.3612 3.97568C21.9071 3.46022 20.3232 3.53756 19.6536 3.70729Z" fill="#DF6347"/>
<path d="M29.4094 18.0018C29.1348 18.0624 29.0513 18.0561 28.9085 17.9642C28.7453 17.8591 28.65 17.6096 28.754 17.4549C28.858 17.3003 29.0544 17.117 29.2752 17.093C29.425 17.0766 29.6926 17.1243 29.839 17.2978C29.9517 17.4313 29.9464 17.5293 29.8874 17.6823C29.8338 17.8212 29.7402 17.8794 29.6864 17.916C29.6352 17.9508 29.4266 17.998 29.4094 18.0018Z" fill="#A6412B"/>
<path d="M29.4851 16.2811C29.1779 16.39 28.9423 16.3926 28.7592 16.2519C28.5303 16.0761 28.5293 15.9618 28.5894 15.7873C28.6507 15.6091 28.9849 15.3295 29.1115 15.2933C29.2076 15.2659 29.5773 15.1658 29.7919 15.3901C29.9229 15.527 30.0459 15.7187 29.9831 15.8666C29.9329 15.9847 29.8484 16.1103 29.7709 16.1604C29.7122 16.1983 29.4987 16.2753 29.4851 16.2811Z" fill="#A6412B"/>
<path d="M29.6228 14.0115C29.6142 13.7418 29.5229 13.6384 29.3079 13.4801C29.1082 13.3331 28.949 13.3617 28.8246 13.3727C28.7003 13.3837 28.3784 13.4712 28.1786 13.8116C27.9789 14.1521 28.142 14.3877 28.2593 14.4524C28.3766 14.5171 28.6562 14.6447 28.8858 14.5858C29.1154 14.5269 29.3303 14.4465 29.4101 14.3713C29.466 14.3187 29.6255 14.0945 29.6228 14.0115Z" fill="#A6412B"/>
<path d="M28.6607 11.8777C28.6826 11.9322 28.6917 12.0273 28.686 12.2097C28.6803 12.392 28.3405 12.8239 28.2096 12.8746C28.1107 12.9129 27.9817 12.9743 27.8319 12.9579C27.6875 12.9422 27.6075 12.9004 27.4795 12.8299C27.3621 12.7652 27.2339 12.6388 27.2135 12.617C27.154 12.5532 27.051 12.4174 27.0272 12.3288C27.0023 12.2355 27.0223 12.1405 27.0725 12.0224L27.3325 11.6357C27.3716 11.5777 27.5015 11.486 27.5674 11.4604C27.6003 11.4477 27.6928 11.4081 27.7414 11.3973C27.7929 11.386 27.9237 11.3653 27.9687 11.3636C28.0287 11.3614 28.1505 11.3976 28.2145 11.4329C28.2784 11.4682 28.3317 11.4975 28.4722 11.6147C28.5623 11.7068 28.6389 11.8233 28.6607 11.8777Z" fill="#A6412B"/>
<path d="M24.9156 8.75283C25.0141 8.57743 25.306 8.19416 25.6857 8.06426C26.1603 7.90189 26.5457 7.91561 26.8573 8.06089C27.1689 8.20616 27.6128 8.67619 27.6979 9.02786C27.7829 9.37954 27.7431 9.80815 27.4748 10.1637C27.2064 10.5193 26.8553 10.8357 26.5882 10.9603C26.3539 11.0697 25.8986 11.1164 25.6434 10.996C25.4769 10.9175 24.9776 10.6819 24.7965 10.2774C24.6155 9.87277 24.6025 9.53737 24.6256 9.40131C24.6503 9.25591 24.7791 8.95584 24.9156 8.75283Z" fill="#A6412B"/>
<path d="M27.097 14.8982C27.2991 15.4381 27.4882 16.3595 27.5272 16.8449C27.5663 17.3302 27.5733 18.3412 27.4766 18.6589C27.3798 18.9766 26.8657 19.8062 26.0137 20.2906C25.3321 20.6781 24.5932 20.9828 24.309 21.0867C24.0496 21.2043 23.4727 21.4738 23.2403 21.6107C22.9498 21.7818 21.4728 22.8112 21.2355 22.9833C21.0071 23.149 19.9253 23.9969 19.7188 24.1084C19.5288 24.2108 18.5986 24.6437 17.6853 24.2196C16.7719 23.7956 16.4702 22.9402 16.4147 22.6313C16.3593 22.3225 16.0311 21.0284 17.05 20.0133C17.461 19.6038 17.7111 19.2911 18.5613 18.766C19.4114 18.2408 20.6038 16.6852 20.8142 16.3507C21.0246 16.0161 21.371 15.5445 21.5223 14.8196C21.6737 14.0947 22.0505 13.2954 22.129 13.1134C22.2064 12.9342 22.7672 12.0341 22.9139 11.903C23.0742 11.7596 23.6652 10.8728 25.1318 12.0391C26.3051 12.9722 26.9562 14.2817 27.097 14.8982Z" fill="#DF6347"/>
</svg>
