<svg width="170" height="60" viewBox="0 0 170 60" fill="none" xmlns="http://www.w3.org/2000/svg">
<path d="M12.1776 26.4333C12.1776 26.468 12.1254 26.494 12.021 26.5114C11.9341 26.5288 11.8819 26.5114 11.8645 26.4593C11.4471 24.4798 10.2383 23.4901 8.23812 23.4901H7.19456C6.56842 23.4901 6.12491 23.603 5.86402 23.8287C5.60313 24.0544 5.47268 24.4277 5.47268 24.9487V30.6006H7.61199C9.55997 30.6006 10.534 29.9494 10.534 28.6471C10.534 28.6124 10.5861 28.595 10.6905 28.595C10.7949 28.595 10.847 28.6124 10.847 28.6471L10.8209 30.9391C10.8209 31.4774 10.8296 31.8768 10.847 32.1372L10.8731 33.4916C10.8731 33.5437 10.8209 33.5697 10.7166 33.5697C10.6122 33.5697 10.5601 33.5437 10.5601 33.4916C10.5601 32.0157 9.55997 31.2777 7.55981 31.2777H5.47268V36.8775C5.47268 37.4332 5.54225 37.8412 5.6814 38.1017C5.82054 38.3448 6.09012 38.5184 6.49016 38.6226C6.90758 38.7268 7.54242 38.7789 8.39466 38.7789C8.42944 38.7789 8.44684 38.831 8.44684 38.9351C8.44684 39.0393 8.42944 39.0914 8.39466 39.0914C7.68156 39.0914 7.12499 39.0827 6.72496 39.0654L4.16823 39.0393L2.26373 39.0654C1.93327 39.0827 1.47236 39.0914 0.881008 39.0914C0.82883 39.0914 0.80274 39.0393 0.80274 38.9351C0.80274 38.831 0.82883 38.7789 0.881008 38.7789C1.50715 38.7789 1.95936 38.7355 2.23764 38.6486C2.53332 38.5618 2.73333 38.3969 2.83769 38.1538C2.94204 37.8933 2.99422 37.5026 2.99422 36.9817V24.9226C2.99422 24.4017 2.94204 24.0197 2.83769 23.7766C2.75072 23.5335 2.5681 23.3686 2.28982 23.2817C2.01153 23.1776 1.58541 23.1255 1.01145 23.1255C0.959275 23.1255 0.933186 23.0734 0.933186 22.9692C0.933186 22.865 0.959275 22.8129 1.01145 22.8129H11.8645C12.0384 22.8129 12.1254 22.8911 12.1254 23.0473L12.1776 26.4333Z" fill="#F8F8F8"/>
<path d="M26.1764 37.4505C26.2286 37.4505 26.2721 37.494 26.3068 37.5808C26.3416 37.6676 26.3329 37.7284 26.2807 37.7631L22.8631 39.404L22.7587 39.43C22.5848 39.43 22.4283 39.239 22.2891 38.857C22.15 38.4576 22.0717 37.928 22.0543 37.2682C20.8368 38.6747 19.5498 39.3779 18.1931 39.3779C17.2539 39.3779 16.5234 39.0914 16.0017 38.5184C15.4799 37.928 15.219 37.1293 15.219 36.1222V32.2414C15.219 31.0607 14.9494 30.4703 14.4102 30.4703C14.2363 30.4703 13.9928 30.5398 13.6797 30.6787H13.6536C13.5841 30.6787 13.5319 30.6353 13.4971 30.5485C13.4623 30.4616 13.471 30.4009 13.5232 30.3661L16.8365 28.8295L16.9409 28.8034C17.0104 28.8034 17.0887 28.8381 17.1757 28.9076C17.2626 28.977 17.3061 29.0378 17.3061 29.0899V35.0023C17.3061 36.9296 18.0366 37.8933 19.4976 37.8933C19.9324 37.8933 20.3759 37.7891 20.8281 37.5808C21.2803 37.3724 21.6891 37.0859 22.0543 36.7213V32.2414C22.0543 31.6337 21.9847 31.1909 21.8456 30.9131C21.7239 30.6179 21.5238 30.4703 21.2456 30.4703C21.089 30.4703 20.8455 30.5398 20.5151 30.6787H20.489C20.4194 30.6787 20.3672 30.6353 20.3324 30.5485C20.2977 30.4443 20.3151 30.3835 20.3846 30.3661L23.6718 28.8295C23.7066 28.8121 23.7501 28.8034 23.8023 28.8034C23.8719 28.8034 23.9501 28.8381 24.0371 28.9076C24.1241 28.977 24.1675 29.0378 24.1675 29.0899V36.1483C24.1675 36.756 24.2284 37.1814 24.3502 37.4245C24.4719 37.6676 24.6719 37.7891 24.9502 37.7891C25.1589 37.7891 25.5503 37.685 26.1242 37.4766L26.1764 37.4505Z" fill="#F8F8F8"/>
<path d="M35.8026 39.3779C34.8808 39.3779 34.046 39.1348 33.2981 38.6486C33.1937 38.5445 33.1416 38.4403 33.1416 38.3361L33.0894 35.6273C33.0894 35.5753 33.1329 35.5492 33.2198 35.5492C33.3242 35.5318 33.3851 35.5492 33.4025 35.6013C33.7677 36.5216 34.246 37.2943 34.8373 37.9194C35.4461 38.5271 36.0027 38.831 36.507 38.831C36.8897 38.831 37.1941 38.6747 37.4202 38.3621C37.6463 38.0322 37.7593 37.6329 37.7593 37.164C37.7593 36.6952 37.655 36.2611 37.4463 35.8618C37.2375 35.445 36.994 35.0804 36.7158 34.7678C36.4375 34.4553 36.0201 34.0299 35.4635 33.4916C34.6982 32.7623 34.1156 32.1286 33.7155 31.5903C33.3329 31.0346 33.1416 30.4182 33.1416 29.741C33.1416 29.2896 33.2285 28.8729 33.4025 28.4909C33.5764 28.1089 33.846 27.6574 34.2112 27.1365C34.6286 26.5114 34.9417 25.9558 35.1504 25.4696C35.3765 24.966 35.4896 24.393 35.4896 23.7506C35.4896 22.9171 35.2983 22.1878 34.9156 21.5627C34.5504 20.9376 33.9938 20.6251 33.2459 20.6251C32.2893 20.6251 31.5762 21.2241 31.1066 22.4222C30.6544 23.603 30.4283 25.2873 30.4283 27.4751V36.9817C30.4283 37.5026 30.4631 37.8933 30.5327 38.1538C30.6022 38.3969 30.7414 38.5618 30.9501 38.6486C31.1588 38.7355 31.4893 38.7789 31.9415 38.7789C31.9762 38.7789 31.9936 38.831 31.9936 38.9351C31.9936 39.0393 31.9762 39.0914 31.9415 39.0914L29.3847 39.0654L26.6715 39.0914C26.6193 39.0914 26.5932 39.0393 26.5932 38.9351C26.5932 38.831 26.6193 38.7789 26.6715 38.7789C27.1411 38.7789 27.4802 38.7355 27.6889 38.6486C27.9151 38.5445 28.0716 38.3708 28.1585 38.1277C28.2455 37.8846 28.289 37.5026 28.289 36.9817L28.2629 27.423C28.2629 25.0963 28.7673 23.3078 29.7761 22.0576C30.8022 20.8074 32.2893 20.1823 34.2373 20.1823C35.3852 20.1823 36.2722 20.4167 36.8984 20.8855C37.5419 21.337 37.8637 21.9447 37.8637 22.7087C37.8637 23.3165 37.7071 23.8374 37.3941 24.2715C37.081 24.6882 36.6201 25.157 36.0114 25.6779C35.4896 26.1468 35.0982 26.5461 34.8373 26.876C34.5939 27.1886 34.4721 27.5619 34.4721 27.996C34.4721 28.5343 34.6721 29.0639 35.0722 29.5848C35.4722 30.0883 36.0809 30.7308 36.8984 31.5121C37.8376 32.4151 38.542 33.1791 39.0116 33.8042C39.4812 34.4119 39.716 35.0717 39.716 35.7836C39.716 36.374 39.5421 36.947 39.1942 37.5026C38.8638 38.0583 38.3942 38.5097 37.7854 38.857C37.1941 39.2043 36.5331 39.3779 35.8026 39.3779Z" fill="#F8F8F8"/>
<path d="M47.1208 39.43C46.286 39.43 45.4772 39.2998 44.6945 39.0393V44.1443C44.6945 44.6652 44.7554 45.0472 44.8772 45.2903C44.9989 45.5334 45.225 45.6983 45.5555 45.7851C45.8859 45.8893 46.4077 45.9414 47.1208 45.9414C47.1556 45.9414 47.173 45.9935 47.173 46.0977C47.173 46.2019 47.1556 46.2539 47.1208 46.2539C46.4947 46.2539 46.0077 46.2453 45.6598 46.2279L43.6249 46.2019L42.1378 46.2279C41.8769 46.2453 41.5204 46.2539 41.0682 46.2539C41.016 46.2539 40.9899 46.2019 40.9899 46.0977C40.9899 45.9935 41.016 45.9414 41.0682 45.9414C41.503 45.9414 41.8247 45.8893 42.0334 45.7851C42.2422 45.6983 42.3813 45.5334 42.4509 45.2903C42.5378 45.0472 42.5813 44.6652 42.5813 44.1443V32.0331C42.5813 31.4601 42.5117 31.0433 42.3726 30.7829C42.2509 30.5224 42.0334 30.3922 41.7204 30.3922C41.4247 30.3922 41.0073 30.5137 40.4681 30.7568H40.4159C40.3464 30.7568 40.2942 30.7221 40.2594 30.6526C40.2246 30.5658 40.2246 30.5051 40.2594 30.4703L43.7031 28.8295C43.7379 28.8121 43.7901 28.8034 43.8597 28.8034C44.051 28.8034 44.2249 28.9684 44.3815 29.2983C44.538 29.6108 44.6337 30.0449 44.6684 30.6006C46.0077 29.333 47.3643 28.6992 48.7383 28.6992C49.4688 28.6992 50.1471 28.8902 50.7733 29.2722C51.3994 29.6542 51.8951 30.2099 52.2604 30.9391C52.643 31.6684 52.8343 32.5192 52.8343 33.4916C52.8343 34.8633 52.5386 35.992 51.9473 36.8775C51.3733 37.7631 50.6515 38.4142 49.7819 38.831C48.9123 39.2303 48.0252 39.43 47.1208 39.43ZM47.2252 30.0015C46.3381 30.0015 45.4946 30.3748 44.6945 31.1215V37.3984C45.112 37.8499 45.5468 38.1972 45.999 38.4403C46.4686 38.6834 47.0339 38.8049 47.6948 38.8049C48.5644 38.8049 49.2514 38.4316 49.7558 37.6849C50.2602 36.9209 50.5124 35.7923 50.5124 34.299C50.5124 32.9273 50.1993 31.8681 49.5732 31.1215C48.947 30.3748 48.1644 30.0015 47.2252 30.0015Z" fill="#F8F8F8"/>
<path d="M67.6717 38.7789C67.7238 38.7789 67.7499 38.831 67.7499 38.9351C67.7499 39.0393 67.7238 39.0914 67.6717 39.0914C67.2368 39.0914 66.889 39.0827 66.6281 39.0654L65.0888 39.0393L63.6018 39.0654C63.3409 39.0827 62.993 39.0914 62.5582 39.0914C62.506 39.0914 62.4799 39.0393 62.4799 38.9351C62.4799 38.831 62.506 38.7789 62.5582 38.7789C63.1322 38.7789 63.5148 38.6573 63.7061 38.4142C63.9148 38.1711 64.0192 37.6936 64.0192 36.9817V22.7087C63.6192 22.0316 63.1669 21.5193 62.6626 21.1721C62.1756 20.8074 61.6538 20.6251 61.0972 20.6251C60.1406 20.6251 59.3927 21.1894 58.8536 22.3181C58.3144 23.4467 58.0448 25.2265 58.0448 27.6574V29.2722C58.9492 29.2549 59.958 29.1767 61.0711 29.0378C61.1233 29.0378 61.1668 29.1073 61.2016 29.2462C61.2364 29.3677 61.2537 29.5066 61.2537 29.6629C61.2537 29.8365 61.219 30.0102 61.1494 30.1838C61.0972 30.3401 61.045 30.4009 60.9929 30.3661C60.0189 30.123 59.0362 29.9755 58.0448 29.9234V36.9817C58.0448 37.52 58.097 37.9107 58.2013 38.1538C58.3231 38.3969 58.5492 38.5618 58.8796 38.6486C59.2101 38.7355 59.7319 38.7789 60.445 38.7789C60.5146 38.7789 60.5493 38.831 60.5493 38.9351C60.5493 39.0393 60.5146 39.0914 60.445 39.0914L58.697 39.0654C58.3144 39.048 57.7317 39.0393 56.9491 39.0393L55.4098 39.0654C55.1489 39.0827 54.775 39.0914 54.288 39.0914C54.2184 39.0914 54.1836 39.0393 54.1836 38.9351C54.1836 38.831 54.2184 38.7789 54.288 38.7789C54.7576 38.7789 55.1054 38.7355 55.3315 38.6486C55.5576 38.5445 55.7142 38.3708 55.8011 38.1277C55.8881 37.8846 55.9316 37.5026 55.9316 36.9817V31.1215C55.9316 30.5485 55.8185 30.1838 55.5924 30.0275C55.3663 29.8713 54.8967 29.7931 54.1836 29.7931C54.1314 29.7931 54.1053 29.715 54.1053 29.5587C54.1053 29.4198 54.1314 29.3504 54.1836 29.3504C54.8271 29.3504 55.262 29.2722 55.4881 29.116C55.7316 28.9423 55.862 28.6385 55.8794 28.2044C55.9664 25.3741 56.4881 23.3338 57.4447 22.0836C58.4187 20.8161 59.871 20.1823 61.8016 20.1823C63.2974 20.1823 64.5149 20.5296 65.4541 21.2241C65.7324 20.8595 65.8715 20.4775 65.8715 20.0781C65.8715 20.026 65.9237 20 66.028 20C66.1324 20 66.1846 20.026 66.1846 20.0781V36.9817C66.1846 37.6936 66.2802 38.1711 66.4716 38.4142C66.6803 38.6573 67.0803 38.7789 67.6717 38.7789Z" fill="#F8F8F8"/>
<path d="M78.0912 37.4505C78.126 37.4505 78.1608 37.4853 78.1955 37.5547C78.2477 37.6242 78.2564 37.6763 78.2216 37.711C77.5955 38.3014 76.9607 38.7355 76.3171 39.0133C75.6736 39.2737 74.9692 39.404 74.2039 39.404C73.1256 39.404 72.1951 39.1782 71.4124 38.7268C70.6471 38.258 70.0558 37.6415 69.6383 36.8775C69.2383 36.0962 69.0383 35.2627 69.0383 34.3772C69.0383 33.3527 69.2905 32.4151 69.7949 31.5642C70.3166 30.7134 71.021 30.0449 71.9081 29.5587C72.8125 29.0552 73.8039 28.8034 74.8822 28.8034C75.9084 28.8034 76.6998 29.0378 77.2563 29.5066C77.8129 29.9581 78.0912 30.5832 78.0912 31.3819C78.0912 31.8507 77.9955 32.0851 77.8042 32.0851H76.3693L71.4646 32.1372C71.4124 32.5019 71.3863 32.8926 71.3863 33.3093C71.3863 34.8199 71.7341 36.0267 72.4299 36.9296C73.143 37.8152 74.1256 38.258 75.3779 38.258C75.8301 38.258 76.291 38.1972 76.7606 38.0756C77.2302 37.9367 77.6564 37.737 78.039 37.4766L78.0912 37.4505ZM73.943 29.3243C73.3691 29.3243 72.8734 29.5327 72.4559 29.9494C72.0385 30.3661 71.7428 30.9391 71.5689 31.6684L75.6388 31.5903C75.604 30.8784 75.4475 30.3227 75.1692 29.9234C74.8909 29.524 74.4822 29.3243 73.943 29.3243Z" fill="#F8F8F8"/>
<path d="M89.0533 28.7513C89.0707 28.734 89.0968 28.7253 89.1315 28.7253C89.1663 28.7253 89.2011 28.7426 89.2359 28.7774C89.2881 28.7947 89.3142 28.8208 89.3142 28.8555V40.9146C89.3142 42.5642 88.8359 43.8925 87.8793 44.8996C86.9401 45.9067 85.6095 46.4102 83.8876 46.4102C82.7745 46.4102 81.8614 46.2279 81.1483 45.8633C80.4352 45.516 80.0786 45.0385 80.0786 44.4308C80.0786 44.0314 80.1917 43.7362 80.4178 43.5452C80.6439 43.3542 80.9135 43.2587 81.2266 43.2587C81.644 43.2587 81.9571 43.3542 82.1658 43.5452C82.3919 43.7536 82.6093 44.0574 82.818 44.4568C83.0789 44.9256 83.3485 45.2729 83.6268 45.4986C83.9224 45.7417 84.3572 45.8633 84.9312 45.8633C85.6269 45.8633 86.1748 45.5507 86.5748 44.9256C86.9922 44.3005 87.201 43.1719 87.201 41.5397V37.5547C86.6096 38.1277 86.0096 38.5792 85.4008 38.9091C84.8095 39.239 84.1485 39.404 83.418 39.404C82.7223 39.404 82.0788 39.2303 81.4874 38.883C80.8961 38.5184 80.4265 37.9975 80.0786 37.3203C79.7308 36.6258 79.5569 35.801 79.5569 34.846C79.5569 33.6132 79.8438 32.5366 80.4178 31.6163C81.0092 30.6787 81.7657 29.9668 82.6875 29.4806C83.6268 28.977 84.6007 28.7253 85.6095 28.7253C86.5835 28.7253 87.4271 28.9597 88.1402 29.4285C88.5054 29.2549 88.8098 29.0291 89.0533 28.7513ZM84.6181 38.2059C85.3834 38.2059 86.2444 37.8325 87.201 37.0859V31.5382C87.201 30.8784 86.9835 30.3314 86.5487 29.8973C86.1139 29.4632 85.5747 29.2462 84.9312 29.2462C84.0268 29.2462 83.2963 29.689 82.7397 30.5745C82.2005 31.4601 81.931 32.6061 81.931 34.0125C81.931 35.3148 82.1658 36.3393 82.6354 37.0859C83.1224 37.8325 83.7833 38.2059 84.6181 38.2059Z" fill="#F8F8F8"/>
<path d="M100.657 37.4505C100.692 37.4505 100.727 37.4853 100.761 37.5547C100.814 37.6242 100.822 37.6763 100.787 37.711C100.161 38.3014 99.5265 38.7355 98.8829 39.0133C98.2394 39.2737 97.535 39.404 96.7697 39.404C95.6914 39.404 94.7609 39.1782 93.9782 38.7268C93.2129 38.258 92.6216 37.6415 92.2041 36.8775C91.8041 36.0962 91.6041 35.2627 91.6041 34.3772C91.6041 33.3527 91.8563 32.4151 92.3607 31.5642C92.8825 30.7134 93.5869 30.0449 94.4739 29.5587C95.3783 29.0552 96.3697 28.8034 97.448 28.8034C98.4742 28.8034 99.2656 29.0378 99.8221 29.5066C100.379 29.9581 100.657 30.5832 100.657 31.3819C100.657 31.8507 100.561 32.0851 100.37 32.0851H98.9351L94.0304 32.1372C93.9782 32.5019 93.9521 32.8926 93.9521 33.3093C93.9521 34.8199 94.3 36.0267 94.9957 36.9296C95.7088 37.8152 96.6915 38.258 97.9437 38.258C98.3959 38.258 98.8569 38.1972 99.3265 38.0756C99.7961 37.9367 100.222 37.737 100.605 37.4766L100.657 37.4505ZM96.5088 29.3243C95.9349 29.3243 95.4392 29.5327 95.0218 29.9494C94.6043 30.3661 94.3087 30.9391 94.1347 31.6684L98.2046 31.5903C98.1698 30.8784 98.0133 30.3227 97.735 29.9234C97.4567 29.524 97.048 29.3243 96.5088 29.3243Z" fill="#F8F8F8"/>
<path d="M118.434 23.4641C118.487 23.3772 118.504 23.3252 118.487 23.3078C118.487 23.2731 118.426 23.2557 118.304 23.2557C115.973 23.2557 114.269 23.3252 113.191 23.4641C112.112 23.5856 111.277 23.8721 110.686 24.3236C110.095 24.7577 109.573 25.4783 109.121 26.4854C109.121 26.5027 109.086 26.5114 109.016 26.5114C108.86 26.5114 108.79 26.4767 108.808 26.4072L109.851 22.0316C109.851 22.0142 109.886 22.0055 109.956 22.0055C110.129 22.0055 110.199 22.0316 110.164 22.0836C110.147 22.1357 110.138 22.2052 110.138 22.292C110.138 22.5004 110.234 22.6393 110.425 22.7087C110.634 22.7782 111.043 22.8129 111.651 22.8129H121.174C121.261 22.8129 121.322 22.8563 121.356 22.9432C121.409 23.03 121.409 23.0994 121.356 23.1515L111.964 38.3882C111.895 38.475 111.869 38.5358 111.886 38.5705C111.903 38.5879 111.964 38.5965 112.069 38.5965H117.808C118.817 38.5965 119.695 38.284 120.443 37.6589C121.191 37.0338 121.652 36.2351 121.826 35.2627C121.843 35.2106 121.896 35.1846 121.983 35.1846C122.07 35.1846 122.113 35.2106 122.113 35.2627L121.748 38.883C121.748 38.9351 121.722 38.9959 121.669 39.0654C121.635 39.1175 121.583 39.1435 121.513 39.1435C118.921 39.1088 114.765 39.0914 109.042 39.0914C108.955 39.0914 108.895 39.0567 108.86 38.9872C108.825 38.9004 108.834 38.8223 108.886 38.7528L118.434 23.4641Z" fill="#F8F8F8"/>
<path d="M125.832 30.3922C125.832 30.9305 126.015 31.3819 126.38 31.7466C126.763 32.1112 127.311 32.4932 128.024 32.8926C128.65 33.2398 129.128 33.5263 129.459 33.7521C129.807 33.9778 130.102 34.2817 130.346 34.6637C130.607 35.0457 130.737 35.5058 130.737 36.0441C130.737 36.6344 130.589 37.1814 130.294 37.6849C129.998 38.1885 129.554 38.5965 128.963 38.9091C128.389 39.2216 127.702 39.3779 126.902 39.3779C125.945 39.3779 125.067 39.1348 124.267 38.6486C124.163 38.5445 124.11 38.4403 124.11 38.3361L124.058 35.9399C124.058 35.8878 124.102 35.8618 124.189 35.8618C124.293 35.8444 124.354 35.8531 124.371 35.8878C124.667 36.756 125.111 37.4679 125.702 38.0235C126.311 38.5792 126.954 38.857 127.632 38.857C128.067 38.857 128.406 38.7441 128.65 38.5184C128.893 38.2927 129.015 37.9541 129.015 37.5026C129.015 36.8428 128.824 36.3219 128.441 35.9399C128.059 35.5405 127.502 35.1498 126.772 34.7678C126.18 34.4553 125.719 34.1948 125.389 33.9865C125.058 33.7607 124.771 33.4656 124.528 33.1009C124.302 32.7189 124.189 32.2501 124.189 31.6945C124.189 30.7047 124.545 29.9668 125.258 29.4806C125.989 28.9944 126.867 28.7513 127.893 28.7513C128.572 28.7513 129.267 28.8815 129.98 29.142C130.137 29.2115 130.215 29.307 130.215 29.4285C130.215 29.8279 130.207 30.1404 130.189 30.3661L130.163 31.6163C130.163 31.6684 130.111 31.6945 130.007 31.6945C129.902 31.6945 129.85 31.6684 129.85 31.6163C129.85 31.2691 129.711 30.9131 129.433 30.5485C129.154 30.1665 128.798 29.8539 128.363 29.6108C127.928 29.3677 127.485 29.2462 127.032 29.2462C126.232 29.2462 125.832 29.6282 125.832 30.3922Z" fill="#DB7A64"/>
<path d="M144.458 37.4505C144.51 37.4505 144.553 37.494 144.588 37.5808C144.623 37.6676 144.614 37.7284 144.562 37.7631L141.144 39.404L141.04 39.43C140.866 39.43 140.71 39.239 140.57 38.857C140.431 38.4576 140.353 37.928 140.336 37.2682C139.118 38.6747 137.831 39.3779 136.474 39.3779C135.535 39.3779 134.805 39.0914 134.283 38.5184C133.761 37.928 133.5 37.1293 133.5 36.1222V32.2414C133.5 31.0607 133.231 30.4703 132.692 30.4703C132.518 30.4703 132.274 30.5398 131.961 30.6787H131.935C131.865 30.6787 131.813 30.6353 131.778 30.5485C131.744 30.4616 131.752 30.4009 131.804 30.3661L135.118 28.8295L135.222 28.8034C135.292 28.8034 135.37 28.8381 135.457 28.9076C135.544 28.977 135.587 29.0378 135.587 29.0899V35.0023C135.587 36.9296 136.318 37.8933 137.779 37.8933C138.214 37.8933 138.657 37.7891 139.109 37.5808C139.562 37.3724 139.97 37.0859 140.336 36.7213V32.2414C140.336 31.6337 140.266 31.1909 140.127 30.9131C140.005 30.6179 139.805 30.4703 139.527 30.4703C139.37 30.4703 139.127 30.5398 138.796 30.6787H138.77C138.701 30.6787 138.649 30.6353 138.614 30.5485C138.579 30.4443 138.596 30.3835 138.666 30.3661L141.953 28.8295C141.988 28.8121 142.031 28.8034 142.084 28.8034C142.153 28.8034 142.231 28.8381 142.318 28.9076C142.405 28.977 142.449 29.0378 142.449 29.0899V36.1483C142.449 36.756 142.51 37.1814 142.631 37.4245C142.753 37.6676 142.953 37.7891 143.231 37.7891C143.44 37.7891 143.832 37.685 144.405 37.4766L144.458 37.4505Z" fill="#DB7A64"/>
<path d="M151.371 29.5848C151.44 29.4632 151.397 29.4025 151.24 29.4025C149.623 29.4025 148.362 29.6108 147.457 30.0275C146.57 30.4269 145.97 31.0954 145.657 32.0331C145.657 32.0504 145.622 32.0591 145.553 32.0591C145.414 32.0591 145.353 32.0244 145.37 31.9549L146.414 28.1002C146.414 28.0828 146.449 28.0741 146.518 28.0741C146.657 28.0741 146.718 28.1089 146.701 28.1783C146.666 28.3172 146.649 28.4127 146.649 28.4648C146.649 28.6905 146.753 28.8468 146.962 28.9336C147.17 29.0031 147.509 29.0378 147.979 29.0378H153.823C153.893 29.0378 153.953 29.0725 154.006 29.142C154.058 29.2115 154.067 29.2809 154.032 29.3504L148.005 38.4663C147.953 38.5879 147.996 38.6486 148.136 38.6486C149.44 38.6486 150.475 38.5618 151.24 38.3882C152.023 38.2145 152.623 37.928 153.04 37.5287C153.458 37.1119 153.762 36.5389 153.953 35.8097C153.971 35.7576 154.023 35.7315 154.11 35.7315C154.214 35.7315 154.267 35.7576 154.267 35.8097L154.214 38.8049C154.214 38.8744 154.188 38.9438 154.136 39.0133C154.084 39.0654 154.023 39.0914 153.953 39.0914H145.579C145.509 39.0914 145.448 39.0567 145.396 38.9872C145.362 38.9178 145.362 38.8483 145.396 38.7789L151.371 29.5848Z" fill="#DB7A64"/>
<path d="M157.796 30.3922C157.796 30.9305 157.978 31.3819 158.344 31.7466C158.726 32.1112 159.274 32.4932 159.987 32.8926C160.613 33.2398 161.092 33.5263 161.422 33.7521C161.77 33.9778 162.066 34.2817 162.309 34.6637C162.57 35.0457 162.7 35.5058 162.7 36.0441C162.7 36.6344 162.553 37.1814 162.257 37.6849C161.961 38.1885 161.518 38.5965 160.926 38.9091C160.352 39.2216 159.665 39.3779 158.865 39.3779C157.909 39.3779 157.03 39.1348 156.23 38.6486C156.126 38.5445 156.074 38.4403 156.074 38.3361L156.022 35.9399C156.022 35.8878 156.065 35.8618 156.152 35.8618C156.256 35.8444 156.317 35.8531 156.335 35.8878C156.63 36.756 157.074 37.4679 157.665 38.0235C158.274 38.5792 158.918 38.857 159.596 38.857C160.031 38.857 160.37 38.7441 160.613 38.5184C160.857 38.2927 160.979 37.9541 160.979 37.5026C160.979 36.8428 160.787 36.3219 160.405 35.9399C160.022 35.5405 159.465 35.1498 158.735 34.7678C158.144 34.4553 157.683 34.1948 157.352 33.9865C157.022 33.7607 156.735 33.4656 156.491 33.1009C156.265 32.7189 156.152 32.2501 156.152 31.6945C156.152 30.7047 156.509 29.9668 157.222 29.4806C157.952 28.9944 158.831 28.7513 159.857 28.7513C160.535 28.7513 161.231 28.8815 161.944 29.142C162.1 29.2115 162.179 29.307 162.179 29.4285C162.179 29.8279 162.17 30.1404 162.153 30.3661L162.126 31.6163C162.126 31.6684 162.074 31.6945 161.97 31.6945C161.866 31.6945 161.813 31.6684 161.813 31.6163C161.813 31.2691 161.674 30.9131 161.396 30.5485C161.118 30.1665 160.761 29.8539 160.326 29.6108C159.892 29.3677 159.448 29.2462 158.996 29.2462C158.196 29.2462 157.796 29.6282 157.796 30.3922Z" fill="#DB7A64"/>
<path d="M167.055 26.0426C166.603 26.0426 166.246 25.921 165.985 25.6779C165.742 25.4348 165.62 25.0876 165.62 24.6361C165.62 24.202 165.742 23.8721 165.985 23.6464C166.246 23.4033 166.603 23.2817 167.055 23.2817C167.49 23.2817 167.829 23.4033 168.073 23.6464C168.316 23.8721 168.438 24.202 168.438 24.6361C168.438 25.0876 168.316 25.4348 168.073 25.6779C167.846 25.921 167.507 26.0426 167.055 26.0426ZM164.655 39.0914C164.603 39.0914 164.577 39.0393 164.577 38.9351C164.577 38.831 164.603 38.7789 164.655 38.7789C165.246 38.7789 165.638 38.6573 165.829 38.4142C166.02 38.1711 166.116 37.6936 166.116 36.9817V32.2414C166.116 31.6511 166.055 31.2256 165.933 30.9652C165.812 30.6874 165.603 30.5485 165.307 30.5485C165.046 30.5485 164.707 30.6526 164.29 30.861H164.264C164.194 30.861 164.142 30.8176 164.107 30.7308C164.072 30.644 164.081 30.5832 164.133 30.5485L167.89 28.8034L167.968 28.7774C168.038 28.7774 168.107 28.8208 168.177 28.9076C168.264 28.977 168.307 29.0378 168.307 29.0899V29.6369C168.273 30.3661 168.255 31.2256 168.255 32.2154V36.9817C168.255 37.6936 168.351 38.1711 168.542 38.4142C168.751 38.6573 169.151 38.7789 169.742 38.7789C169.794 38.7789 169.821 38.831 169.821 38.9351C169.821 39.0393 169.794 39.0914 169.742 39.0914C169.307 39.0914 168.96 39.0827 168.699 39.0654L167.186 39.0393L165.672 39.0654C165.429 39.0827 165.09 39.0914 164.655 39.0914Z" fill="#DB7A64"/>
<path d="M3.93744 52.3907C4.47528 52.4388 4.89672 52.6151 5.20176 52.9196C5.5068 53.2161 5.65932 53.5968 5.65932 54.0616C5.65932 54.1898 5.64728 54.3221 5.6232 54.4583C5.55095 54.859 5.38237 55.2277 5.11747 55.5642C4.85257 55.9008 4.52746 56.1693 4.14214 56.3696C3.75683 56.57 3.34743 56.6702 2.91395 56.6702C2.67313 56.6702 2.41223 56.6582 2.13128 56.6341C2.03495 56.6261 1.91855 56.6181 1.78208 56.6101C1.64562 56.6021 1.4931 56.598 1.32452 56.598L0.565932 56.6101C0.437494 56.6181 0.260891 56.6221 0.0361233 56.6221C0.0120411 56.6221 0 56.598 0 56.55C0.00802741 56.5019 0.0200685 56.4778 0.0361233 56.4778C0.309055 56.4778 0.513754 56.4578 0.65022 56.4177C0.794713 56.3696 0.903083 56.2895 0.97533 56.1773C1.04758 56.0571 1.10377 55.8768 1.14391 55.6364L2.13128 50.0706C2.15536 49.9264 2.1674 49.8062 2.1674 49.71C2.1674 49.5257 2.11121 49.4055 1.99882 49.3494C1.88644 49.2853 1.6697 49.2532 1.3486 49.2532C1.31649 49.2532 1.30044 49.2292 1.30044 49.1811C1.30847 49.133 1.32452 49.1089 1.3486 49.1089L1.90249 49.121C2.20754 49.137 2.44434 49.145 2.61292 49.145C2.75741 49.145 2.88585 49.141 2.99824 49.133C3.11865 49.125 3.223 49.117 3.3113 49.1089C3.5441 49.0849 3.74478 49.0729 3.91336 49.0729C4.49936 49.0729 4.93685 49.1891 5.22584 49.4215C5.51483 49.6459 5.65932 49.9504 5.65932 50.3351C5.65932 50.4473 5.64728 50.5715 5.6232 50.7077C5.5349 51.1004 5.34625 51.441 5.05726 51.7295C4.76828 52.01 4.395 52.2304 3.93744 52.3907ZM2.42026 52.3907L2.90191 52.4027C3.47185 52.4027 3.9254 52.2464 4.26255 51.9339C4.60773 51.6213 4.82447 51.2126 4.91277 50.7077C4.93685 50.5715 4.94889 50.4393 4.94889 50.311C4.94889 49.9825 4.84454 49.722 4.63583 49.5297C4.43514 49.3373 4.11404 49.2412 3.67254 49.2412C3.47988 49.2412 3.33137 49.2612 3.22702 49.3013C3.13069 49.3413 3.0464 49.4255 2.97415 49.5537C2.90993 49.6739 2.85776 49.8663 2.81762 50.1307L2.42026 52.3907ZM4.81644 54.6506C4.84052 54.4823 4.85257 54.3261 4.85257 54.1818C4.85257 53.701 4.71209 53.3283 4.43113 53.0639C4.15017 52.7994 3.74077 52.6632 3.20293 52.6551C2.96211 52.6471 2.68115 52.6551 2.36006 52.6792L1.84229 55.6724C1.81821 55.7766 1.80617 55.8768 1.80617 55.973C1.80617 56.1573 1.8744 56.2855 2.01086 56.3576C2.14733 56.4298 2.39618 56.4658 2.75741 56.4658C3.34341 56.4658 3.809 56.3015 4.15418 55.973C4.49936 55.6444 4.72011 55.2036 4.81644 54.6506Z" fill="#F8F8F8"/>
<path d="M10.1565 52.3666C10.1565 52.6151 10.024 52.8555 9.75913 53.0879C9.50225 53.3123 9.15306 53.5086 8.71155 53.6769C8.27807 53.8452 7.80847 53.9695 7.30274 54.0496C7.26261 54.306 7.24254 54.5264 7.24254 54.7107C7.24254 55.2076 7.35492 55.6083 7.57969 55.9128C7.80446 56.2094 8.12154 56.3576 8.53094 56.3576C8.98047 56.3576 9.38184 56.2254 9.73505 55.9609H9.75913C9.78321 55.9609 9.80328 55.973 9.81933 55.997C9.84342 56.021 9.84342 56.0451 9.81933 56.0691C9.25741 56.5339 8.67141 56.7663 8.06133 56.7663C7.55561 56.7663 7.17029 56.6061 6.90539 56.2855C6.64851 55.9569 6.52007 55.5362 6.52007 55.0233C6.52007 54.847 6.54014 54.6386 6.58028 54.3982C6.65252 53.9895 6.8211 53.5888 7.086 53.1961C7.35091 52.7954 7.68003 52.4668 8.07337 52.2104C8.47474 51.9539 8.89217 51.8257 9.32565 51.8257C9.59055 51.8257 9.79525 51.8738 9.93974 51.9699C10.0842 52.0661 10.1565 52.1983 10.1565 52.3666ZM8.79584 52.1503C8.42658 52.1503 8.11351 52.3146 7.85663 52.6431C7.60778 52.9637 7.4352 53.3764 7.33887 53.8813C7.90078 53.7851 8.35433 53.6409 8.69951 53.4485C9.05272 53.2562 9.26544 53.0158 9.33769 52.7273C9.35374 52.6471 9.36177 52.591 9.36177 52.559C9.36177 52.4227 9.30558 52.3226 9.1932 52.2585C9.08081 52.1863 8.94836 52.1503 8.79584 52.1503Z" fill="#F8F8F8"/>
<path d="M12.3934 50.4553C12.2329 50.4553 12.1044 50.4112 12.0081 50.3231C11.9198 50.2269 11.8756 50.0987 11.8756 49.9384C11.8756 49.7861 11.9198 49.6659 12.0081 49.5778C12.1044 49.4896 12.2329 49.4455 12.3934 49.4455C12.554 49.4455 12.6784 49.4896 12.7667 49.5778C12.855 49.6659 12.8991 49.7861 12.8991 49.9384C12.8991 50.0987 12.855 50.2269 12.7667 50.3231C12.6784 50.4112 12.554 50.4553 12.3934 50.4553ZM11.6348 56.7303C11.4903 56.7303 11.3819 56.6902 11.3097 56.6101C11.2375 56.5219 11.2013 56.3817 11.2013 56.1893C11.2013 56.0691 11.2294 55.8568 11.2856 55.5522L11.7793 53.0518C11.8034 52.9316 11.8154 52.8234 11.8154 52.7273C11.8154 52.4708 11.7352 52.3426 11.5746 52.3426C11.4783 52.3426 11.3539 52.3907 11.2013 52.4869C11.0568 52.583 10.9043 52.7193 10.7438 52.8956C10.7357 52.9036 10.7237 52.9076 10.7076 52.9076C10.6836 52.9076 10.6595 52.8956 10.6354 52.8715C10.6193 52.8395 10.6234 52.8154 10.6474 52.7994C10.9284 52.4788 11.1813 52.2464 11.406 52.1022C11.6308 51.9499 11.8435 51.8738 12.0442 51.8738C12.1887 51.8738 12.2931 51.9179 12.3573 52.006C12.4295 52.0862 12.4656 52.2224 12.4656 52.4147C12.4656 52.567 12.4416 52.7714 12.3934 53.0278L11.8997 55.5522C11.8756 55.6804 11.8636 55.7886 11.8636 55.8768C11.8636 56.1252 11.9399 56.2494 12.0924 56.2494C12.285 56.2494 12.558 56.0731 12.9112 55.7205C12.9272 55.7045 12.9433 55.6965 12.9593 55.6965C12.9834 55.6965 13.0035 55.7125 13.0195 55.7446C13.0356 55.7686 13.0316 55.7926 13.0075 55.8167C12.7346 56.1292 12.4897 56.3616 12.273 56.5139C12.0563 56.6582 11.8435 56.7303 11.6348 56.7303Z" fill="#F8F8F8"/>
<path d="M23.9582 55.6965C23.9743 55.6804 23.9903 55.6724 24.0064 55.6724C24.0305 55.6724 24.0505 55.6885 24.0666 55.7205C24.0827 55.7446 24.0786 55.7686 24.0546 55.7926C23.7816 56.1132 23.5368 56.3496 23.32 56.5019C23.1113 56.6541 22.9066 56.7303 22.706 56.7303C22.5615 56.7303 22.4571 56.6902 22.3929 56.6101C22.3287 56.5219 22.2966 56.3857 22.2966 56.2014C22.2966 56.0331 22.3206 55.8167 22.3688 55.5522L22.718 53.6409C22.7581 53.4325 22.7782 53.2161 22.7782 52.9917C22.7782 52.7593 22.7381 52.587 22.6578 52.4748C22.5855 52.3546 22.4691 52.2945 22.3086 52.2945C22.0597 52.2945 21.7989 52.4588 21.5259 52.7874C21.261 53.1079 21.0041 53.5808 20.7553 54.2059C20.5145 54.8229 20.3138 55.5522 20.1532 56.3937L20.1292 56.5379C20.1211 56.594 20.085 56.6381 20.0208 56.6702C19.9566 56.7022 19.8683 56.7183 19.7559 56.7183C19.6435 56.7183 19.5672 56.7102 19.5271 56.6942C19.495 56.6862 19.4789 56.6702 19.4789 56.6461L19.5391 56.3696L20.0569 53.6409C20.089 53.4245 20.1051 53.2201 20.1051 53.0278C20.1051 52.5389 19.9566 52.2945 19.6596 52.2945C19.4107 52.2945 19.1498 52.4588 18.8769 52.7874C18.6039 53.116 18.3471 53.5928 18.1062 54.2179C17.8654 54.843 17.6688 55.5763 17.5162 56.4177L17.4922 56.5379C17.4681 56.6582 17.3396 56.7183 17.1068 56.7183C16.9945 56.7183 16.9182 56.7102 16.8781 56.6942C16.8459 56.6862 16.8299 56.6702 16.8299 56.6461C16.8299 56.6381 16.862 56.4738 16.9262 56.1533L16.9985 55.7926L17.5042 53.0518C17.5283 52.9316 17.5403 52.8234 17.5403 52.7273C17.5403 52.4708 17.46 52.3426 17.2995 52.3426C17.2032 52.3426 17.0787 52.3907 16.9262 52.4869C16.7817 52.583 16.6292 52.7193 16.4687 52.8956C16.4606 52.9036 16.4486 52.9076 16.4325 52.9076C16.4085 52.9076 16.3844 52.8956 16.3603 52.8715C16.3442 52.8395 16.3482 52.8154 16.3723 52.7994C16.6453 52.4869 16.8941 52.2544 17.1189 52.1022C17.3517 51.9499 17.5724 51.8738 17.7811 51.8738C17.9176 51.8738 18.0179 51.9179 18.0822 52.006C18.1464 52.0862 18.1785 52.2184 18.1785 52.4027C18.1785 52.6111 18.1584 52.8194 18.1183 53.0278L17.8775 54.3862C18.1584 53.5848 18.4875 52.9597 18.8648 52.5109C19.2502 52.0541 19.6475 51.8257 20.0569 51.8257C20.2977 51.8257 20.4743 51.8978 20.5867 52.0421C20.7071 52.1783 20.7673 52.3987 20.7673 52.7032C20.7673 52.8956 20.7432 53.132 20.6951 53.4125L20.5024 54.4703C20.7834 53.6369 21.1165 52.9877 21.5018 52.5229C21.8872 52.0581 22.2885 51.8257 22.706 51.8257C22.9548 51.8257 23.1394 51.8978 23.2598 52.0421C23.3803 52.1863 23.4405 52.4147 23.4405 52.7273C23.4405 52.9196 23.4164 53.148 23.3682 53.4125L22.9829 55.5522C22.9588 55.6804 22.9468 55.7886 22.9468 55.8768C22.9468 56.1252 23.019 56.2494 23.1635 56.2494C23.3401 56.2494 23.605 56.0651 23.9582 55.6965Z" fill="#F8F8F8"/>
<path d="M26.3277 50.4553C26.1671 50.4553 26.0387 50.4112 25.9424 50.3231C25.8541 50.2269 25.8099 50.0987 25.8099 49.9384C25.8099 49.7861 25.8541 49.6659 25.9424 49.5778C26.0387 49.4896 26.1671 49.4455 26.3277 49.4455C26.4882 49.4455 26.6127 49.4896 26.701 49.5778C26.7893 49.6659 26.8334 49.7861 26.8334 49.9384C26.8334 50.0987 26.7893 50.2269 26.701 50.3231C26.6127 50.4112 26.4882 50.4553 26.3277 50.4553ZM25.5691 56.7303C25.4246 56.7303 25.3162 56.6902 25.244 56.6101C25.1717 56.5219 25.1356 56.3817 25.1356 56.1893C25.1356 56.0691 25.1637 55.8568 25.2199 55.5522L25.7136 53.0518C25.7377 52.9316 25.7497 52.8234 25.7497 52.7273C25.7497 52.4708 25.6694 52.3426 25.5089 52.3426C25.4126 52.3426 25.2881 52.3907 25.1356 52.4869C24.9911 52.583 24.8386 52.7193 24.6781 52.8956C24.67 52.9036 24.658 52.9076 24.6419 52.9076C24.6179 52.9076 24.5938 52.8956 24.5697 52.8715C24.5536 52.8395 24.5576 52.8154 24.5817 52.7994C24.8627 52.4788 25.1156 52.2464 25.3403 52.1022C25.5651 51.9499 25.7778 51.8738 25.9785 51.8738C26.123 51.8738 26.2273 51.9179 26.2916 52.006C26.3638 52.0862 26.3999 52.2224 26.3999 52.4147C26.3999 52.567 26.3759 52.7714 26.3277 53.0278L25.834 55.5522C25.8099 55.6804 25.7979 55.7886 25.7979 55.8768C25.7979 56.1252 25.8741 56.2494 26.0267 56.2494C26.2193 56.2494 26.4923 56.0731 26.8455 55.7205C26.8615 55.7045 26.8776 55.6965 26.8936 55.6965C26.9177 55.6965 26.9378 55.7125 26.9538 55.7446C26.9699 55.7686 26.9659 55.7926 26.9418 55.8167C26.6689 56.1292 26.424 56.3616 26.2073 56.5139C25.9905 56.6582 25.7778 56.7303 25.5691 56.7303Z" fill="#F8F8F8"/>
<path d="M30.7115 51.8738C30.864 51.8738 31.0125 51.9299 31.157 52.0421C31.3015 52.1543 31.3738 52.2865 31.3738 52.4388C31.3738 52.559 31.3336 52.6592 31.2533 52.7393C31.1811 52.8194 31.0888 52.8595 30.9764 52.8595C30.8881 52.8595 30.8159 52.8395 30.7597 52.7994C30.7115 52.7593 30.6593 52.6992 30.6031 52.6191C30.571 52.579 30.5349 52.543 30.4948 52.5109C30.4546 52.4708 30.4105 52.4508 30.3623 52.4508C30.1857 52.4508 29.973 52.6832 29.7241 53.148C29.4833 53.6128 29.2545 54.1698 29.0378 54.8189C28.821 55.4681 28.6645 56.0411 28.5682 56.5379C28.5602 56.594 28.52 56.6381 28.4478 56.6702C28.3836 56.7022 28.2953 56.7183 28.1829 56.7183C28.0785 56.7183 28.0063 56.7102 27.9661 56.6942C27.934 56.6862 27.918 56.6702 27.918 56.6461L27.9782 56.3696L28.0986 55.7325L28.4959 53.5086C28.5441 53.2442 28.5682 53.0358 28.5682 52.8835C28.5682 52.5229 28.4719 52.3426 28.2792 52.3426C28.1026 52.3426 27.8578 52.4909 27.5447 52.7874L27.5206 52.7994C27.4965 52.7994 27.4765 52.7874 27.4604 52.7633C27.4443 52.7313 27.4403 52.7072 27.4484 52.6912C27.6972 52.4187 27.926 52.2144 28.1347 52.0781C28.3434 51.9419 28.5481 51.8738 28.7488 51.8738C28.9093 51.8738 29.0257 51.9259 29.098 52.0301C29.1783 52.1342 29.2184 52.3146 29.2184 52.571C29.2184 52.7713 29.1863 53.0759 29.1221 53.4846L28.8692 54.855C29.1421 54.0135 29.4392 53.3083 29.7603 52.7393C30.0894 52.1623 30.4065 51.8738 30.7115 51.8738Z" fill="#F8F8F8"/>
<path d="M35.362 56.7543C35.0489 56.7543 34.78 56.6822 34.5552 56.5379C34.3385 56.3937 34.2462 56.2174 34.2783 56.009C34.2863 55.9048 34.3265 55.8247 34.3987 55.7686C34.471 55.7045 34.5512 55.6724 34.6395 55.6724C34.7118 55.6724 34.768 55.6965 34.8081 55.7446C34.8563 55.7926 34.9125 55.8728 34.9767 55.985C35.073 56.1453 35.1693 56.2695 35.2657 56.3576C35.37 56.4458 35.5225 56.4899 35.7232 56.4899C36.1647 56.4899 36.4216 56.2454 36.4939 55.7566C36.5019 55.7165 36.5059 55.6644 36.5059 55.6003C36.5059 55.3679 36.4417 55.1675 36.3132 54.9992C36.1848 54.831 35.9841 54.6346 35.7112 54.4102C35.4463 54.1938 35.2456 54.0055 35.1091 53.8452C34.9807 53.6769 34.9165 53.4766 34.9165 53.2442C34.9165 53.2041 34.9245 53.136 34.9406 53.0398C35.0128 52.6792 35.2015 52.3947 35.5065 52.1863C35.8196 51.97 36.1647 51.8618 36.542 51.8618C36.815 51.8618 37.0437 51.9139 37.2284 52.018C37.421 52.1222 37.5174 52.2544 37.5174 52.4147C37.5174 52.5349 37.4772 52.6271 37.3969 52.6912C37.3247 52.7553 37.2404 52.7874 37.1441 52.7874C37.0558 52.7874 36.9795 52.7633 36.9153 52.7153C36.8591 52.6672 36.7949 52.595 36.7226 52.4989C36.6343 52.3707 36.546 52.2785 36.4577 52.2224C36.3775 52.1583 36.2611 52.1262 36.1086 52.1262C35.9159 52.1262 35.7594 52.1823 35.6389 52.2945C35.5266 52.3987 35.4704 52.555 35.4704 52.7633C35.4704 52.9797 35.5346 53.1761 35.663 53.3524C35.7995 53.5207 35.9962 53.713 36.253 53.9294C36.534 54.1778 36.7387 54.3902 36.8671 54.5665C37.0036 54.7348 37.0718 54.9391 37.0718 55.1796C37.0718 55.436 36.9956 55.6885 36.8431 55.9369C36.6905 56.1773 36.4818 56.3737 36.2169 56.5259C35.952 56.6782 35.667 56.7543 35.362 56.7543Z" fill="#F8F8F8"/>
<path d="M39.8504 50.4553C39.6899 50.4553 39.5614 50.4112 39.4651 50.3231C39.3768 50.2269 39.3326 50.0987 39.3326 49.9384C39.3326 49.7861 39.3768 49.6659 39.4651 49.5778C39.5614 49.4896 39.6899 49.4455 39.8504 49.4455C40.011 49.4455 40.1354 49.4896 40.2237 49.5778C40.312 49.6659 40.3561 49.7861 40.3561 49.9384C40.3561 50.0987 40.312 50.2269 40.2237 50.3231C40.1354 50.4112 40.011 50.4553 39.8504 50.4553ZM39.0918 56.7303C38.9473 56.7303 38.839 56.6902 38.7667 56.6101C38.6945 56.5219 38.6583 56.3817 38.6583 56.1893C38.6583 56.0691 38.6864 55.8568 38.7426 55.5522L39.2363 53.0518C39.2604 52.9316 39.2724 52.8234 39.2724 52.7273C39.2724 52.4708 39.1922 52.3426 39.0316 52.3426C38.9353 52.3426 38.8109 52.3907 38.6583 52.4869C38.5139 52.583 38.3613 52.7193 38.2008 52.8956C38.1928 52.9036 38.1807 52.9076 38.1647 52.9076C38.1406 52.9076 38.1165 52.8956 38.0924 52.8715C38.0764 52.8395 38.0804 52.8154 38.1045 52.7994C38.3854 52.4788 38.6383 52.2464 38.863 52.1022C39.0878 51.9499 39.3005 51.8738 39.5012 51.8738C39.6457 51.8738 39.7501 51.9179 39.8143 52.006C39.8865 52.0862 39.9227 52.2224 39.9227 52.4147C39.9227 52.567 39.8986 52.7714 39.8504 53.0278L39.3567 55.5522C39.3326 55.6804 39.3206 55.7886 39.3206 55.8768C39.3206 56.1252 39.3969 56.2494 39.5494 56.2494C39.742 56.2494 40.015 56.0731 40.3682 55.7205C40.3842 55.7045 40.4003 55.6965 40.4163 55.6965C40.4404 55.6965 40.4605 55.7125 40.4766 55.7446C40.4926 55.7686 40.4886 55.7926 40.4645 55.8167C40.1916 56.1292 39.9467 56.3616 39.73 56.5139C39.5133 56.6582 39.3005 56.7303 39.0918 56.7303Z" fill="#F8F8F8"/>
<path d="M46.0645 55.6965C46.0805 55.6804 46.0926 55.6724 46.1006 55.6724C46.1247 55.6724 46.1447 55.6885 46.1608 55.7205C46.1849 55.7446 46.1849 55.7686 46.1608 55.7926C45.8879 56.1132 45.643 56.3496 45.4263 56.5019C45.2176 56.6541 45.0129 56.7303 44.8122 56.7303C44.6677 56.7303 44.5593 56.6902 44.4871 56.6101C44.4229 56.5219 44.3908 56.3817 44.3908 56.1893C44.3908 56.0291 44.4148 55.8167 44.463 55.5522L44.8122 53.6409C44.8604 53.3844 44.8844 53.168 44.8844 52.9917C44.8844 52.5269 44.7119 52.2945 44.3667 52.2945C44.1018 52.2945 43.8248 52.4628 43.5358 52.7994C43.2549 53.136 42.99 53.6289 42.7411 54.278C42.4923 54.9191 42.2916 55.6724 42.1391 56.5379C42.123 56.594 42.0789 56.6381 42.0066 56.6702C41.9424 56.7022 41.8541 56.7183 41.7417 56.7183C41.6293 56.7183 41.5531 56.7102 41.5129 56.6942C41.4808 56.6862 41.4648 56.6702 41.4648 56.6461L41.5129 56.3696C41.5611 56.1773 41.6053 55.9649 41.6454 55.7325L42.1391 53.0518C42.1632 52.9316 42.1752 52.8234 42.1752 52.7273C42.1752 52.4708 42.0949 52.3426 41.9344 52.3426C41.838 52.3426 41.7136 52.3907 41.5611 52.4869C41.4166 52.583 41.2641 52.7193 41.1035 52.8956C41.0955 52.9036 41.0835 52.9076 41.0674 52.9076C41.0433 52.9076 41.0192 52.8956 40.9952 52.8715C40.9791 52.8395 40.9831 52.8154 41.0072 52.7994C41.2801 52.4869 41.529 52.2544 41.7538 52.1022C41.9866 51.9499 42.2073 51.8738 42.416 51.8738C42.5525 51.8738 42.6528 51.9179 42.717 52.006C42.7813 52.0862 42.8134 52.2184 42.8134 52.4027C42.8134 52.6111 42.7933 52.8194 42.7532 53.0278L42.5003 54.4823C42.7893 53.6489 43.1305 52.9998 43.5238 52.5349C43.9171 52.0621 44.3306 51.8257 44.764 51.8257C45.0289 51.8257 45.2256 51.8978 45.354 52.0421C45.4825 52.1863 45.5467 52.4147 45.5467 52.7273C45.5467 52.9196 45.5226 53.148 45.4745 53.4125L45.0771 55.5522C45.053 55.6724 45.041 55.7806 45.041 55.8768C45.041 56.1252 45.1213 56.2494 45.2818 56.2494C45.4504 56.2494 45.7113 56.0651 46.0645 55.6965Z" fill="#F8F8F8"/>
<path d="M50.4215 55.5522C50.3974 55.6724 50.3853 55.7766 50.3853 55.8648C50.3853 56.1212 50.4656 56.2494 50.6262 56.2494C50.7867 56.2494 51.0516 56.0651 51.4209 55.6965C51.4369 55.6804 51.449 55.6724 51.457 55.6724C51.4811 55.6724 51.5012 55.6885 51.5172 55.7205C51.5413 55.7446 51.5413 55.7686 51.5172 55.7926C51.2282 56.1132 50.9794 56.3496 50.7707 56.5019C50.562 56.6541 50.3573 56.7303 50.1566 56.7303C49.8756 56.7303 49.7351 56.554 49.7351 56.2014C49.7351 56.0731 49.7632 55.8568 49.8194 55.5522L50.0482 54.3621C49.6789 55.1155 49.2856 55.7085 48.8682 56.1412C48.4588 56.566 48.0413 56.7784 47.6159 56.7784C47.3269 56.7784 47.0901 56.6862 46.9055 56.5019C46.7208 56.3095 46.6285 56.009 46.6285 55.6003C46.6285 55.5121 46.6446 55.3479 46.6767 55.1074C46.781 54.5304 46.9978 53.9895 47.3269 53.4846C47.6641 52.9797 48.0614 52.579 48.519 52.2825C48.9846 51.978 49.4461 51.8257 49.9037 51.8257C50.1285 51.8257 50.3211 51.8778 50.4817 51.982L51.0115 49.1811C51.0275 49.0528 51.0356 48.9687 51.0356 48.9286C51.0356 48.7203 50.9473 48.6161 50.7707 48.6161C50.6422 48.6161 50.4456 48.6762 50.1806 48.7964H50.1566C50.1325 48.7964 50.1124 48.7764 50.0964 48.7363C50.0883 48.6962 50.1004 48.6722 50.1325 48.6642L51.6978 47.9068H51.7219C51.746 47.9068 51.7701 47.9189 51.7942 47.9429C51.8182 47.9669 51.8263 47.987 51.8182 48.003L50.4215 55.5522ZM48.0012 56.1893C48.3624 56.1893 48.7157 55.993 49.0608 55.6003C49.414 55.2076 49.703 54.7508 49.9278 54.2299C50.1526 53.709 50.2649 53.3043 50.2649 53.0158C50.2649 52.7673 50.1927 52.579 50.0482 52.4508C49.9037 52.3146 49.707 52.2464 49.4582 52.2464C48.9364 52.2625 48.4829 52.4748 48.0975 52.8835C47.7202 53.2923 47.4674 53.8733 47.339 54.6266C47.3068 54.8109 47.2908 54.9912 47.2908 55.1675C47.2908 55.5041 47.351 55.7606 47.4714 55.9369C47.5998 56.1052 47.7764 56.1893 48.0012 56.1893Z" fill="#F8F8F8"/>
<path d="M54.7648 56.6221C54.7407 56.6221 54.7287 56.598 54.7287 56.55C54.7287 56.5019 54.7407 56.4778 54.7648 56.4778C55.0217 56.4778 55.2104 56.4578 55.3308 56.4177C55.4592 56.3777 55.5555 56.3015 55.6197 56.1893C55.684 56.0691 55.7361 55.8888 55.7763 55.6484L56.7637 50.0826C56.7958 49.8743 56.8118 49.7501 56.8118 49.71C56.8118 49.5257 56.7556 49.4055 56.6432 49.3494C56.5309 49.2853 56.3262 49.2532 56.0291 49.2532C56.0051 49.2532 55.993 49.2292 55.993 49.1811C55.993 49.133 56.0051 49.1089 56.0291 49.1089L56.5469 49.121C56.8359 49.137 57.0687 49.145 57.2453 49.145C57.454 49.145 57.7109 49.137 58.0159 49.121L58.4976 49.1089C58.5136 49.1089 58.5217 49.133 58.5217 49.1811C58.5217 49.2292 58.5136 49.2532 58.4976 49.2532C58.2407 49.2532 58.048 49.2772 57.9196 49.3253C57.7992 49.3734 57.7069 49.4576 57.6427 49.5778C57.5784 49.69 57.5222 49.8663 57.4741 50.1067L56.4867 55.6484C56.4626 55.8007 56.4506 55.9289 56.4506 56.0331C56.4506 56.2094 56.5028 56.3296 56.6071 56.3937C56.7195 56.4498 56.9282 56.4778 57.2333 56.4778C57.2493 56.4778 57.2573 56.5019 57.2573 56.55C57.2573 56.598 57.2493 56.6221 57.2333 56.6221C57.0245 56.6221 56.86 56.6181 56.7396 56.6101L55.993 56.598L55.2826 56.6101C55.1622 56.6181 54.9896 56.6221 54.7648 56.6221Z" fill="#F8F8F8"/>
<path d="M63.2974 55.6965C63.3134 55.6804 63.3295 55.6724 63.3455 55.6724C63.3696 55.6724 63.3897 55.6885 63.4057 55.7205C63.4218 55.7446 63.4178 55.7686 63.3937 55.7926C63.1208 56.1132 62.8759 56.3496 62.6592 56.5019C62.4505 56.6541 62.2458 56.7303 62.0451 56.7303C61.9006 56.7303 61.7922 56.6902 61.72 56.6101C61.6558 56.5219 61.6236 56.3817 61.6236 56.1893C61.6236 56.0291 61.6477 55.8167 61.6959 55.5522L62.0451 53.6409C62.0933 53.3844 62.1173 53.168 62.1173 52.9917C62.1173 52.5269 61.9447 52.2945 61.5996 52.2945C61.3427 52.2945 61.0738 52.4588 60.7928 52.7874C60.5119 53.116 60.2469 53.5928 59.9981 54.2179C59.7493 54.835 59.5486 55.5682 59.396 56.4177L59.372 56.5379C59.3559 56.594 59.3118 56.6381 59.2395 56.6702C59.1753 56.7022 59.087 56.7183 58.9746 56.7183C58.79 56.7183 58.6977 56.6942 58.6977 56.6461L58.7458 56.3696C58.794 56.1773 58.8381 55.9649 58.8783 55.7325L60.1065 49.1811C60.1225 49.0528 60.1306 48.9687 60.1306 48.9286C60.1306 48.7203 60.0423 48.6161 59.8657 48.6161C59.7372 48.6161 59.5446 48.6762 59.2877 48.7964H59.2636C59.2315 48.7964 59.2114 48.7804 59.2034 48.7483C59.1954 48.7082 59.2034 48.6802 59.2275 48.6642L60.7808 47.9068H60.8049C60.837 47.9068 60.8651 47.9189 60.8891 47.9429C60.9213 47.9669 60.9333 47.987 60.9253 48.003L59.7573 54.4102C60.0463 53.6008 60.3834 52.9677 60.7687 52.5109C61.1621 52.0541 61.5715 51.8257 61.9969 51.8257C62.2618 51.8257 62.4585 51.9018 62.5869 52.0541C62.7154 52.1983 62.7796 52.4267 62.7796 52.7393C62.7796 52.9236 62.7555 53.148 62.7074 53.4125L62.31 55.5522C62.2859 55.6724 62.2739 55.7806 62.2739 55.8768C62.2739 56.1252 62.3501 56.2494 62.5027 56.2494C62.6793 56.2494 62.9442 56.0651 63.2974 55.6965Z" fill="#F8F8F8"/>
<path d="M67.07 51.8738C67.2225 51.8738 67.371 51.9299 67.5155 52.0421C67.66 52.1543 67.7323 52.2865 67.7323 52.4388C67.7323 52.559 67.6921 52.6592 67.6118 52.7393C67.5396 52.8194 67.4473 52.8595 67.3349 52.8595C67.2466 52.8595 67.1743 52.8395 67.1182 52.7994C67.07 52.7593 67.0178 52.6992 66.9616 52.6191C66.9295 52.579 66.8934 52.543 66.8533 52.5109C66.8131 52.4708 66.769 52.4508 66.7208 52.4508C66.5442 52.4508 66.3315 52.6832 66.0826 53.148C65.8418 53.6128 65.613 54.1698 65.3963 54.8189C65.1795 55.4681 65.023 56.0411 64.9267 56.5379C64.9187 56.594 64.8785 56.6381 64.8063 56.6702C64.742 56.7022 64.6537 56.7183 64.5414 56.7183C64.437 56.7183 64.3648 56.7102 64.3246 56.6942C64.2925 56.6862 64.2765 56.6702 64.2765 56.6461L64.3367 56.3696L64.4571 55.7325L64.8544 53.5086C64.9026 53.2442 64.9267 53.0358 64.9267 52.8835C64.9267 52.5229 64.8303 52.3426 64.6377 52.3426C64.4611 52.3426 64.2163 52.4909 63.9032 52.7874L63.8791 52.7994C63.855 52.7994 63.835 52.7874 63.8189 52.7633C63.8028 52.7313 63.7988 52.7072 63.8069 52.6912C64.0557 52.4187 64.2845 52.2144 64.4932 52.0781C64.7019 51.9419 64.9066 51.8738 65.1073 51.8738C65.2678 51.8738 65.3842 51.9259 65.4565 52.0301C65.5368 52.1342 65.5769 52.3146 65.5769 52.571C65.5769 52.7713 65.5448 53.0759 65.4806 53.4846L65.2277 54.855C65.5006 54.0135 65.7976 53.3083 66.1187 52.7393C66.4479 52.1623 66.765 51.8738 67.07 51.8738Z" fill="#F8F8F8"/>
<path d="M71.4321 52.3666C71.4321 52.6151 71.2996 52.8555 71.0347 53.0879C70.7778 53.3123 70.4287 53.5086 69.9871 53.6769C69.5537 53.8452 69.084 53.9695 68.5783 54.0496C68.5382 54.306 68.5181 54.5264 68.5181 54.7107C68.5181 55.2076 68.6305 55.6083 68.8553 55.9128C69.08 56.2094 69.3971 56.3576 69.8065 56.3576C70.2561 56.3576 70.6574 56.2254 71.0106 55.9609H71.0347C71.0588 55.9609 71.0789 55.973 71.0949 55.997C71.119 56.021 71.119 56.0451 71.0949 56.0691C70.533 56.5339 69.947 56.7663 69.3369 56.7663C68.8312 56.7663 68.4459 56.6061 68.181 56.2855C67.9241 55.9569 67.7957 55.5362 67.7957 55.0233C67.7957 54.847 67.8157 54.6386 67.8559 54.3982C67.9281 53.9895 68.0967 53.5888 68.3616 53.1961C68.6265 52.7954 68.9556 52.4668 69.349 52.2104C69.7503 51.9539 70.1678 51.8257 70.6012 51.8257C70.8661 51.8257 71.0708 51.8738 71.2153 51.9699C71.3598 52.0661 71.4321 52.1983 71.4321 52.3666ZM70.0714 52.1503C69.7022 52.1503 69.3891 52.3146 69.1322 52.6431C68.8834 52.9637 68.7108 53.3764 68.6145 53.8813C69.1764 53.7851 69.6299 53.6409 69.9751 53.4485C70.3283 53.2562 70.541 53.0158 70.6133 52.7273C70.6293 52.6471 70.6374 52.591 70.6374 52.559C70.6374 52.4227 70.5812 52.3226 70.4688 52.2585C70.3564 52.1863 70.224 52.1503 70.0714 52.1503Z" fill="#F8F8F8"/>
<path d="M80.4888 49.1089C80.553 49.1089 80.5731 49.145 80.549 49.2171L80.3322 50.7077C80.3242 50.7398 80.2961 50.7518 80.2479 50.7438C80.1998 50.7358 80.1797 50.7198 80.1877 50.6957C80.1958 50.6316 80.1998 50.5435 80.1998 50.4313C80.1998 50.0786 80.1155 49.8022 79.9469 49.6018C79.7864 49.3934 79.5616 49.2893 79.2726 49.2893H78.2852C78.0284 49.2893 77.8357 49.3093 77.7073 49.3494C77.5869 49.3894 77.4945 49.4656 77.4303 49.5778C77.3741 49.6819 77.322 49.8542 77.2738 50.0947L76.8162 52.7273H78.3695C78.6826 52.7273 78.9114 52.6672 79.0559 52.547C79.2084 52.4187 79.3128 52.1983 79.3689 51.8858C79.377 51.8537 79.4051 51.8417 79.4532 51.8497C79.5014 51.8497 79.5215 51.8658 79.5134 51.8978C79.4894 52.0821 79.4532 52.2865 79.4051 52.5109L79.3449 52.8595C79.2887 53.1881 79.2566 53.3924 79.2485 53.4726L79.1642 53.9775C79.1562 54.0095 79.1281 54.0255 79.08 54.0255C79.0318 54.0175 79.0117 53.9975 79.0198 53.9654C79.0438 53.8292 79.0559 53.713 79.0559 53.6168C79.0559 53.3924 78.9957 53.2322 78.8753 53.136C78.7549 53.0318 78.5582 52.9797 78.2852 52.9797H76.7681L76.3105 55.6003C76.2784 55.7926 76.2623 55.9169 76.2623 55.973C76.2623 56.1733 76.3426 56.3095 76.5032 56.3817C76.6717 56.4458 76.9888 56.4778 77.4544 56.4778C77.4705 56.4778 77.4785 56.5019 77.4785 56.55C77.4785 56.598 77.4705 56.6221 77.4544 56.6221C77.2056 56.6221 77.0049 56.6181 76.8524 56.6101L75.7807 56.598L75.0823 56.6101C74.9619 56.6181 74.7933 56.6221 74.5766 56.6221C74.5605 56.6221 74.5525 56.598 74.5525 56.55C74.5525 56.5019 74.5605 56.4778 74.5766 56.4778C74.8335 56.4778 75.0261 56.4578 75.1546 56.4177C75.283 56.3777 75.3793 56.3015 75.4435 56.1893C75.5078 56.0691 75.564 55.8888 75.6121 55.6484L76.5874 50.0826C76.6196 49.9464 76.6356 49.8182 76.6356 49.698C76.6356 49.5217 76.5794 49.4055 76.467 49.3494C76.3547 49.2853 76.154 49.2532 75.865 49.2532C75.8489 49.2532 75.8409 49.2292 75.8409 49.1811C75.8409 49.133 75.8489 49.1089 75.865 49.1089H80.4888Z" fill="#F8F8F8"/>
<path d="M82.6248 50.876C82.4643 50.876 82.3399 50.832 82.2516 50.7438C82.1633 50.6556 82.1191 50.5354 82.1191 50.3832C82.1191 50.2309 82.1633 50.1107 82.2516 50.0225C82.3399 49.9344 82.4643 49.8903 82.6248 49.8903C82.7854 49.8903 82.9058 49.9344 82.9861 50.0225C83.0744 50.1027 83.1185 50.2229 83.1185 50.3832C83.1185 50.5354 83.0744 50.6556 82.9861 50.7438C82.9058 50.832 82.7854 50.876 82.6248 50.876ZM84.443 50.876C84.2825 50.876 84.1541 50.832 84.0577 50.7438C83.9694 50.6556 83.9253 50.5354 83.9253 50.3832C83.9253 50.2309 83.9694 50.1107 84.0577 50.0225C84.1541 49.9344 84.2825 49.8903 84.443 49.8903C84.6036 49.8903 84.724 49.9344 84.8043 50.0225C84.8926 50.1027 84.9367 50.2229 84.9367 50.3832C84.9367 50.5354 84.8926 50.6556 84.8043 50.7438C84.724 50.832 84.6036 50.876 84.443 50.876ZM85.4906 55.7085C85.4987 55.7005 85.5107 55.6965 85.5267 55.6965C85.5508 55.6965 85.5709 55.7125 85.587 55.7446C85.603 55.7686 85.603 55.7886 85.587 55.8047C85.306 56.1252 85.0531 56.3616 84.8284 56.5139C84.6036 56.6582 84.3869 56.7303 84.1782 56.7303C84.0417 56.7303 83.9413 56.6902 83.8771 56.6101C83.8129 56.5219 83.7808 56.3857 83.7808 56.2014C83.7808 55.993 83.8009 55.7846 83.841 55.5763L84.0939 54.1217C83.8049 54.9552 83.4637 55.6083 83.0704 56.0811C82.677 56.546 82.2636 56.7784 81.8301 56.7784C81.3003 56.7784 81.0354 56.4818 81.0354 55.8888C81.0354 55.6724 81.0635 55.44 81.1197 55.1916L81.5532 53.0518C81.5773 52.9156 81.5893 52.8074 81.5893 52.7273C81.5893 52.4788 81.513 52.3546 81.3605 52.3546C81.2 52.3546 80.9351 52.5389 80.5658 52.9076C80.5498 52.9236 80.5337 52.9316 80.5177 52.9316C80.4936 52.9316 80.4735 52.9196 80.4575 52.8956C80.4414 52.8635 80.4454 52.8355 80.4695 52.8114C80.7504 52.4909 80.9953 52.2544 81.204 52.1022C81.4207 51.9499 81.6294 51.8738 81.8301 51.8738C82.1111 51.8738 82.2516 52.0581 82.2516 52.4268C82.2516 52.547 82.2235 52.7553 82.1673 53.0518L81.782 54.9632C81.7258 55.2677 81.6977 55.4881 81.6977 55.6243C81.6977 56.0811 81.8703 56.3095 82.2154 56.3095C82.4804 56.3095 82.7533 56.1412 83.0342 55.8047C83.3232 55.4681 83.5921 54.9792 83.841 54.3381C84.0979 53.697 84.3026 52.9396 84.4551 52.0661C84.4792 51.9459 84.6076 51.8858 84.8404 51.8858C85.0331 51.8858 85.1294 51.9098 85.1294 51.9579L85.0812 52.2344C85.0331 52.4267 84.9889 52.6391 84.9488 52.8715L84.4551 55.5522C84.431 55.6724 84.419 55.7806 84.419 55.8768C84.419 56.1332 84.4992 56.2615 84.6598 56.2615C84.7481 56.2615 84.8645 56.2134 85.009 56.1172C85.1615 56.021 85.3221 55.8848 85.4906 55.7085Z" fill="#F8F8F8"/>
<path d="M85.2359 59.9279C84.979 59.9279 84.7863 59.8798 84.6579 59.7836C84.5295 59.6955 84.4652 59.5833 84.4652 59.447C84.4652 59.3348 84.5094 59.2387 84.5977 59.1585C84.678 59.0784 84.7823 59.0383 84.9108 59.0383C85.0312 59.0383 85.1195 59.0704 85.1757 59.1345C85.2238 59.1986 85.268 59.2908 85.3081 59.411C85.3402 59.5152 85.3764 59.5913 85.4165 59.6394C85.4486 59.6875 85.5088 59.7115 85.5971 59.7115C85.6854 59.7115 85.7657 59.6434 85.8379 59.5071C85.9022 59.3789 85.9664 59.1425 86.0306 58.7979C86.1028 58.4533 86.1992 57.9164 86.3196 57.1871L87.2588 51.3088C87.4354 50.2429 87.7605 49.4095 88.2341 48.8084C88.7158 48.1994 89.2978 47.8948 89.9801 47.8948C90.3493 47.8948 90.6183 47.991 90.7868 48.1833C90.9634 48.3676 91.0517 48.596 91.0517 48.8685C91.0517 48.9567 91.0477 49.0248 91.0397 49.0729C90.9996 49.3373 90.9072 49.5778 90.7627 49.7941C90.6183 50.0105 90.4176 50.263 90.1607 50.5515C89.944 50.7919 89.7754 50.9962 89.655 51.1645C89.5426 51.3248 89.4703 51.4971 89.4382 51.6814C89.4302 51.7295 89.4262 51.7976 89.4262 51.8858C89.4262 52.1102 89.4744 52.3226 89.5707 52.5229C89.667 52.7233 89.8115 52.9797 90.0042 53.2923C90.2129 53.6289 90.3694 53.9134 90.4738 54.1458C90.5781 54.3702 90.6303 54.6146 90.6303 54.879C90.6303 54.9351 90.6223 55.0273 90.6062 55.1555C90.5741 55.404 90.4858 55.6524 90.3413 55.9008C90.1968 56.1493 90.0082 56.3536 89.7754 56.5139C89.5426 56.6742 89.2817 56.7543 88.9927 56.7543C88.7117 56.7543 88.495 56.6902 88.3425 56.562C88.198 56.4338 88.1257 56.2855 88.1257 56.1172C88.1257 56.005 88.1579 55.9128 88.2221 55.8407C88.2943 55.7686 88.3907 55.7325 88.5111 55.7325C88.6154 55.7325 88.6917 55.7606 88.7398 55.8167C88.796 55.8728 88.8522 55.9609 88.9084 56.0811C88.9646 56.2094 89.0208 56.3055 89.077 56.3696C89.1412 56.4338 89.2375 56.4658 89.366 56.4658C89.5586 56.4658 89.7112 56.3937 89.8235 56.2494C89.944 56.1052 90.0242 55.9008 90.0644 55.6364C90.0724 55.5883 90.0764 55.5202 90.0764 55.432C90.0764 55.1916 90.0282 54.9672 89.9319 54.7588C89.8356 54.5425 89.6871 54.278 89.4864 53.9654C89.2857 53.6609 89.1332 53.4045 89.0288 53.1961C88.9325 52.9797 88.8843 52.7473 88.8843 52.4989C88.8843 52.4428 88.8924 52.3506 88.9084 52.2224C88.9486 51.982 89.0208 51.7736 89.1252 51.5973C89.2295 51.413 89.382 51.1886 89.5827 50.9241C89.7995 50.6516 89.968 50.4072 90.0884 50.1908C90.2089 49.9664 90.2891 49.706 90.3293 49.4095C90.3534 49.2732 90.3654 49.137 90.3654 49.0008C90.3654 48.3917 90.1366 48.0872 89.6791 48.0872C89.2777 48.0872 88.9164 48.3676 88.5954 48.9286C88.2743 49.4816 88.0334 50.263 87.8729 51.2727L86.9939 56.8745C86.8655 57.6599 86.729 58.269 86.5845 58.7017C86.44 59.1425 86.2594 59.455 86.0426 59.6394C85.8339 59.8317 85.565 59.9279 85.2359 59.9279Z" fill="#F8F8F8"/>
<path d="M95.1968 52.3666C95.1968 52.6151 95.0643 52.8555 94.7994 53.0879C94.5426 53.3123 94.1934 53.5086 93.7519 53.6769C93.3184 53.8452 92.8488 53.9695 92.343 54.0496C92.3029 54.306 92.2828 54.5264 92.2828 54.7107C92.2828 55.2076 92.3952 55.6083 92.62 55.9128C92.8448 56.2094 93.1619 56.3576 93.5713 56.3576C94.0208 56.3576 94.4221 56.2254 94.7754 55.9609H94.7994C94.8235 55.9609 94.8436 55.973 94.8596 55.997C94.8837 56.021 94.8837 56.0451 94.8596 56.0691C94.2977 56.5339 93.7117 56.7663 93.1016 56.7663C92.5959 56.7663 92.2106 56.6061 91.9457 56.2855C91.6888 55.9569 91.5604 55.5362 91.5604 55.0233C91.5604 54.847 91.5805 54.6386 91.6206 54.3982C91.6928 53.9895 91.8614 53.5888 92.1263 53.1961C92.3912 52.7954 92.7203 52.4668 93.1137 52.2104C93.5151 51.9539 93.9325 51.8257 94.366 51.8257C94.6309 51.8257 94.8356 51.8738 94.9801 51.9699C95.1246 52.0661 95.1968 52.1983 95.1968 52.3666ZM93.8362 52.1503C93.4669 52.1503 93.1538 52.3146 92.8969 52.6431C92.6481 52.9637 92.4755 53.3764 92.3792 53.8813C92.9411 53.7851 93.3946 53.6409 93.7398 53.4485C94.093 53.2562 94.3058 53.0158 94.378 52.7273C94.3941 52.6471 94.4021 52.591 94.4021 52.559C94.4021 52.4227 94.3459 52.3226 94.2335 52.2585C94.1211 52.1863 93.9887 52.1503 93.8362 52.1503Z" fill="#F8F8F8"/>
<path d="M100.256 50.4553C100.095 50.4553 99.9669 50.4112 99.8705 50.3231C99.7822 50.2269 99.7381 50.0987 99.7381 49.9384C99.7381 49.7861 99.7822 49.6659 99.8705 49.5778C99.9669 49.4896 100.095 49.4455 100.256 49.4455C100.416 49.4455 100.541 49.4896 100.629 49.5778C100.717 49.6659 100.762 49.7861 100.762 49.9384C100.762 50.0987 100.717 50.2269 100.629 50.3231C100.541 50.4112 100.416 50.4553 100.256 50.4553ZM99.4973 56.7303C99.3528 56.7303 99.2444 56.6902 99.1721 56.6101C99.0999 56.5219 99.0638 56.3817 99.0638 56.1893C99.0638 56.0691 99.0919 55.8568 99.1481 55.5522L99.6418 53.0518C99.6658 52.9316 99.6779 52.8234 99.6779 52.7273C99.6779 52.4708 99.5976 52.3426 99.437 52.3426C99.3407 52.3426 99.2163 52.3907 99.0638 52.4869C98.9193 52.583 98.7668 52.7193 98.6062 52.8956C98.5982 52.9036 98.5861 52.9076 98.5701 52.9076C98.546 52.9076 98.5219 52.8956 98.4978 52.8715C98.4818 52.8395 98.4858 52.8154 98.5099 52.7994C98.7908 52.4788 99.0437 52.2464 99.2685 52.1022C99.4932 51.9499 99.706 51.8738 99.9067 51.8738C100.051 51.8738 100.155 51.9179 100.22 52.006C100.292 52.0862 100.328 52.2224 100.328 52.4147C100.328 52.567 100.304 52.7714 100.256 53.0278L99.7622 55.5522C99.7381 55.6804 99.726 55.7886 99.726 55.8768C99.726 56.1252 99.8023 56.2494 99.9548 56.2494C100.147 56.2494 100.42 56.0731 100.774 55.7205C100.79 55.7045 100.806 55.6965 100.822 55.6965C100.846 55.6965 100.866 55.7125 100.882 55.7446C100.898 55.7686 100.894 55.7926 100.87 55.8167C100.597 56.1292 100.352 56.3616 100.135 56.5139C99.9187 56.6582 99.706 56.7303 99.4973 56.7303Z" fill="#F8F8F8"/>
<path d="M106.47 55.6965C106.486 55.6804 106.498 55.6724 106.506 55.6724C106.53 55.6724 106.55 55.6885 106.566 55.7205C106.59 55.7446 106.59 55.7686 106.566 55.7926C106.293 56.1132 106.048 56.3496 105.832 56.5019C105.623 56.6541 105.418 56.7303 105.218 56.7303C105.073 56.7303 104.965 56.6902 104.893 56.6101C104.828 56.5219 104.796 56.3817 104.796 56.1893C104.796 56.0291 104.82 55.8167 104.868 55.5522L105.218 53.6409C105.266 53.3844 105.29 53.168 105.29 52.9917C105.29 52.5269 105.117 52.2945 104.772 52.2945C104.507 52.2945 104.23 52.4628 103.941 52.7994C103.66 53.136 103.395 53.6289 103.147 54.278C102.898 54.9191 102.697 55.6724 102.545 56.5379C102.528 56.594 102.484 56.6381 102.412 56.6702C102.348 56.7022 102.26 56.7183 102.147 56.7183C102.035 56.7183 101.959 56.7102 101.918 56.6942C101.886 56.6862 101.87 56.6702 101.87 56.6461L101.918 56.3696C101.967 56.1773 102.011 55.9649 102.051 55.7325L102.545 53.0518C102.569 52.9316 102.581 52.8234 102.581 52.7273C102.581 52.4708 102.5 52.3426 102.34 52.3426C102.243 52.3426 102.119 52.3907 101.967 52.4869C101.822 52.583 101.67 52.7193 101.509 52.8956C101.501 52.9036 101.489 52.9076 101.473 52.9076C101.449 52.9076 101.425 52.8956 101.401 52.8715C101.385 52.8395 101.389 52.8154 101.413 52.7994C101.686 52.4869 101.934 52.2544 102.159 52.1022C102.392 51.9499 102.613 51.8738 102.821 51.8738C102.958 51.8738 103.058 51.9179 103.122 52.006C103.187 52.0862 103.219 52.2184 103.219 52.4027C103.219 52.6111 103.199 52.8194 103.159 53.0278L102.906 54.4823C103.195 53.6489 103.536 52.9998 103.929 52.5349C104.323 52.0621 104.736 51.8257 105.169 51.8257C105.434 51.8257 105.631 51.8978 105.759 52.0421C105.888 52.1863 105.952 52.4147 105.952 52.7273C105.952 52.9196 105.928 53.148 105.88 53.4125L105.483 55.5522C105.458 55.6724 105.446 55.7806 105.446 55.8768C105.446 56.1252 105.527 56.2494 105.687 56.2494C105.856 56.2494 106.117 56.0651 106.47 55.6965Z" fill="#F8F8F8"/>
<path d="M114.083 51.7295C114.091 51.7055 114.119 51.6975 114.167 51.7055C114.215 51.7135 114.235 51.7255 114.227 51.7415L113.204 57.3674C113.051 58.2249 112.754 58.878 112.312 59.3268C111.879 59.7756 111.313 60 110.615 60C110.245 60 109.944 59.9199 109.712 59.7596C109.479 59.6073 109.362 59.415 109.362 59.1826C109.362 59.1265 109.366 59.0864 109.374 59.0624C109.407 58.838 109.539 58.7258 109.772 58.7258C109.876 58.7258 109.952 58.7538 110.001 58.8099C110.049 58.866 110.105 58.9622 110.169 59.0984C110.249 59.2988 110.35 59.455 110.47 59.5672C110.599 59.6794 110.803 59.7355 111.084 59.7355C111.413 59.7355 111.702 59.5833 111.951 59.2787C112.2 58.9822 112.397 58.4413 112.541 57.6559L113.131 54.302C112.762 55.0473 112.345 55.6484 111.879 56.1052C111.421 56.554 110.98 56.7784 110.554 56.7784C110.057 56.7784 109.808 56.4818 109.808 55.8888C109.808 55.8247 109.816 55.7045 109.832 55.5282C109.912 54.9592 110.125 54.3862 110.47 53.8092C110.815 53.2322 111.221 52.7593 111.686 52.3907C112.152 52.014 112.589 51.8257 112.999 51.8257C113.151 51.8257 113.3 51.8537 113.444 51.9098C113.589 51.9659 113.705 52.0501 113.794 52.1623C113.938 52.0421 114.034 51.8978 114.083 51.7295ZM110.988 56.1893C111.277 56.1893 111.582 56.0411 111.903 55.7446C112.232 55.448 112.525 55.0754 112.782 54.6266C113.039 54.1698 113.212 53.725 113.3 53.2923C113.324 53.1881 113.332 53.0959 113.324 53.0158C113.324 52.7754 113.26 52.587 113.131 52.4508C113.011 52.3146 112.826 52.2464 112.577 52.2464C112.296 52.2544 112.007 52.3827 111.71 52.6311C111.421 52.8715 111.169 53.2001 110.952 53.6168C110.735 54.0255 110.591 54.4823 110.518 54.9872C110.494 55.1635 110.482 55.3238 110.482 55.4681C110.482 55.9489 110.651 56.1893 110.988 56.1893Z" fill="#F8F8F8"/>
<path d="M119.756 55.7085C119.764 55.7005 119.776 55.6965 119.792 55.6965C119.816 55.6965 119.836 55.7125 119.852 55.7446C119.868 55.7686 119.868 55.7886 119.852 55.8047C119.571 56.1252 119.319 56.3616 119.094 56.5139C118.869 56.6582 118.652 56.7303 118.444 56.7303C118.307 56.7303 118.207 56.6902 118.143 56.6101C118.078 56.5219 118.046 56.3857 118.046 56.2014C118.046 55.993 118.066 55.7846 118.106 55.5763L118.359 54.1217C118.07 54.9552 117.729 55.6083 117.336 56.0811C116.942 56.546 116.529 56.7784 116.096 56.7784C115.566 56.7784 115.301 56.4818 115.301 55.8888C115.301 55.6724 115.329 55.44 115.385 55.1916L115.819 53.0518C115.843 52.9156 115.855 52.8074 115.855 52.7273C115.855 52.4788 115.778 52.3546 115.626 52.3546C115.465 52.3546 115.2 52.5389 114.831 52.9076C114.815 52.9236 114.799 52.9316 114.783 52.9316C114.759 52.9316 114.739 52.9196 114.723 52.8956C114.707 52.8635 114.711 52.8355 114.735 52.8114C115.016 52.4909 115.261 52.2544 115.469 52.1022C115.686 51.9499 115.895 51.8738 116.096 51.8738C116.377 51.8738 116.517 52.0581 116.517 52.4268C116.517 52.547 116.489 52.7553 116.433 53.0518L116.047 54.9632C115.991 55.2677 115.963 55.4881 115.963 55.6243C115.963 56.0811 116.136 56.3095 116.481 56.3095C116.746 56.3095 117.019 56.1412 117.3 55.8047C117.589 55.4681 117.858 54.9792 118.106 54.3381C118.363 53.697 118.568 52.9396 118.721 52.0661C118.745 51.9459 118.873 51.8858 119.106 51.8858C119.298 51.8858 119.395 51.9098 119.395 51.9579L119.347 52.2344C119.298 52.4267 119.254 52.6391 119.214 52.8715L118.721 55.5522C118.696 55.6724 118.684 55.7806 118.684 55.8768C118.684 56.1332 118.765 56.2615 118.925 56.2615C119.014 56.2615 119.13 56.2134 119.274 56.1172C119.427 56.021 119.587 55.8848 119.756 55.7085Z" fill="#F8F8F8"/>
<path d="M123.595 52.018C123.651 52.018 123.68 52.0461 123.68 52.1022C123.68 52.1663 123.635 52.2504 123.547 52.3546C123.459 52.4588 123.375 52.5109 123.294 52.5109C123.254 52.5109 123.094 52.4949 122.813 52.4628C122.54 52.4227 122.271 52.3987 122.006 52.3907L121.476 55.3719C121.452 55.5001 121.44 55.6163 121.44 55.7205C121.44 55.9209 121.488 56.0691 121.584 56.1653C121.681 56.2615 121.829 56.3095 122.03 56.3095C122.239 56.3095 122.435 56.2655 122.62 56.1773C122.805 56.0811 122.993 55.9489 123.186 55.7806H123.198C123.222 55.7806 123.246 55.7926 123.27 55.8167C123.302 55.8407 123.306 55.8608 123.282 55.8768C122.921 56.1893 122.604 56.4177 122.331 56.562C122.066 56.6982 121.809 56.7663 121.56 56.7663C121.328 56.7663 121.135 56.7062 120.982 56.586C120.83 56.4658 120.754 56.2735 120.754 56.009C120.754 55.9609 120.762 55.8728 120.778 55.7446L121.295 52.9437C121.328 52.7914 121.344 52.6632 121.344 52.559C121.344 52.4468 121.311 52.3747 121.247 52.3426C121.183 52.3025 121.063 52.2825 120.886 52.2825C120.862 52.2825 120.85 52.2625 120.85 52.2224C120.85 52.2064 120.854 52.1903 120.862 52.1743C120.878 52.1503 120.89 52.1382 120.898 52.1382C121.171 52.1382 121.408 52.0501 121.608 51.8738C121.809 51.6975 121.946 51.4771 122.018 51.2126C122.034 51.1886 122.07 51.1766 122.126 51.1766C122.207 51.1766 122.239 51.1886 122.223 51.2126L122.066 52.1022C122.459 52.0862 122.833 52.0661 123.186 52.0421L123.595 52.018Z" fill="#F8F8F8"/>
<path d="M127.616 52.3666C127.616 52.6151 127.484 52.8555 127.219 53.0879C126.962 53.3123 126.613 53.5086 126.171 53.6769C125.738 53.8452 125.268 53.9695 124.762 54.0496C124.722 54.306 124.702 54.5264 124.702 54.7107C124.702 55.2076 124.814 55.6083 125.039 55.9128C125.264 56.2094 125.581 56.3576 125.991 56.3576C126.44 56.3576 126.841 56.2254 127.195 55.9609H127.219C127.243 55.9609 127.263 55.973 127.279 55.997C127.303 56.021 127.303 56.0451 127.279 56.0691C126.717 56.5339 126.131 56.7663 125.521 56.7663C125.015 56.7663 124.63 56.6061 124.365 56.2855C124.108 55.9569 123.98 55.5362 123.98 55.0233C123.98 54.847 124 54.6386 124.04 54.3982C124.112 53.9895 124.281 53.5888 124.546 53.1961C124.81 52.7954 125.14 52.4668 125.533 52.2104C125.934 51.9539 126.352 51.8257 126.785 51.8257C127.05 51.8257 127.255 51.8738 127.399 51.9699C127.544 52.0661 127.616 52.1983 127.616 52.3666ZM126.255 52.1503C125.886 52.1503 125.573 52.3146 125.316 52.6431C125.067 52.9637 124.895 53.3764 124.798 53.8813C125.36 53.7851 125.814 53.6409 126.159 53.4485C126.512 53.2562 126.725 53.0158 126.797 52.7273C126.813 52.6471 126.821 52.591 126.821 52.559C126.821 52.4227 126.765 52.3226 126.653 52.2585C126.54 52.1863 126.408 52.1503 126.255 52.1503Z" fill="#F8F8F8"/>
<path d="M133.092 55.6965C133.108 55.6804 133.12 55.6724 133.128 55.6724C133.152 55.6724 133.172 55.6885 133.188 55.7205C133.212 55.7446 133.212 55.7686 133.188 55.7926C132.915 56.1132 132.671 56.3496 132.454 56.5019C132.245 56.6541 132.04 56.7303 131.84 56.7303C131.695 56.7303 131.587 56.6902 131.515 56.6101C131.45 56.5219 131.418 56.3817 131.418 56.1893C131.418 56.0291 131.442 55.8167 131.491 55.5522L131.84 53.6409C131.888 53.3844 131.912 53.168 131.912 52.9917C131.912 52.5269 131.739 52.2945 131.394 52.2945C131.129 52.2945 130.852 52.4628 130.563 52.7994C130.282 53.136 130.018 53.6289 129.769 54.278C129.52 54.9191 129.319 55.6724 129.167 56.5379C129.151 56.594 129.106 56.6381 129.034 56.6702C128.97 56.7022 128.882 56.7183 128.769 56.7183C128.657 56.7183 128.581 56.7102 128.54 56.6942C128.508 56.6862 128.492 56.6702 128.492 56.6461L128.54 56.3696C128.589 56.1773 128.633 55.9649 128.673 55.7325L129.167 53.0518C129.191 52.9316 129.203 52.8234 129.203 52.7273C129.203 52.4708 129.122 52.3426 128.962 52.3426C128.866 52.3426 128.741 52.3907 128.589 52.4869C128.444 52.583 128.292 52.7193 128.131 52.8956C128.123 52.9036 128.111 52.9076 128.095 52.9076C128.071 52.9076 128.047 52.8956 128.023 52.8715C128.007 52.8395 128.011 52.8154 128.035 52.7994C128.308 52.4869 128.557 52.2544 128.781 52.1022C129.014 51.9499 129.235 51.8738 129.444 51.8738C129.58 51.8738 129.68 51.9179 129.745 52.006C129.809 52.0862 129.841 52.2184 129.841 52.4027C129.841 52.6111 129.821 52.8194 129.781 53.0278L129.528 54.4823C129.817 53.6489 130.158 52.9998 130.551 52.5349C130.945 52.0621 131.358 51.8257 131.792 51.8257C132.056 51.8257 132.253 51.8978 132.382 52.0421C132.51 52.1863 132.574 52.4147 132.574 52.7273C132.574 52.9196 132.55 53.148 132.502 53.4125L132.105 55.5522C132.081 55.6724 132.069 55.7806 132.069 55.8768C132.069 56.1252 132.149 56.2494 132.309 56.2494C132.478 56.2494 132.739 56.0651 133.092 55.6965Z" fill="#F8F8F8"/>
<path d="M144.63 49.1089C144.646 49.1089 144.654 49.133 144.654 49.1811C144.654 49.2292 144.646 49.2532 144.63 49.2532C144.373 49.2532 144.181 49.2772 144.052 49.3253C143.924 49.3654 143.827 49.4415 143.763 49.5537C143.699 49.6659 143.647 49.8422 143.607 50.0826L142.619 55.6484C142.595 55.7926 142.583 55.9169 142.583 56.021C142.583 56.2054 142.635 56.3296 142.74 56.3937C142.852 56.4498 143.057 56.4778 143.354 56.4778C143.378 56.4778 143.39 56.5019 143.39 56.55C143.39 56.598 143.378 56.6221 143.354 56.6221C143.153 56.6221 142.992 56.6181 142.872 56.6101L142.15 56.598L141.427 56.6101C141.299 56.6181 141.126 56.6221 140.909 56.6221C140.893 56.6221 140.885 56.598 140.885 56.55C140.885 56.5019 140.893 56.4778 140.909 56.4778C141.174 56.4778 141.367 56.4578 141.487 56.4177C141.616 56.3777 141.712 56.3015 141.776 56.1893C141.841 56.0691 141.893 55.8888 141.933 55.6484L142.427 52.8355H138.561L138.056 55.6484C138.024 55.8568 138.007 55.989 138.007 56.0451C138.007 56.2134 138.06 56.3296 138.164 56.3937C138.276 56.4498 138.481 56.4778 138.778 56.4778C138.802 56.4778 138.814 56.5019 138.814 56.55C138.814 56.598 138.802 56.6221 138.778 56.6221C138.569 56.6221 138.401 56.6181 138.272 56.6101L137.538 56.598L136.827 56.6101C136.707 56.6181 136.542 56.6221 136.334 56.6221C136.31 56.6221 136.298 56.598 136.298 56.55C136.298 56.5019 136.31 56.4778 136.334 56.4778C136.591 56.4778 136.783 56.4578 136.912 56.4177C137.048 56.3777 137.149 56.3015 137.213 56.1893C137.277 56.0691 137.329 55.8888 137.369 55.6484L138.357 50.0826C138.381 49.9224 138.393 49.7981 138.393 49.71C138.393 49.5257 138.337 49.4055 138.224 49.3494C138.12 49.2853 137.919 49.2532 137.622 49.2532C137.606 49.2532 137.598 49.2292 137.598 49.1811C137.598 49.133 137.606 49.1089 137.622 49.1089L138.128 49.121C138.417 49.137 138.65 49.145 138.826 49.145C139.019 49.145 139.268 49.137 139.573 49.121L140.066 49.1089C140.083 49.1089 140.091 49.133 140.091 49.1811C140.091 49.2292 140.083 49.2532 140.066 49.2532C139.81 49.2532 139.617 49.2772 139.488 49.3253C139.368 49.3734 139.276 49.4576 139.212 49.5778C139.147 49.69 139.091 49.8663 139.043 50.1067L138.597 52.583H142.475L142.908 50.1067C142.94 49.8983 142.956 49.7661 142.956 49.71C142.956 49.5337 142.9 49.4135 142.788 49.3494C142.683 49.2853 142.487 49.2532 142.198 49.2532C142.174 49.2532 142.162 49.2292 142.162 49.1811C142.162 49.133 142.174 49.1089 142.198 49.1089L142.691 49.121C142.98 49.137 143.217 49.145 143.402 49.145C143.578 49.145 143.819 49.137 144.124 49.121L144.63 49.1089Z" fill="#F8F8F8"/>
<path d="M146.953 50.876C146.792 50.876 146.668 50.832 146.579 50.7438C146.491 50.6556 146.447 50.5354 146.447 50.3832C146.447 50.2309 146.491 50.1107 146.579 50.0225C146.668 49.9344 146.792 49.8903 146.953 49.8903C147.113 49.8903 147.234 49.9344 147.314 50.0225C147.402 50.1027 147.446 50.2229 147.446 50.3832C147.446 50.5354 147.402 50.6556 147.314 50.7438C147.234 50.832 147.113 50.876 146.953 50.876ZM148.771 50.876C148.61 50.876 148.482 50.832 148.386 50.7438C148.297 50.6556 148.253 50.5354 148.253 50.3832C148.253 50.2309 148.297 50.1107 148.386 50.0225C148.482 49.9344 148.61 49.8903 148.771 49.8903C148.932 49.8903 149.052 49.9344 149.132 50.0225C149.221 50.1027 149.265 50.2229 149.265 50.3832C149.265 50.5354 149.221 50.6556 149.132 50.7438C149.052 50.832 148.932 50.876 148.771 50.876ZM149.204 55.6965C149.212 55.6885 149.225 55.6845 149.241 55.6845C149.265 55.6845 149.285 55.7005 149.301 55.7325C149.317 55.7566 149.317 55.7766 149.301 55.7926C149.028 56.1052 148.783 56.3416 148.566 56.5019C148.358 56.6541 148.153 56.7303 147.952 56.7303C147.816 56.7303 147.711 56.6902 147.639 56.6101C147.575 56.5219 147.543 56.3817 147.543 56.1893C147.543 56.0291 147.567 55.8167 147.615 55.5522L147.832 54.302C147.462 55.0473 147.045 55.6484 146.579 56.1052C146.122 56.554 145.68 56.7784 145.255 56.7784C144.757 56.7784 144.508 56.4818 144.508 55.8888C144.508 55.8247 144.516 55.7045 144.533 55.5282C144.613 54.9592 144.825 54.3862 145.171 53.8092C145.516 53.2322 145.921 52.7593 146.387 52.3907C146.852 52.014 147.29 51.8257 147.699 51.8257C147.852 51.8257 148 51.8537 148.145 51.9098C148.289 51.9659 148.406 52.0501 148.494 52.1623C148.639 52.0421 148.735 51.8978 148.783 51.7295C148.791 51.7055 148.819 51.6975 148.867 51.7055C148.915 51.7135 148.936 51.7255 148.928 51.7415L148.229 55.5522C148.205 55.6724 148.193 55.7806 148.193 55.8768C148.193 56.1252 148.265 56.2494 148.41 56.2494C148.586 56.2494 148.851 56.0651 149.204 55.6965ZM145.688 56.1893C145.977 56.1893 146.282 56.0411 146.604 55.7446C146.933 55.448 147.226 55.0754 147.483 54.6266C147.739 54.1698 147.912 53.725 148 53.2923C148.024 53.1881 148.032 53.0959 148.024 53.0158C148.024 52.7754 147.96 52.587 147.832 52.4508C147.711 52.3146 147.527 52.2464 147.278 52.2464C146.997 52.2544 146.708 52.3827 146.411 52.6311C146.122 52.8715 145.869 53.2001 145.652 53.6168C145.436 54.0255 145.291 54.4823 145.219 54.9872C145.195 55.1635 145.183 55.3238 145.183 55.4681C145.183 55.9489 145.351 56.1893 145.688 56.1893Z" fill="#F8F8F8"/>
<path d="M154.811 55.6965C154.827 55.6804 154.839 55.6724 154.847 55.6724C154.871 55.6724 154.891 55.6885 154.907 55.7205C154.931 55.7446 154.931 55.7686 154.907 55.7926C154.634 56.1132 154.389 56.3496 154.173 56.5019C153.964 56.6541 153.759 56.7303 153.558 56.7303C153.414 56.7303 153.306 56.6902 153.233 56.6101C153.169 56.5219 153.137 56.3817 153.137 56.1893C153.137 56.0291 153.161 55.8167 153.209 55.5522L153.558 53.6409C153.607 53.3844 153.631 53.168 153.631 52.9917C153.631 52.5269 153.458 52.2945 153.113 52.2945C152.848 52.2945 152.571 52.4628 152.282 52.7994C152.001 53.136 151.736 53.6289 151.487 54.278C151.239 54.9191 151.038 55.6724 150.885 56.5379C150.869 56.594 150.825 56.6381 150.753 56.6702C150.689 56.7022 150.6 56.7183 150.488 56.7183C150.376 56.7183 150.299 56.7102 150.259 56.6942C150.227 56.6862 150.211 56.6702 150.211 56.6461L150.259 56.3696C150.307 56.1773 150.351 55.9649 150.392 55.7325L150.885 53.0518C150.909 52.9316 150.921 52.8234 150.921 52.7273C150.921 52.4708 150.841 52.3426 150.681 52.3426C150.584 52.3426 150.46 52.3907 150.307 52.4869C150.163 52.583 150.01 52.7193 149.85 52.8956C149.842 52.9036 149.83 52.9076 149.814 52.9076C149.79 52.9076 149.765 52.8956 149.741 52.8715C149.725 52.8395 149.729 52.8154 149.753 52.7994C150.026 52.4869 150.275 52.2544 150.5 52.1022C150.733 51.9499 150.954 51.8738 151.162 51.8738C151.299 51.8738 151.399 51.9179 151.463 52.006C151.527 52.0862 151.56 52.2184 151.56 52.4027C151.56 52.6111 151.54 52.8194 151.499 53.0278L151.247 54.4823C151.536 53.6489 151.877 52.9998 152.27 52.5349C152.663 52.0621 153.077 51.8257 153.51 51.8257C153.775 51.8257 153.972 51.8978 154.1 52.0421C154.229 52.1863 154.293 52.4147 154.293 52.7273C154.293 52.9196 154.269 53.148 154.221 53.4125L153.823 55.5522C153.799 55.6724 153.787 55.7806 153.787 55.8768C153.787 56.1252 153.867 56.2494 154.028 56.2494C154.197 56.2494 154.457 56.0651 154.811 55.6965Z" fill="#F8F8F8"/>
<path d="M159.168 55.5522C159.144 55.6724 159.132 55.7766 159.132 55.8648C159.132 56.1212 159.212 56.2494 159.372 56.2494C159.533 56.2494 159.798 56.0651 160.167 55.6965C160.183 55.6804 160.195 55.6724 160.203 55.6724C160.227 55.6724 160.247 55.6885 160.263 55.7205C160.288 55.7446 160.288 55.7686 160.263 55.7926C159.974 56.1132 159.726 56.3496 159.517 56.5019C159.308 56.6541 159.103 56.7303 158.903 56.7303C158.622 56.7303 158.481 56.554 158.481 56.2014C158.481 56.0731 158.509 55.8568 158.566 55.5522L158.794 54.3621C158.425 55.1155 158.032 55.7085 157.614 56.1412C157.205 56.566 156.788 56.7784 156.362 56.7784C156.073 56.7784 155.836 56.6862 155.652 56.5019C155.467 56.3095 155.375 56.009 155.375 55.6003C155.375 55.5121 155.391 55.3479 155.423 55.1074C155.527 54.5304 155.744 53.9895 156.073 53.4846C156.41 52.9797 156.808 52.579 157.265 52.2825C157.731 51.978 158.192 51.8257 158.65 51.8257C158.875 51.8257 159.067 51.8778 159.228 51.982L159.758 49.1811C159.774 49.0528 159.782 48.9687 159.782 48.9286C159.782 48.7203 159.694 48.6161 159.517 48.6161C159.388 48.6161 159.192 48.6762 158.927 48.7964H158.903C158.879 48.7964 158.859 48.7764 158.843 48.7363C158.835 48.6962 158.847 48.6722 158.879 48.6642L160.444 47.9068H160.468C160.492 47.9068 160.516 47.9189 160.54 47.9429C160.564 47.9669 160.572 47.987 160.564 48.003L159.168 55.5522ZM156.747 56.1893C157.109 56.1893 157.462 55.993 157.807 55.6003C158.16 55.2076 158.449 54.7508 158.674 54.2299C158.899 53.709 159.011 53.3043 159.011 53.0158C159.011 52.7673 158.939 52.579 158.794 52.4508C158.65 52.3146 158.453 52.2464 158.204 52.2464C157.683 52.2625 157.229 52.4748 156.844 52.8835C156.466 53.2923 156.214 53.8733 156.085 54.6266C156.053 54.8109 156.037 54.9912 156.037 55.1675C156.037 55.5041 156.097 55.7606 156.218 55.9369C156.346 56.1052 156.523 56.1893 156.747 56.1893Z" fill="#F8F8F8"/>
<path d="M164.41 52.3666C164.41 52.6151 164.277 52.8555 164.012 53.0879C163.755 53.3123 163.406 53.5086 162.965 53.6769C162.531 53.8452 162.062 53.9695 161.556 54.0496C161.516 54.306 161.496 54.5264 161.496 54.7107C161.496 55.2076 161.608 55.6083 161.833 55.9128C162.058 56.2094 162.375 56.3576 162.784 56.3576C163.234 56.3576 163.635 56.2254 163.988 55.9609H164.012C164.036 55.9609 164.056 55.973 164.072 55.997C164.097 56.021 164.097 56.0451 164.072 56.0691C163.511 56.5339 162.925 56.7663 162.314 56.7663C161.809 56.7663 161.423 56.6061 161.159 56.2855C160.902 55.9569 160.773 55.5362 160.773 55.0233C160.773 54.847 160.793 54.6386 160.833 54.3982C160.906 53.9895 161.074 53.5888 161.339 53.1961C161.604 52.7954 161.933 52.4668 162.327 52.2104C162.728 51.9539 163.145 51.8257 163.579 51.8257C163.844 51.8257 164.048 51.8738 164.193 51.9699C164.337 52.0661 164.41 52.1983 164.41 52.3666ZM163.049 52.1503C162.68 52.1503 162.367 52.3146 162.11 52.6431C161.861 52.9637 161.688 53.3764 161.592 53.8813C162.154 53.7851 162.607 53.6409 162.953 53.4485C163.306 53.2562 163.519 53.0158 163.591 52.7273C163.607 52.6471 163.615 52.591 163.615 52.559C163.615 52.4227 163.559 52.3226 163.446 52.2585C163.334 52.1863 163.202 52.1503 163.049 52.1503Z" fill="#F8F8F8"/>
<path d="M169.886 55.6965C169.902 55.6804 169.914 55.6724 169.922 55.6724C169.946 55.6724 169.966 55.6885 169.982 55.7205C170.006 55.7446 170.006 55.7686 169.982 55.7926C169.709 56.1132 169.464 56.3496 169.247 56.5019C169.039 56.6541 168.834 56.7303 168.633 56.7303C168.489 56.7303 168.38 56.6902 168.308 56.6101C168.244 56.5219 168.212 56.3817 168.212 56.1893C168.212 56.0291 168.236 55.8167 168.284 55.5522L168.633 53.6409C168.682 53.3844 168.706 53.168 168.706 52.9917C168.706 52.5269 168.533 52.2945 168.188 52.2945C167.923 52.2945 167.646 52.4628 167.357 52.7994C167.076 53.136 166.811 53.6289 166.562 54.278C166.313 54.9191 166.113 55.6724 165.96 56.5379C165.944 56.594 165.9 56.6381 165.828 56.6702C165.764 56.7022 165.675 56.7183 165.563 56.7183C165.45 56.7183 165.374 56.7102 165.334 56.6942C165.302 56.6862 165.286 56.6702 165.286 56.6461L165.334 56.3696C165.382 56.1773 165.426 55.9649 165.467 55.7325L165.96 53.0518C165.984 52.9316 165.996 52.8234 165.996 52.7273C165.996 52.4708 165.916 52.3426 165.756 52.3426C165.659 52.3426 165.535 52.3907 165.382 52.4869C165.238 52.583 165.085 52.7193 164.925 52.8956C164.917 52.9036 164.905 52.9076 164.889 52.9076C164.864 52.9076 164.84 52.8956 164.816 52.8715C164.8 52.8395 164.804 52.8154 164.828 52.7994C165.101 52.4869 165.35 52.2544 165.575 52.1022C165.808 51.9499 166.028 51.8738 166.237 51.8738C166.374 51.8738 166.474 51.9179 166.538 52.006C166.602 52.0862 166.635 52.2184 166.635 52.4027C166.635 52.6111 166.614 52.8194 166.574 53.0278L166.321 54.4823C166.61 53.6489 166.952 52.9998 167.345 52.5349C167.738 52.0621 168.152 51.8257 168.585 51.8257C168.85 51.8257 169.047 51.8978 169.175 52.0421C169.304 52.1863 169.368 52.4147 169.368 52.7273C169.368 52.9196 169.344 53.148 169.296 53.4125L168.898 55.5522C168.874 55.6724 168.862 55.7806 168.862 55.8768C168.862 56.1252 168.942 56.2494 169.103 56.2494C169.272 56.2494 169.532 56.0651 169.886 55.6965Z" fill="#F8F8F8"/>
<path d="M25.8697 2.1303C25.9934 1.97157 26.2293 1.56333 26.1832 1.20027C26.1256 0.74644 25.9395 0.444239 25.6607 0.261088C25.3818 0.0779374 24.7326 -0.0631732 24.3578 0.0290076C23.983 0.121189 23.5905 0.348333 23.3706 0.72515C23.1506 1.10197 23.0053 1.52715 23.0059 1.79765C23.0064 2.035 23.166 2.42065 23.3958 2.57004C23.5456 2.66747 23.9952 2.95976 24.4637 2.92028C24.9323 2.88079 25.2591 2.73835 25.379 2.65785C25.5071 2.57182 25.7366 2.33207 25.8697 2.1303Z" fill="#DB7A64"/>
<path d="M20.8685 0.688094C21.0405 0.600419 21.1357 0.564358 21.1976 0.557031C21.2596 0.549705 21.4054 0.55796 21.534 0.588104C21.7092 0.647102 21.7612 0.676376 21.8237 0.711505C21.8862 0.746633 21.9755 0.8276 22.0003 0.876641C22.0189 0.913422 22.0578 1.02752 22.07 1.07391C22.0793 1.10888 22.0834 1.17479 22.086 1.21624C22.0867 1.22661 22.0872 1.23545 22.0877 1.2419C22.0929 1.30625 22.0633 1.45207 22.0253 1.50972L21.7719 1.89405C21.6813 1.98802 21.5994 2.04733 21.4989 2.06984C21.4034 2.09124 21.2271 2.0707 21.1395 2.05213C21.1094 2.04577 20.9309 2.00072 20.8162 1.93624C20.6913 1.86598 20.6154 1.82095 20.5355 1.71256C20.4621 1.61291 20.4544 1.49853 20.4483 1.40661C20.4475 1.3948 20.4467 1.38336 20.4458 1.37237C20.4356 1.24443 20.6965 0.775769 20.8685 0.688094Z" fill="#DB7A64"/>
<path d="M18.7233 0.759425C18.9853 0.643375 19.1252 0.669345 19.3733 0.769327C19.5867 0.855309 19.6402 0.982156 19.6829 1.08343C19.6863 1.0915 19.6896 1.0994 19.693 1.10711C19.7383 1.21159 19.799 1.50914 19.5627 1.82411C19.3265 2.13907 19.0277 2.11596 18.9131 2.05155C18.7986 1.98715 18.5509 1.82157 18.5043 1.61094C18.4576 1.40031 18.4381 1.19179 18.4743 1.09361C18.4997 1.02492 18.6426 0.795133 18.7233 0.759425Z" fill="#DB7A64"/>
<path d="M16.9662 2.47148C16.7493 2.38906 16.6461 2.1993 16.6125 1.90385C16.6124 1.9016 16.6117 1.894 16.6107 1.88261C16.6055 1.82561 16.5915 1.67365 16.5998 1.62012C16.6129 1.5353 16.6953 1.4104 16.7858 1.31641C16.8992 1.19873 17.1379 1.20989 17.3277 1.25231C17.6387 1.32182 17.7089 1.6633 17.7257 1.75268C17.7479 1.87052 17.6303 2.26536 17.4872 2.39565C17.3471 2.52329 17.2372 2.57449 16.9662 2.47148Z" fill="#DB7A64"/>
<path d="M15.2601 3.13221C15.108 3.05985 15.0645 2.99589 14.9993 2.74849C14.9952 2.73302 14.9468 2.54456 14.9572 2.48772L14.9587 2.47921C14.9695 2.41862 14.9868 2.32163 15.0907 2.22034C15.2106 2.1034 15.302 2.05453 15.4804 2.08388C15.7122 2.12201 15.8779 2.31442 15.9295 2.44177C16.0056 2.62943 15.9183 2.87008 15.8169 3.02381C15.7155 3.17754 15.434 3.2149 15.2601 3.13221Z" fill="#DB7A64"/>
<path d="M16.9515 3.72758C17.4335 3.53766 18.4004 3.26913 19.0079 3.18485C19.6613 3.0166 21.2071 2.94097 22.6268 3.45474C24.2441 4.04004 23.9027 4.82039 23.78 5.10071C23.7681 5.12797 23.7582 5.1505 23.7525 5.16766C23.6927 5.34481 23.0828 6.2038 22.946 6.34736C22.9309 6.36311 22.9106 6.38493 22.8854 6.4119C22.6778 6.63452 22.1433 7.20773 21.5849 7.61038C21.0322 8.00895 20.7368 8.43924 20.5197 8.75535C20.491 8.79726 20.4635 8.8372 20.4371 8.87475C20.2113 9.19557 19.2573 10.8587 19.1361 11.7783C19.0324 12.5654 18.8804 12.9298 18.7087 13.3417C18.6797 13.4111 18.6502 13.4818 18.6203 13.5561C18.1361 14.7589 16.88 15.1193 16.4666 15.238C16.4408 15.2454 16.4181 15.2519 16.3992 15.2575C16.0788 15.3539 15.1245 15.5023 14.3087 14.9645C13.4928 14.4268 13.4897 13.4851 13.5026 13.2864C13.5123 13.1364 13.6726 12.4867 13.7884 12.0171C13.8394 11.8106 13.8817 11.6389 13.8989 11.56C13.9572 11.2916 14.2797 9.64045 14.3132 9.32999C14.3399 9.08162 14.339 8.4972 14.3352 8.23603C14.3071 7.9612 14.2671 7.23103 14.3322 6.50898C14.4135 5.60643 14.977 4.81691 15.2377 4.59472C15.4984 4.37253 16.4694 3.91749 16.9515 3.72758Z" fill="#DB7A64"/>
<path d="M24.5263 8.47368C24.622 8.29971 24.9059 7.91969 25.276 7.79137C25.7387 7.63097 26.1146 7.64526 26.4188 7.79002C26.723 7.93478 27.157 8.4022 27.2407 8.75149C27.3244 9.10079 27.2865 9.52626 27.0254 9.87883C26.7644 10.2314 26.4225 10.5449 26.1623 10.6682C25.934 10.7764 25.49 10.8219 25.2408 10.702C25.0783 10.6237 24.5907 10.389 24.4133 9.98705C24.2359 9.58507 24.2226 9.25205 24.2448 9.117C24.2686 8.97269 24.3936 8.675 24.5263 8.47368Z" fill="#DB7A64"/>
<path d="M28.211 11.9121C28.2162 11.7311 28.2071 11.6366 28.1857 11.5825C28.1643 11.5284 28.0893 11.4127 28.0013 11.3211C27.864 11.2045 27.812 11.1753 27.7495 11.1401C27.687 11.105 27.5681 11.0688 27.5096 11.071C27.4657 11.0726 27.3382 11.0928 27.288 11.104C27.2501 11.1125 27.1849 11.1392 27.1439 11.156C27.1336 11.1603 27.1248 11.1639 27.1184 11.1664C27.0542 11.1916 26.9276 11.2825 26.8897 11.34L26.6368 11.7235C26.5881 11.8406 26.5688 11.9349 26.5933 12.0275C26.6167 12.1156 26.7174 12.2506 26.7756 12.314C26.7955 12.3357 26.9208 12.4614 27.0355 12.5258C27.1605 12.5961 27.2386 12.6377 27.3795 12.6536C27.509 12.6682 27.6225 12.6221 27.7136 12.5851C27.7254 12.5804 27.7367 12.5758 27.7477 12.5715C27.8753 12.5213 28.2058 12.0932 28.211 11.9121Z" fill="#DB7A64"/>
<path d="M29.1285 13.7027C29.1196 13.4348 29.0303 13.3321 28.8202 13.1745C28.6395 13.039 28.493 13.0532 28.376 13.0645L28.3657 13.0655L28.3555 13.0665L28.3486 13.0671C28.2274 13.0777 27.9135 13.1641 27.7194 13.5017C27.5253 13.8394 27.6848 14.0736 27.7994 14.138C27.9139 14.2024 28.1869 14.3296 28.4108 14.2715C28.6346 14.2134 28.844 14.1341 28.9217 14.0595C28.9761 14.0073 29.1312 13.7851 29.1285 13.7027Z" fill="#DB7A64"/>
<path d="M28.2907 15.9255C28.4696 16.0655 28.6994 16.0633 28.9987 15.9557C29.001 15.9547 29.0086 15.9518 29.02 15.9475C29.0772 15.9257 29.2296 15.8676 29.2773 15.8363C29.3528 15.7868 29.435 15.6622 29.4837 15.545C29.5447 15.3983 29.4242 15.2078 29.2962 15.0717C29.0865 14.8486 28.726 14.9473 28.6324 14.9744C28.5089 15.0101 28.1836 15.2871 28.1241 15.4639C28.0658 15.6371 28.0671 15.7505 28.2907 15.9255Z" fill="#DB7A64"/>
<path d="M28.4398 17.6257C28.5793 17.7173 28.6607 17.7236 28.9285 17.6639C28.9452 17.6602 29.1486 17.6136 29.1985 17.5792L29.2059 17.574C29.2592 17.5375 29.3445 17.479 29.3941 17.3475C29.4513 17.1957 29.4563 17.0985 29.3461 16.9657C29.2029 16.7932 28.9418 16.7454 28.7957 16.7614C28.5804 16.7849 28.3892 16.9665 28.2881 17.1199C28.1869 17.2732 28.2804 17.5211 28.4398 17.6257Z" fill="#DB7A64"/>
<path d="M27.0903 16.5121C27.0512 16.0302 26.8649 15.115 26.6666 14.5787C26.528 13.9664 25.8903 12.6651 24.7439 11.7367C23.4381 10.6791 22.845 11.3158 22.632 11.5446C22.6113 11.5668 22.5942 11.5852 22.5803 11.5978C22.4375 11.7277 21.8923 12.6204 21.8173 12.7982C21.8091 12.8175 21.7976 12.8439 21.7834 12.8764L21.7832 12.877L21.783 12.8773C21.6645 13.1492 21.3593 13.8494 21.229 14.4911C21.0999 15.1263 20.8222 15.5652 20.6182 15.8876C20.5911 15.9304 20.5653 15.9711 20.5414 16.01C20.3369 16.3418 19.177 17.8842 18.3488 18.4041C17.64 18.849 17.3597 19.1402 17.0428 19.4694C16.9894 19.5248 16.935 19.5813 16.8773 19.6398C15.9439 20.5867 16.1749 21.7809 16.2509 22.1739C16.2556 22.1985 16.2598 22.22 16.263 22.238C16.3177 22.5447 16.6137 23.3945 17.5055 23.8171C18.3973 24.2397 19.3037 23.8115 19.4887 23.7101C19.6285 23.6335 20.1792 23.205 20.5772 22.8953C20.7523 22.7591 20.8979 22.6459 20.9658 22.5957C21.197 22.4252 22.6356 21.4057 22.9186 21.2363C23.145 21.1008 23.7071 20.8343 23.9598 20.718C24.2369 20.6153 24.957 20.3141 25.621 19.9305C26.451 19.4511 26.9508 18.6282 27.0445 18.313C27.1383 17.9977 27.1293 16.994 27.0903 16.5121Z" fill="#DB7A64"/>
</svg>
