<svg width="40" height="40" viewBox="0 0 40 40" fill="none" xmlns="http://www.w3.org/2000/svg">
<circle cx="20" cy="20" r="20" fill="#DB7A64"/>
<g clip-path="url(#clip0_130_1018)">
<path d="M19.1688 15.8239L11.1666 22.4146V29.5279C11.1666 29.712 11.2397 29.8887 11.37 30.0189C11.5002 30.1491 11.6769 30.2223 11.861 30.2223L16.7247 30.2097C16.9083 30.2088 17.0841 30.1352 17.2135 30.0051C17.343 29.875 17.4157 29.6988 17.4157 29.5153V25.3612C17.4157 25.177 17.4889 25.0004 17.6191 24.8701C17.7493 24.7399 17.926 24.6667 18.1102 24.6667H20.8879C21.0721 24.6667 21.2488 24.7399 21.379 24.8701C21.5092 25.0004 21.5824 25.177 21.5824 25.3612V29.5122C21.5821 29.6036 21.5998 29.6941 21.6346 29.7787C21.6694 29.8632 21.7205 29.94 21.785 30.0047C21.8495 30.0694 21.9262 30.1207 22.0106 30.1558C22.095 30.1908 22.1854 30.2088 22.2768 30.2088L27.1388 30.2223C27.323 30.2223 27.4996 30.1491 27.6299 30.0189C27.7601 29.8887 27.8333 29.712 27.8333 29.5279V22.4098L19.8328 15.8239C19.7388 15.7481 19.6216 15.7067 19.5008 15.7067C19.38 15.7067 19.2628 15.7481 19.1688 15.8239ZM31.8089 20.3035L28.1805 17.3126V11.3009C28.1805 11.1627 28.1256 11.0303 28.0279 10.9326C27.9302 10.8349 27.7978 10.78 27.6596 10.78H25.2291C25.091 10.78 24.9585 10.8349 24.8608 10.9326C24.7631 11.0303 24.7083 11.1627 24.7083 11.3009V14.4523L20.8224 11.2553C20.4495 10.9484 19.9816 10.7806 19.4986 10.7806C19.0157 10.7806 18.5477 10.9484 18.1748 11.2553L7.18829 20.3035C7.13555 20.3471 7.09191 20.4006 7.05988 20.4611C7.02784 20.5215 7.00804 20.5877 7.00159 20.6558C6.99514 20.7239 7.00217 20.7927 7.02229 20.8581C7.04241 20.9235 7.07522 20.9843 7.11884 21.037L8.22561 22.3825C8.26912 22.4354 8.32262 22.4792 8.38308 22.5113C8.44353 22.5435 8.50974 22.5635 8.57791 22.5701C8.64608 22.5766 8.71488 22.5697 8.78037 22.5496C8.84586 22.5296 8.90675 22.4968 8.95955 22.4532L19.1688 14.0444C19.2628 13.9685 19.38 13.9272 19.5008 13.9272C19.6216 13.9272 19.7388 13.9685 19.8328 14.0444L30.0425 22.4532C30.0952 22.4968 30.156 22.5296 30.2214 22.5498C30.2868 22.5699 30.3555 22.5769 30.4236 22.5705C30.4917 22.564 30.5579 22.5442 30.6184 22.5122C30.6788 22.4801 30.7324 22.4365 30.776 22.3838L31.8827 21.0383C31.9263 20.9853 31.959 20.9242 31.9789 20.8585C31.9987 20.7928 32.0054 20.7238 31.9986 20.6555C31.9917 20.5872 31.9714 20.521 31.9389 20.4606C31.9064 20.4002 31.8622 20.3468 31.8089 20.3035Z" fill="#F8F8F8"/>
</g>
<defs>
<clipPath id="clip0_130_1018">
<rect width="25" height="25" fill="white" transform="translate(7 8)"/>
</clipPath>
</defs>
</svg>
