<svg width="40" height="40" viewBox="0 0 40 40" fill="none" xmlns="http://www.w3.org/2000/svg">
<circle cx="20" cy="20" r="20" fill="#DB7A64"/>
<path d="M29.6211 17.4531C29.7734 17.332 30 17.4453 30 17.6367V25.625C30 26.6602 29.1602 27.5 28.125 27.5H11.875C10.8398 27.5 10 26.6602 10 25.625V17.6406C10 17.4453 10.2227 17.3359 10.3789 17.457C11.2539 18.1367 12.4141 19 16.3984 21.8945C17.2227 22.4961 18.6133 23.7617 20 23.7539C21.3945 23.7656 22.8125 22.4727 23.6055 21.8945C27.5898 19 28.7461 18.1328 29.6211 17.4531ZM20 22.5C20.9063 22.5156 22.2109 21.3594 22.8672 20.8828C28.0508 17.1211 28.4453 16.793 29.6406 15.8555C29.8672 15.6797 30 15.4063 30 15.1172V14.375C30 13.3398 29.1602 12.5 28.125 12.5H11.875C10.8398 12.5 10 13.3398 10 14.375V15.1172C10 15.4063 10.1328 15.6758 10.3594 15.8555C11.5547 16.7891 11.9492 17.1211 17.1328 20.8828C17.7891 21.3594 19.0937 22.5156 20 22.5Z" fill="#F8F8F8"/>
</svg>
