<svg width="64" height="64" viewBox="0 0 64 64" fill="none" xmlns="http://www.w3.org/2000/svg">
<circle cx="32" cy="32" r="32" fill="#DB7A64"/>
<path d="M43.3281 15H21.6719C20.8175 15 20.125 15.6925 20.125 16.5469V17.5781C20.125 18.4325 20.8175 19.125 21.6719 19.125C21.6719 24.988 24.96 29.936 29.4605 31.5C24.96 33.064 21.6719 38.012 21.6719 43.875C20.8175 43.875 20.125 44.5675 20.125 45.4219V46.4531C20.125 47.3075 20.8175 48 21.6719 48H43.3281C44.1825 48 44.875 47.3075 44.875 46.4531V45.4219C44.875 44.5675 44.1825 43.875 43.3281 43.875C43.3281 38.012 40.04 33.064 35.5395 31.5C40.04 29.936 43.3281 24.988 43.3281 19.125C44.1825 19.125 44.875 18.4325 44.875 17.5781V16.5469C44.875 15.6925 44.1825 15 43.3281 15ZM39.2031 43.875H25.7969C25.7969 38.8826 28.7749 34.5938 32.5 34.5938C36.2245 34.5938 39.2031 38.881 39.2031 43.875Z" fill="#F8F8F8"/>
</svg>
