<svg width="40" height="40" viewBox="0 0 40 40" fill="none" xmlns="http://www.w3.org/2000/svg">
<circle cx="20" cy="20" r="20" fill="#DB7A64"/>
<g clip-path="url(#clip0_130_1024)">
<path d="M29.237 11.0089L24.9714 10.0246C24.5079 9.91792 24.0322 10.1599 23.8435 10.5947L21.8747 15.1884C21.7025 15.5904 21.8173 16.0621 22.1578 16.3369L24.6433 18.3712C23.1667 21.5171 20.5869 24.1339 17.3753 25.6392L15.341 23.1537C15.062 22.8132 14.5945 22.6984 14.1925 22.8707L9.59877 24.8394C9.1599 25.0322 8.91791 25.508 9.02455 25.9714L10.0089 30.2371C10.1115 30.68 10.5052 31 10.9687 31C21.4728 31 29.9999 22.4892 29.9999 11.9687C29.9999 11.5093 29.6841 11.1115 29.237 11.0089Z" fill="#F8F8F8"/>
</g>
<defs>
<clipPath id="clip0_130_1024">
<rect width="21" height="21" fill="white" transform="translate(9 10)"/>
</clipPath>
</defs>
</svg>
