<svg width="64" height="64" viewBox="0 0 64 64" fill="none" xmlns="http://www.w3.org/2000/svg">
<circle cx="32" cy="32" r="32" fill="#DB7A64"/>
<path d="M40.9796 43.5173C40.8795 43.0122 40.3828 42.6891 39.8809 42.8036C39.0664 42.9894 37.7921 43.2159 36.4207 43.2159C32.0969 43.2159 28.6565 40.5659 27.1688 36.7071H35.8287C36.0363 36.7071 36.2377 36.6364 36.3998 36.5067C36.5619 36.377 36.675 36.196 36.7205 35.9935L37.2059 33.8332C37.3344 33.2618 36.8998 32.7188 36.3141 32.7188H26.089C25.9969 31.6274 25.9813 30.5641 26.0995 29.5009H37.2657C37.4742 29.5009 37.6764 29.4296 37.8388 29.2989C38.0012 29.1682 38.1141 28.9859 38.1587 28.7823L38.6547 26.5158C38.7795 25.9457 38.3454 25.4062 37.7618 25.4062H27.2289C28.8005 21.9792 32.0041 19.6911 36.1881 19.6911C37.2915 19.6911 38.3639 19.8625 39.0713 20.0068C39.5448 20.1034 40.0118 19.8165 40.1379 19.35L41.0512 15.9704C41.19 15.4569 40.8635 14.9332 40.3409 14.8341C39.4189 14.6593 37.933 14.4375 36.3277 14.4375C28.925 14.4375 22.9515 19.027 20.7459 25.4062H18.2266C17.7218 25.4062 17.3125 25.8155 17.3125 26.3203V28.5868C17.3125 29.0916 17.7218 29.5009 18.2266 29.5009H19.8695C19.7927 30.5373 19.7796 31.7317 19.8557 32.7188H18.2266C17.7218 32.7188 17.3125 33.128 17.3125 33.6328V35.793C17.3125 36.2978 17.7218 36.7071 18.2266 36.7071H20.5204C22.4266 43.5879 28.3775 48.5625 36.3277 48.5625C38.3311 48.5625 40.0267 48.2164 40.9818 47.9693C41.4516 47.8478 41.7456 47.3821 41.6512 46.9061L40.9796 43.5173Z" fill="#F8F8F8"/>
</svg>
