<svg width="64" height="64" viewBox="0 0 64 64" fill="none" xmlns="http://www.w3.org/2000/svg">
<circle cx="32" cy="32" r="32" fill="#DB7A64"/>
<path d="M29.8582 28.7106C30.8473 23.4017 30.6316 15.4992 29.3309 12.059C29.3309 11.7869 29.0588 11.0325 29.3309 10.6034C29.8582 9.77156 34.2274 10.0309 36.6757 10.0642H41.9037C42.3482 10.0642 44.0206 10.6034 43.0563 12.059C42.3875 13.0686 42.4235 17.0268 42.6947 18.9292C42.9659 20.8315 44.7513 22.1023 46.5065 23.7352C47.4537 24.6163 49 27.7479 49 29.4808C49 31.0847 47.5838 33.4935 45.9717 34.6796C44.9556 35.4272 42.4235 35.5961 39.4253 36.8592C36.4746 38.1024 26.3478 51.9319 25.617 52.5173C24.6929 53.2576 19.9295 53.0564 17.5339 52.5173C16.1405 52.2037 15.161 50.0681 17.0368 48.6663C18.0925 47.8774 22.5134 46.9873 23.3119 45.7242C24.1104 44.4611 28.442 36.3124 29.8582 28.7106Z" fill="#F8F8F8"/>
</svg>
