<svg width="19" height="18" viewBox="0 0 19 18" fill="none" xmlns="http://www.w3.org/2000/svg">
<g clip-path="url(#clip0_130_1009)">
<path d="M17.846 0.864736L14.1897 0.0209856C13.7925 -0.0704206 13.3846 0.137001 13.2229 0.509658L11.5354 4.44716C11.3878 4.79169 11.4862 5.19599 11.778 5.43153L13.9085 7.17528C12.6428 9.87177 10.4315 12.1147 7.67878 13.405L5.93503 11.2745C5.69597 10.9827 5.29519 10.8843 4.95066 11.0319L1.01316 12.7194C0.636987 12.8847 0.429565 13.2925 0.520972 13.6897L1.36472 17.346C1.45261 17.7257 1.79011 17.9999 2.18738 17.9999C11.1909 17.9999 18.4999 10.705 18.4999 1.68739C18.4999 1.29364 18.2292 0.952626 17.846 0.864736Z" fill="#16304D"/>
</g>
<defs>
<clipPath id="clip0_130_1009">
<rect width="18" height="18" fill="white" transform="translate(0.5)"/>
</clipPath>
</defs>
</svg>
