<svg width="360" height="140" viewBox="0 0 360 140" fill="none" xmlns="http://www.w3.org/2000/svg">
<path d="M0 116.072H2.876V121.362H7.12748V109.537H15.818V121.362H17.8187V119.433H18.8816V121.362H24.1959V113.832H27.2595V103.189H30.1355V90.9285H31.0733V98.9571H31.9486V97.7124H34.3869V98.9571H36.8253V103.189H41.1393V121.362H44.6405V129.578H51.3303V100.015H52.2056V97.7124H55.2692V100.015H57.3949V97.7124H61.2088V100.015H63.7721V97.7124H65.0226V100.015H65.8979V123.23H73.0879L74.2758 79.2279L66.8357 73.9378H69.8993V72.1329L68.0861 70.8881L68.5238 70.1413H74.2758L75.2761 41.5122L76.8392 70.1413H82.7787L83.0914 70.8881L81.4033 72.1329V73.9378H84.967L76.5891 79.2279L78.0896 123.23H81.4033V100.015H86.7176V97.7124H83.7791V89.746H86.7176V87.8789H90.7815V89.746H93.4074V97.7124H90.7815V100.015H97.0337V127.337H101.973V90.9285L99.222 87.8789H106.412V84.6426H111.601V87.1943H115.728L112.664 90.0572V100.7H115.728V127.337H119.917V67.5896H123.981V64.3532H128.232V58.4407H131.608V55.5156H133.296V40.143H134.234V55.5156H138.798V58.4407H142.049V127.337H145.426V97.3389H148.489V94.6005H154.053V89.9327H158.117V97.3389H160.618V124.91H164.495V54.5198H168.621V48.296H170.372V44.0017L178.249 22.4676L186.877 44.0017V48.296H188.378V54.5198H191.504V109.537H197.694V121.487H201.883V14.688H204.446V0H205.384V23.4012H206.884V33.5458H210.698V42.1346H214.199V44.0017H216.513V27.5711H217.013V39.2094H220.514V44.0017H223.765V129.889H227.329V100.7H233.581V97.3389H249.024V124.91H252.65V98.0858H253.526V96.9033H254.401V95.783H255.214V80.0992H256.402V94.7872H256.839V95.783H265.655V98.0858H267.093V136.113H271.032V117.068H272.72V114.33H270.719V113.147H275.533V105.99H273.97V104.683H275.533V102.691H276.471C276.471 100.389 278.722 100.015 278.722 100.015V96.4676H277.221V95.783H278.284C278.097 94.4138 278.947 93.169 280.097 92.6712L280.597 85.4516L281.285 92.6712C282.223 93.0446 283.161 93.418 283.036 95.783C283.032 95.8458 283.598 95.783 284.349 95.783V96.4676H282.536V100.015C283.328 100.14 284.974 100.848 284.974 102.691C284.974 102.754 285.349 102.691 285.724 102.691V104.683H287.225V105.99H285.724V113.147H290.413V114.33H288.788V126.715H293.977V94.7872H297.228V91.2397H305.168V94.7872H309.545V121.3H313.484V108.977H331.553V121.3H337.617V99.8907H339.243V95.7208H340.743V94.5383H342.744L343.244 93.3558V88.7502H343.557V93.3558L344.37 94.5383H348.996V95.4718H352.247V113.521H360V140H0V116.072Z" fill="#16304D"/>
</svg>
